{"asset":{"version":"2.0","generator":"Blockbench 5.0.7 glTF exporter"},"scenes":[{"nodes":[25],"name":"blockbench_export"}],"scene":0,"nodes":[{"translation":[0,-0.3125,0],"name":"cube","mesh":0},{"translation":[0,-0.25,-0.625],"name":"cube","mesh":1},{"translation":[0.25,-0.03125,0.03125],"name":"cube","mesh":2},{"rotation":[0,0,0.3826834323650898,0.9238795325112867],"translation":[-0.051776875,0.21875,0],"name":"cube","mesh":3},{"rotation":[-0.13052619222005157,0,0,0.9914448613738104],"translation":[-0.171875,0.31569437499999997,-0.225735625],"name":"left_ear","children":[2,3]},{"translation":[-0.03125,-0.125,0.03125],"name":"cube","mesh":4},{"translation":[-0.15625,-0.3125,0],"name":"left_leg","children":[5]},{"translation":[0.03125,-0.125,0.03125],"name":"cube","mesh":5},{"translation":[0.15625,-0.3125,0.03125],"name":"right_leg","children":[7]},{"translation":[0.171875,-0.421875,0.3125],"name":"cube","mesh":6},{"translation":[-0.171875,0.109375,-0.3140625],"name":"left_eye","children":[9]},{"rotation":[0,0,0.3826834323650898,0.9238795325112867],"translation":[0.3125,0,0],"name":"cube","mesh":7},{"rotation":[0,0,0.3826834323650898,0.9238795325112867],"translation":[0.3125,0,0],"name":"cube","mesh":8},{"rotation":[0,0,0.3826834323650898,0.9238795325112867],"translation":[0.22411187499999996,0,-0.03125],"name":"cube","mesh":9},{"translation":[0.3125,0,0],"name":"right_arm","children":[11,12,13]},{"translation":[-0.171875,-0.421875,0.3125],"name":"cube","mesh":10},{"translation":[0.171875,0.109375,-0.3140625],"name":"right_eye","children":[15]},{"rotation":[0,0,-0.3826834323650898,0.9238795325112867],"translation":[-0.3125,0,0],"name":"cube","mesh":11},{"rotation":[0,0,-0.3826834323650898,0.9238795325112867],"translation":[-0.3125,0,0],"name":"cube","mesh":12},{"rotation":[0,0,-0.3826834323650898,0.9238795325112867],"translation":[-0.22411187499999996,0,-0.03125],"name":"cube","mesh":13},{"translation":[-0.3125,0,0],"name":"left_arm","children":[17,18,19]},{"translation":[-0.25,-0.03125,0.03125],"name":"cube","mesh":14},{"rotation":[0,0,-0.3826834323650898,0.9238795325112867],"translation":[0.051776875,0.21875,0],"name":"cube","mesh":15},{"rotation":[-0.13052619222005157,0,0,0.9914448613738104],"translation":[0.171875,0.31569437499999997,-0.225735625],"name":"right_ear","children":[21,22]},{"translation":[0,0.4375,0],"name":"head","children":[0,1,4,6,8,10,14,16,20,23]},{"name":"cube-pet","children":[24]}],"bufferViews":[{"buffer":0,"byteOffset":0,"byteLength":288,"target":34962,"byteStride":12},{"buffer":0,"byteOffset":288,"byteLength":288,"target":34962,"byteStride":12},{"buffer":0,"byteOffset":576,"byteLength":192,"target":34962,"byteStride":8},{"buffer":0,"byteOffset":768,"byteLength":72,"target":34963},{"buffer":0,"byteOffset":840,"byteLength":288,"target":34962,"byteStride":12},{"buffer":0,"byteOffset":1128,"byteLength":288,"target":34962,"byteStride":12},{"buffer":0,"byteOffset":1416,"byteLength":192,"target":34962,"byteStride":8},{"buffer":0,"byteOffset":1608,"byteLength":72,"target":34963},{"buffer":0,"byteOffset":1680,"byteLength":288,"target":34962,"byteStride":12},{"buffer":0,"byteOffset":1968,"byteLength":288,"target":34962,"byteStride":12},{"buffer":0,"byteOffset":2256,"byteLength":192,"target":34962,"byteStride":8},{"buffer":0,"byteOffset":2448,"byteLength":72,"target":34963},{"buffer":0,"byteOffset":2520,"byteLength":288,"target":34962,"byteStride":12},{"buffer":0,"byteOffset":2808,"byteLength":288,"target":34962,"byteStride":12},{"buffer":0,"byteOffset":3096,"byteLength":192,"target":34962,"byteStride":8},{"buffer":0,"byteOffset":3288,"byteLength":72,"target":34963},{"buffer":0,"byteOffset":3360,"byteLength":288,"target":34962,"byteStride":12},{"buffer":0,"byteOffset":3648,"byteLength":288,"target":34962,"byteStride":12},{"buffer":0,"byteOffset":3936,"byteLength":192,"target":34962,"byteStride":8},{"buffer":0,"byteOffset":4128,"byteLength":72,"target":34963},{"buffer":0,"byteOffset":4200,"byteLength":288,"target":34962,"byteStride":12},{"buffer":0,"byteOffset":4488,"byteLength":288,"target":34962,"byteStride":12},{"buffer":0,"byteOffset":4776,"byteLength":192,"target":34962,"byteStride":8},{"buffer":0,"byteOffset":4968,"byteLength":72,"target":34963},{"buffer":0,"byteOffset":5040,"byteLength":240,"target":34962,"byteStride":12},{"buffer":0,"byteOffset":5280,"byteLength":240,"target":34962,"byteStride":12},{"buffer":0,"byteOffset":5520,"byteLength":160,"target":34962,"byteStride":8},{"buffer":0,"byteOffset":5680,"byteLength":60,"target":34963},{"buffer":0,"byteOffset":5740,"byteLength":288,"target":34962,"byteStride":12},{"buffer":0,"byteOffset":6028,"byteLength":288,"target":34962,"byteStride":12},{"buffer":0,"byteOffset":6316,"byteLength":192,"target":34962,"byteStride":8},{"buffer":0,"byteOffset":6508,"byteLength":72,"target":34963},{"buffer":0,"byteOffset":6580,"byteLength":288,"target":34962,"byteStride":12},{"buffer":0,"byteOffset":6868,"byteLength":288,"target":34962,"byteStride":12},{"buffer":0,"byteOffset":7156,"byteLength":192,"target":34962,"byteStride":8},{"buffer":0,"byteOffset":7348,"byteLength":72,"target":34963},{"buffer":0,"byteOffset":7420,"byteLength":240,"target":34962,"byteStride":12},{"buffer":0,"byteOffset":7660,"byteLength":240,"target":34962,"byteStride":12},{"buffer":0,"byteOffset":7900,"byteLength":160,"target":34962,"byteStride":8},{"buffer":0,"byteOffset":8060,"byteLength":60,"target":34963},{"buffer":0,"byteOffset":8120,"byteLength":240,"target":34962,"byteStride":12},{"buffer":0,"byteOffset":8360,"byteLength":240,"target":34962,"byteStride":12},{"buffer":0,"byteOffset":8600,"byteLength":160,"target":34962,"byteStride":8},{"buffer":0,"byteOffset":8760,"byteLength":60,"target":34963},{"buffer":0,"byteOffset":8820,"byteLength":288,"target":34962,"byteStride":12},{"buffer":0,"byteOffset":9108,"byteLength":288,"target":34962,"byteStride":12},{"buffer":0,"byteOffset":9396,"byteLength":192,"target":34962,"byteStride":8},{"buffer":0,"byteOffset":9588,"byteLength":72,"target":34963},{"buffer":0,"byteOffset":9660,"byteLength":288,"target":34962,"byteStride":12},{"buffer":0,"byteOffset":9948,"byteLength":288,"target":34962,"byteStride":12},{"buffer":0,"byteOffset":10236,"byteLength":192,"target":34962,"byteStride":8},{"buffer":0,"byteOffset":10428,"byteLength":72,"target":34963},{"buffer":0,"byteOffset":10500,"byteLength":240,"target":34962,"byteStride":12},{"buffer":0,"byteOffset":10740,"byteLength":240,"target":34962,"byteStride":12},{"buffer":0,"byteOffset":10980,"byteLength":160,"target":34962,"byteStride":8},{"buffer":0,"byteOffset":11140,"byteLength":60,"target":34963},{"buffer":0,"byteOffset":11200,"byteLength":288,"target":34962,"byteStride":12},{"buffer":0,"byteOffset":11488,"byteLength":288,"target":34962,"byteStride":12},{"buffer":0,"byteOffset":11776,"byteLength":192,"target":34962,"byteStride":8},{"buffer":0,"byteOffset":11968,"byteLength":72,"target":34963},{"buffer":0,"byteOffset":12040,"byteLength":288,"target":34962,"byteStride":12},{"buffer":0,"byteOffset":12328,"byteLength":288,"target":34962,"byteStride":12},{"buffer":0,"byteOffset":12616,"byteLength":192,"target":34962,"byteStride":8},{"buffer":0,"byteOffset":12808,"byteLength":72,"target":34963},{"buffer":0,"byteOffset":12880,"byteLength":448},{"buffer":0,"byteOffset":13328,"byteLength":1792},{"buffer":0,"byteOffset":15120,"byteLength":444},{"buffer":0,"byteOffset":15564,"byteLength":1332},{"buffer":0,"byteOffset":16896,"byteLength":444},{"buffer":0,"byteOffset":17340,"byteLength":1332},{"buffer":0,"byteOffset":18672,"byteLength":448},{"buffer":0,"byteOffset":19120,"byteLength":1792},{"buffer":0,"byteOffset":20912,"byteLength":16},{"buffer":0,"byteOffset":20928,"byteLength":48},{"buffer":0,"byteOffset":20976,"byteLength":448},{"buffer":0,"byteOffset":21424,"byteLength":1792},{"buffer":0,"byteOffset":23216,"byteLength":16},{"buffer":0,"byteOffset":23232,"byteLength":48},{"buffer":0,"byteOffset":23280,"byteLength":448},{"buffer":0,"byteOffset":23728,"byteLength":1792},{"buffer":0,"byteOffset":25520,"byteLength":16},{"buffer":0,"byteOffset":25536,"byteLength":48},{"buffer":0,"byteOffset":25584,"byteLength":16},{"buffer":0,"byteOffset":25600,"byteLength":48},{"buffer":0,"byteOffset":25648,"byteLength":448},{"buffer":0,"byteOffset":26096,"byteLength":1792},{"buffer":0,"byteOffset":27888,"byteLength":16},{"buffer":0,"byteOffset":27904,"byteLength":48},{"buffer":0,"byteOffset":27952,"byteLength":16},{"buffer":0,"byteOffset":27968,"byteLength":48},{"buffer":0,"byteOffset":28016,"byteLength":448},{"buffer":0,"byteOffset":28464,"byteLength":1792},{"buffer":0,"byteOffset":30256,"byteLength":16},{"buffer":0,"byteOffset":30272,"byteLength":48},{"buffer":0,"byteOffset":30320,"byteLength":448},{"buffer":0,"byteOffset":30768,"byteLength":1792},{"buffer":0,"byteOffset":32560,"byteLength":16},{"buffer":0,"byteOffset":32576,"byteLength":48}],"buffers":[{"byteLength":32624,"uri":"data:application/octet-stream;base64,"}],"accessors":[{"bufferView":0,"componentType":5126,"count":24,"max":[0.3125,0.625,0.3125],"min":[-0.3125,0,-0.3125],"type":"VEC3"},{"bufferView":1,"componentType":5126,"count":24,"max":[1,1,1],"min":[-1,-1,-1],"type":"VEC3"},{"bufferView":2,"componentType":5126,"count":24,"max":[0.5,0.5],"min":[0,0],"type":"VEC2"},{"bufferView":3,"componentType":5123,"count":36,"max":[23],"min":[0],"type":"SCALAR"},{"bufferView":4,"componentType":5126,"count":24,"max":[0.125,0.25,0.3125],"min":[-0.125,0.0625,0.1875],"type":"VEC3"},{"bufferView":5,"componentType":5126,"count":24,"max":[1,1,1],"min":[-1,-1,-1],"type":"VEC3"},{"bufferView":6,"componentType":5126,"count":24,"max":[0.546875,0.5625],"min":[0,0],"type":"VEC2"},{"bufferView":7,"componentType":5123,"count":36,"max":[23],"min":[0],"type":"SCALAR"},{"bufferView":8,"componentType":5126,"count":24,"max":[-0.125,0.25,0],"min":[-0.375,0,-0.0625],"type":"VEC3"},{"bufferView":9,"componentType":5126,"count":24,"max":[1,1,1],"min":[-1,-1,-1],"type":"VEC3"},{"bufferView":10,"componentType":5126,"count":24,"max":[0.578125,0.578125],"min":[0.3125,0.203125],"type":"VEC2"},{"bufferView":11,"componentType":5123,"count":36,"max":[23],"min":[0],"type":"SCALAR"},{"bufferView":12,"componentType":5126,"count":24,"max":[0.125,0.05177687481045723,0.02968749962747097],"min":[-0.05177624896168709,-0.125,-0.02968749962747097],"type":"VEC3"},{"bufferView":13,"componentType":5126,"count":24,"max":[1,1,1],"min":[-1,-1,-1],"type":"VEC3"},{"bufferView":14,"componentType":5126,"count":24,"max":[1,0.5625],"min":[0.734375,0.1875],"type":"VEC2"},{"bufferView":15,"componentType":5123,"count":36,"max":[23],"min":[0],"type":"SCALAR"},{"bufferView":16,"componentType":5126,"count":24,"max":[0.125,0.125,0.0625],"min":[-0.0625,0,-0.125],"type":"VEC3"},{"bufferView":17,"componentType":5126,"count":24,"max":[1,1,1],"min":[-1,-1,-1],"type":"VEC3"},{"bufferView":18,"componentType":5126,"count":24,"max":[0.5625,0.546875],"min":[0.046875,0.0625],"type":"VEC2"},{"bufferView":19,"componentType":5123,"count":36,"max":[23],"min":[0],"type":"SCALAR"},{"bufferView":20,"componentType":5126,"count":24,"max":[0.0625,0.125,0.03125],"min":[-0.125,0,-0.15625],"type":"VEC3"},{"bufferView":21,"componentType":5126,"count":24,"max":[1,1,1],"min":[-1,-1,-1],"type":"VEC3"},{"bufferView":22,"componentType":5126,"count":24,"max":[0.5625,0.546875],"min":[0.171875,0.15625],"type":"VEC2"},{"bufferView":23,"componentType":5123,"count":36,"max":[23],"min":[0],"type":"SCALAR"},{"bufferView":24,"componentType":5126,"count":20,"max":[-0.0625,0.53125,-0.3125],"min":[-0.28125,0.3125,-0.3125],"type":"VEC3"},{"bufferView":25,"componentType":5126,"count":20,"max":[1,0,0],"min":[0,0,-1],"type":"VEC3"},{"bufferView":26,"componentType":5126,"count":20,"max":[0.34375,0.40625],"min":[0,0],"type":"VEC2"},{"bufferView":27,"componentType":5123,"count":30,"max":[19],"min":[0],"type":"SCALAR"},{"bufferView":28,"componentType":5126,"count":24,"max":[0.125,0.28125,0.03125],"min":[-0.3125,0.21875,-0.03125],"type":"VEC3"},{"bufferView":29,"componentType":5126,"count":24,"max":[1,1,1],"min":[-1,-1,-1],"type":"VEC3"},{"bufferView":30,"componentType":5126,"count":24,"max":[0.609375,0.578125],"min":[0.140625,0.421875],"type":"VEC2"},{"bufferView":31,"componentType":5123,"count":36,"max":[23],"min":[0],"type":"SCALAR"},{"bufferView":32,"componentType":5126,"count":24,"max":[0.125,0.21875,0.03125],"min":[0.0625,0.03125,-0.03125],"type":"VEC3"},{"bufferView":33,"componentType":5126,"count":24,"max":[1,1,1],"min":[-1,-1,-1],"type":"VEC3"},{"bufferView":34,"componentType":5126,"count":24,"max":[0.578125,0.609375],"min":[0.046875,0],"type":"VEC2"},{"bufferView":35,"componentType":5123,"count":36,"max":[23],"min":[0],"type":"SCALAR"},{"bufferView":36,"componentType":5126,"count":20,"max":[0.1875,0.21875,0.03125],"min":[-0.1875,-0.15625,0.03125],"type":"VEC3"},{"bufferView":37,"componentType":5126,"count":20,"max":[1,0,0],"min":[0,0,-1],"type":"VEC3"},{"bufferView":38,"componentType":5126,"count":20,"max":[0.65625,0.65625],"min":[0.171875,0.203125],"type":"VEC2"},{"bufferView":39,"componentType":5123,"count":30,"max":[19],"min":[0],"type":"SCALAR"},{"bufferView":40,"componentType":5126,"count":20,"max":[0.28125,0.53125,-0.3125],"min":[0.0625,0.3125,-0.3125],"type":"VEC3"},{"bufferView":41,"componentType":5126,"count":20,"max":[1,0,0],"min":[0,0,-1],"type":"VEC3"},{"bufferView":42,"componentType":5126,"count":20,"max":[0.34375,0.40625],"min":[0,0],"type":"VEC2"},{"bufferView":43,"componentType":5123,"count":30,"max":[19],"min":[0],"type":"SCALAR"},{"bufferView":44,"componentType":5126,"count":24,"max":[0.3125,0.28125,0.03125],"min":[-0.125,0.21875,-0.03125],"type":"VEC3"},{"bufferView":45,"componentType":5126,"count":24,"max":[1,1,1],"min":[-1,-1,-1],"type":"VEC3"},{"bufferView":46,"componentType":5126,"count":24,"max":[0.609375,0.578125],"min":[0.140625,0.421875],"type":"VEC2"},{"bufferView":47,"componentType":5123,"count":36,"max":[23],"min":[0],"type":"SCALAR"},{"bufferView":48,"componentType":5126,"count":24,"max":[-0.0625,0.21875,0.03125],"min":[-0.125,0.03125,-0.03125],"type":"VEC3"},{"bufferView":49,"componentType":5126,"count":24,"max":[1,1,1],"min":[-1,-1,-1],"type":"VEC3"},{"bufferView":50,"componentType":5126,"count":24,"max":[0.578125,0.609375],"min":[0.046875,0],"type":"VEC2"},{"bufferView":51,"componentType":5123,"count":36,"max":[23],"min":[0],"type":"SCALAR"},{"bufferView":52,"componentType":5126,"count":20,"max":[0.1875,0.21875,0.03125],"min":[-0.1875,-0.15625,0.03125],"type":"VEC3"},{"bufferView":53,"componentType":5126,"count":20,"max":[1,0,0],"min":[0,0,-1],"type":"VEC3"},{"bufferView":54,"componentType":5126,"count":20,"max":[0.65625,0.65625],"min":[0.171875,0.203125],"type":"VEC2"},{"bufferView":55,"componentType":5123,"count":30,"max":[19],"min":[0],"type":"SCALAR"},{"bufferView":56,"componentType":5126,"count":24,"max":[0.375,0.25,0],"min":[0.125,0,-0.0625],"type":"VEC3"},{"bufferView":57,"componentType":5126,"count":24,"max":[1,1,1],"min":[-1,-1,-1],"type":"VEC3"},{"bufferView":58,"componentType":5126,"count":24,"max":[0.578125,0.578125],"min":[0.3125,0.203125],"type":"VEC2"},{"bufferView":59,"componentType":5123,"count":36,"max":[23],"min":[0],"type":"SCALAR"},{"bufferView":60,"componentType":5126,"count":24,"max":[0.05177624896168709,0.05177687481045723,0.02968749962747097],"min":[-0.125,-0.125,-0.02968749962747097],"type":"VEC3"},{"bufferView":61,"componentType":5126,"count":24,"max":[1,1,1],"min":[-1,-1,-1],"type":"VEC3"},{"bufferView":62,"componentType":5126,"count":24,"max":[1,0.5625],"min":[0.734375,0.1875],"type":"VEC2"},{"bufferView":63,"componentType":5123,"count":36,"max":[23],"min":[0],"type":"SCALAR"},{"bufferView":64,"componentType":5126,"count":112,"max":[3.125],"min":[0],"type":"SCALAR"},{"bufferView":65,"componentType":5126,"count":112,"max":[0.008916073478758335,0,0.008916073478758335,1],"min":[-0.008916073478758335,-0.00007950268627610058,-0.008916073478758335,0.9999204874038696],"type":"VEC4"},{"bufferView":66,"componentType":5126,"count":111,"max":[3.125],"min":[0],"type":"SCALAR"},{"bufferView":67,"componentType":5126,"count":111,"max":[0,0.125,0],"min":[0,0.0625,0],"type":"VEC3"},{"bufferView":68,"componentType":5126,"count":111,"max":[3.125],"min":[0],"type":"SCALAR"},{"bufferView":69,"componentType":5126,"count":111,"max":[1,1.0499999523162842,1],"min":[1,1,1],"type":"VEC3"},{"bufferView":70,"componentType":5126,"count":112,"max":[3.125],"min":[0],"type":"SCALAR"},{"bufferView":71,"componentType":5126,"count":112,"max":[-0.06533153355121613,0,0,0.9978635907173157],"min":[-0.15540006756782532,0,0,0.987851619720459],"type":"VEC4"},{"bufferView":72,"componentType":5126,"count":4,"max":[3.125],"min":[0],"type":"SCALAR"},{"bufferView":73,"componentType":5126,"count":4,"max":[-0.171875,0.3156943619251251,-0.2257356196641922],"min":[-0.171875,0.3156943619251251,-0.2257356196641922],"type":"VEC3"},{"bufferView":74,"componentType":5126,"count":112,"max":[3.125],"min":[0],"type":"SCALAR"},{"bufferView":75,"componentType":5126,"count":112,"max":[0.06547471880912781,0,0,1],"min":[-0.025130094960331917,0,0,0.9978542327880859],"type":"VEC4"},{"bufferView":76,"componentType":5126,"count":4,"max":[3.125],"min":[0],"type":"SCALAR"},{"bufferView":77,"componentType":5126,"count":4,"max":[-0.15625,-0.3125,0],"min":[-0.15625,-0.3125,0],"type":"VEC3"},{"bufferView":78,"componentType":5126,"count":112,"max":[3.125],"min":[0],"type":"SCALAR"},{"bufferView":79,"componentType":5126,"count":112,"max":[0.06547471880912781,0,0,1],"min":[-0.025130094960331917,0,0,0.9978542327880859],"type":"VEC4"},{"bufferView":80,"componentType":5126,"count":4,"max":[3.125],"min":[0],"type":"SCALAR"},{"bufferView":81,"componentType":5126,"count":4,"max":[0.15625,-0.3125,0.03125],"min":[0.15625,-0.3125,0.03125],"type":"VEC3"},{"bufferView":82,"componentType":5126,"count":4,"max":[0.7083333134651184],"min":[0.4583333432674408],"type":"SCALAR"},{"bufferView":83,"componentType":5126,"count":4,"max":[1,1,1],"min":[1,0,1],"type":"VEC3"},{"bufferView":84,"componentType":5126,"count":112,"max":[3.125],"min":[0],"type":"SCALAR"},{"bufferView":85,"componentType":5126,"count":112,"max":[0.06515424698591232,0.0039062174037098885,0.24122321605682373,0.9997578263282776],"min":[-0.022695425897836685,-0.01944800093770027,-0.3631133437156677,0.9315095543861389],"type":"VEC4"},{"bufferView":86,"componentType":5126,"count":4,"max":[3.125],"min":[0],"type":"SCALAR"},{"bufferView":87,"componentType":5126,"count":4,"max":[0.3125,0,0],"min":[0.3125,0,0],"type":"VEC3"},{"bufferView":88,"componentType":5126,"count":4,"max":[0.7083333134651184],"min":[0.4583333432674408],"type":"SCALAR"},{"bufferView":89,"componentType":5126,"count":4,"max":[1,1,1],"min":[1,0,1],"type":"VEC3"},{"bufferView":90,"componentType":5126,"count":112,"max":[3.125],"min":[0],"type":"SCALAR"},{"bufferView":91,"componentType":5126,"count":112,"max":[0.06515424698591232,0.01944800093770027,0.3631133437156677,0.9997578263282776],"min":[-0.022695425897836685,-0.0039062174037098885,-0.24122321605682373,0.9315095543861389],"type":"VEC4"},{"bufferView":92,"componentType":5126,"count":4,"max":[3.125],"min":[0],"type":"SCALAR"},{"bufferView":93,"componentType":5126,"count":4,"max":[-0.3125,0,0],"min":[-0.3125,0,0],"type":"VEC3"},{"bufferView":94,"componentType":5126,"count":112,"max":[3.125],"min":[0],"type":"SCALAR"},{"bufferView":95,"componentType":5126,"count":112,"max":[-0.06533153355121613,0,0,0.9978635907173157],"min":[-0.15540006756782532,0,0,0.987851619720459],"type":"VEC4"},{"bufferView":96,"componentType":5126,"count":4,"max":[3.125],"min":[0],"type":"SCALAR"},{"bufferView":97,"componentType":5126,"count":4,"max":[0.171875,0.3156943619251251,-0.2257356196641922],"min":[0.171875,0.3156943619251251,-0.2257356196641922],"type":"VEC3"}],"materials":[{"pbrMetallicRoughness":{"metallicFactor":0,"roughnessFactor":1,"baseColorTexture":{"index":0}},"alphaMode":"MASK","alphaCutoff":0.05,"doubleSided":true}],"textures":[{"sampler":0,"source":0,"name":"cube-pet"}],"samplers":[{"magFilter":9728,"minFilter":9728,"wrapS":33071,"wrapT":33071}],"images":[{"mimeType":"image/png","uri":"data:image/png;base64,"}],"meshes":[{"primitives":[{"mode":4,"attributes":{"POSITION":0,"NORMAL":1,"TEXCOORD_0":2},"indices":3,"material":0}]},{"primitives":[{"mode":4,"attributes":{"POSITION":4,"NORMAL":5,"TEXCOORD_0":6},"indices":7,"material":0}]},{"primitives":[{"mode":4,"attributes":{"POSITION":8,"NORMAL":9,"TEXCOORD_0":10},"indices":11,"material":0}]},{"primitives":[{"mode":4,"attributes":{"POSITION":12,"NORMAL":13,"TEXCOORD_0":14},"indices":15,"material":0}]},{"primitives":[{"mode":4,"attributes":{"POSITION":16,"NORMAL":17,"TEXCOORD_0":18},"indices":19,"material":0}]},{"primitives":[{"mode":4,"attributes":{"POSITION":20,"NORMAL":21,"TEXCOORD_0":22},"indices":23,"material":0}]},{"primitives":[{"mode":4,"attributes":{"POSITION":24,"NORMAL":25,"TEXCOORD_0":26},"indices":27,"material":0}]},{"primitives":[{"mode":4,"attributes":{"POSITION":28,"NORMAL":29,"TEXCOORD_0":30},"indices":31,"material":0}]},{"primitives":[{"mode":4,"attributes":{"POSITION":32,"NORMAL":33,"TEXCOORD_0":34},"indices":35,"material":0}]},{"primitives":[{"mode":4,"attributes":{"POSITION":36,"NORMAL":37,"TEXCOORD_0":38},"indices":39,"material":0}]},{"primitives":[{"mode":4,"attributes":{"POSITION":40,"NORMAL":41,"TEXCOORD_0":42},"indices":43,"material":0}]},{"primitives":[{"mode":4,"attributes":{"POSITION":44,"NORMAL":45,"TEXCOORD_0":46},"indices":47,"material":0}]},{"primitives":[{"mode":4,"attributes":{"POSITION":48,"NORMAL":49,"TEXCOORD_0":50},"indices":51,"material":0}]},{"primitives":[{"mode":4,"attributes":{"POSITION":52,"NORMAL":53,"TEXCOORD_0":54},"indices":55,"material":0}]},{"primitives":[{"mode":4,"attributes":{"POSITION":56,"NORMAL":57,"TEXCOORD_0":58},"indices":59,"material":0}]},{"primitives":[{"mode":4,"attributes":{"POSITION":60,"NORMAL":61,"TEXCOORD_0":62},"indices":63,"material":0}]}],"animations":[{"name":"idle","samplers":[{"input":64,"output":65,"interpolation":"LINEAR"},{"input":66,"output":67,"interpolation":"LINEAR"},{"input":68,"output":69,"interpolation":"LINEAR"},{"input":70,"output":71,"interpolation":"LINEAR"},{"input":72,"output":73,"interpolation":"LINEAR"},{"input":74,"output":75,"interpolation":"LINEAR"},{"input":76,"output":77,"interpolation":"LINEAR"},{"input":78,"output":79,"interpolation":"LINEAR"},{"input":80,"output":81,"interpolation":"LINEAR"},{"input":82,"output":83,"interpolation":"LINEAR"},{"input":84,"output":85,"interpolation":"LINEAR"},{"input":86,"output":87,"interpolation":"LINEAR"},{"input":88,"output":89,"interpolation":"LINEAR"},{"input":90,"output":91,"interpolation":"LINEAR"},{"input":92,"output":93,"interpolation":"LINEAR"},{"input":94,"output":95,"interpolation":"LINEAR"},{"input":96,"output":97,"interpolation":"LINEAR"}],"channels":[{"sampler":0,"target":{"node":25,"path":"rotation"}},{"sampler":1,"target":{"node":25,"path":"translation"}},{"sampler":2,"target":{"node":25,"path":"scale"}},{"sampler":3,"target":{"node":4,"path":"rotation"}},{"sampler":4,"target":{"node":4,"path":"translation"}},{"sampler":5,"target":{"node":6,"path":"rotation"}},{"sampler":6,"target":{"node":6,"path":"translation"}},{"sampler":7,"target":{"node":8,"path":"rotation"}},{"sampler":8,"target":{"node":8,"path":"translation"}},{"sampler":9,"target":{"node":10,"path":"scale"}},{"sampler":10,"target":{"node":14,"path":"rotation"}},{"sampler":11,"target":{"node":14,"path":"translation"}},{"sampler":12,"target":{"node":16,"path":"scale"}},{"sampler":13,"target":{"node":20,"path":"rotation"}},{"sampler":14,"target":{"node":20,"path":"translation"}},{"sampler":15,"target":{"node":23,"path":"rotation"}},{"sampler":16,"target":{"node":23,"path":"translation"}}]}]}