{"asset":{"version":"2.0","generator":"Blockbench 5.0.7 glTF exporter"},"scenes":[{"nodes":[16],"name":"blockbench_export"}],"scene":0,"nodes":[{"name":"cube","mesh":0},{"name":"cube","mesh":1},{"name":"cube","mesh":2},{"translation":[0,0,0.46875],"name":"1","children":[0,1,2]},{"name":"cube","mesh":3},{"name":"cube","mesh":4},{"name":"cube","mesh":5},{"translation":[0,0,-0.46875],"name":"2","children":[4,5,6]},{"translation":[-0.40625,-0.3749999999999998,0],"name":"cube","mesh":6},{"translation":[-0.40625,-0.3749999999999998,0],"name":"cube","mesh":7},{"translation":[-0.40625,-0.3749999999999998,0],"name":"cube","mesh":8},{"rotation":[0,-0.08715574274765817,0,0.9961946980917455],"translation":[-3.469446951953614e-18,1.1296874999999997,0],"name":"4","children":[8,9,10]},{"translation":[0.40625,-0.3749999999999998,0],"name":"cube","mesh":9},{"translation":[0.40625,-0.3749999999999998,0],"name":"cube","mesh":10},{"translation":[0.40625,-0.3749999999999998,0],"name":"cube","mesh":11},{"rotation":[0,-0.08715574274765817,0,0.9961946980917455],"translation":[-3.469446951953614e-18,1.1296874999999997,0],"name":"3","children":[12,13,14]},{"name":"hay-bales","children":[3,7,11,15]}],"bufferViews":[{"buffer":0,"byteOffset":0,"byteLength":288,"target":34962,"byteStride":12},{"buffer":0,"byteOffset":288,"byteLength":288,"target":34962,"byteStride":12},{"buffer":0,"byteOffset":576,"byteLength":192,"target":34962,"byteStride":8},{"buffer":0,"byteOffset":768,"byteLength":72,"target":34963},{"buffer":0,"byteOffset":840,"byteLength":240,"target":34962,"byteStride":12},{"buffer":0,"byteOffset":1080,"byteLength":240,"target":34962,"byteStride":12},{"buffer":0,"byteOffset":1320,"byteLength":160,"target":34962,"byteStride":8},{"buffer":0,"byteOffset":1480,"byteLength":60,"target":34963},{"buffer":0,"byteOffset":1540,"byteLength":192,"target":34962,"byteStride":12},{"buffer":0,"byteOffset":1732,"byteLength":192,"target":34962,"byteStride":12},{"buffer":0,"byteOffset":1924,"byteLength":128,"target":34962,"byteStride":8},{"buffer":0,"byteOffset":2052,"byteLength":48,"target":34963},{"buffer":0,"byteOffset":2100,"byteLength":288,"target":34962,"byteStride":12},{"buffer":0,"byteOffset":2388,"byteLength":288,"target":34962,"byteStride":12},{"buffer":0,"byteOffset":2676,"byteLength":192,"target":34962,"byteStride":8},{"buffer":0,"byteOffset":2868,"byteLength":72,"target":34963},{"buffer":0,"byteOffset":2940,"byteLength":192,"target":34962,"byteStride":12},{"buffer":0,"byteOffset":3132,"byteLength":192,"target":34962,"byteStride":12},{"buffer":0,"byteOffset":3324,"byteLength":128,"target":34962,"byteStride":8},{"buffer":0,"byteOffset":3452,"byteLength":48,"target":34963},{"buffer":0,"byteOffset":3500,"byteLength":192,"target":34962,"byteStride":12},{"buffer":0,"byteOffset":3692,"byteLength":192,"target":34962,"byteStride":12},{"buffer":0,"byteOffset":3884,"byteLength":128,"target":34962,"byteStride":8},{"buffer":0,"byteOffset":4012,"byteLength":48,"target":34963},{"buffer":0,"byteOffset":4060,"byteLength":288,"target":34962,"byteStride":12},{"buffer":0,"byteOffset":4348,"byteLength":288,"target":34962,"byteStride":12},{"buffer":0,"byteOffset":4636,"byteLength":192,"target":34962,"byteStride":8},{"buffer":0,"byteOffset":4828,"byteLength":72,"target":34963},{"buffer":0,"byteOffset":4900,"byteLength":192,"target":34962,"byteStride":12},{"buffer":0,"byteOffset":5092,"byteLength":192,"target":34962,"byteStride":12},{"buffer":0,"byteOffset":5284,"byteLength":128,"target":34962,"byteStride":8},{"buffer":0,"byteOffset":5412,"byteLength":48,"target":34963},{"buffer":0,"byteOffset":5460,"byteLength":240,"target":34962,"byteStride":12},{"buffer":0,"byteOffset":5700,"byteLength":240,"target":34962,"byteStride":12},{"buffer":0,"byteOffset":5940,"byteLength":160,"target":34962,"byteStride":8},{"buffer":0,"byteOffset":6100,"byteLength":60,"target":34963},{"buffer":0,"byteOffset":6160,"byteLength":288,"target":34962,"byteStride":12},{"buffer":0,"byteOffset":6448,"byteLength":288,"target":34962,"byteStride":12},{"buffer":0,"byteOffset":6736,"byteLength":192,"target":34962,"byteStride":8},{"buffer":0,"byteOffset":6928,"byteLength":72,"target":34963},{"buffer":0,"byteOffset":7000,"byteLength":192,"target":34962,"byteStride":12},{"buffer":0,"byteOffset":7192,"byteLength":192,"target":34962,"byteStride":12},{"buffer":0,"byteOffset":7384,"byteLength":128,"target":34962,"byteStride":8},{"buffer":0,"byteOffset":7512,"byteLength":48,"target":34963},{"buffer":0,"byteOffset":7560,"byteLength":240,"target":34962,"byteStride":12},{"buffer":0,"byteOffset":7800,"byteLength":240,"target":34962,"byteStride":12},{"buffer":0,"byteOffset":8040,"byteLength":160,"target":34962,"byteStride":8},{"buffer":0,"byteOffset":8200,"byteLength":60,"target":34963}],"buffers":[{"byteLength":8260,"uri":"data:application/octet-stream;base64,"}],"accessors":[{"bufferView":0,"componentType":5126,"count":24,"max":[0.5,0.75,0.375],"min":[-0.5,0,-0.375],"type":"VEC3"},{"bufferView":1,"componentType":5126,"count":24,"max":[1,1,1],"min":[-1,-1,-1],"type":"VEC3"},{"bufferView":2,"componentType":5126,"count":24,"max":[0.71875,0.59375],"min":[0,0],"type":"VEC2"},{"bufferView":3,"componentType":5123,"count":36,"max":[23],"min":[0],"type":"SCALAR"},{"bufferView":4,"componentType":5126,"count":20,"max":[0.75,0.75,0.375],"min":[0.5,0,-0.375],"type":"VEC3"},{"bufferView":5,"componentType":5126,"count":20,"max":[0,1,1],"min":[-1,-1,-1],"type":"VEC3"},{"bufferView":6,"componentType":5126,"count":20,"max":[0.671875,0.796875],"min":[0.203125,0.40625],"type":"VEC2"},{"bufferView":7,"componentType":5123,"count":30,"max":[19],"min":[0],"type":"SCALAR"},{"bufferView":8,"componentType":5126,"count":16,"max":[-0.5,0.75,0.375],"min":[-0.75,0,-0.375],"type":"VEC3"},{"bufferView":9,"componentType":5126,"count":16,"max":[0,1,1],"min":[0,-1,-1],"type":"VEC3"},{"bufferView":10,"componentType":5126,"count":16,"max":[0.734375,0.796875],"min":[0.4375,0.609375],"type":"VEC2"},{"bufferView":11,"componentType":5123,"count":24,"max":[15],"min":[0],"type":"SCALAR"},{"bufferView":12,"componentType":5126,"count":24,"max":[0.5,0.75,0.375],"min":[-0.5,0,-0.375],"type":"VEC3"},{"bufferView":13,"componentType":5126,"count":24,"max":[1,1,1],"min":[-1,-1,-1],"type":"VEC3"},{"bufferView":14,"componentType":5126,"count":24,"max":[0.71875,0.59375],"min":[0,0],"type":"VEC2"},{"bufferView":15,"componentType":5123,"count":36,"max":[23],"min":[0],"type":"SCALAR"},{"bufferView":16,"componentType":5126,"count":16,"max":[0.75,0.75,0.375],"min":[0.5,0,-0.375],"type":"VEC3"},{"bufferView":17,"componentType":5126,"count":16,"max":[0,1,1],"min":[0,-1,-1],"type":"VEC3"},{"bufferView":18,"componentType":5126,"count":16,"max":[0.671875,0.796875],"min":[0.203125,0.40625],"type":"VEC2"},{"bufferView":19,"componentType":5123,"count":24,"max":[15],"min":[0],"type":"SCALAR"},{"bufferView":20,"componentType":5126,"count":16,"max":[-0.5,0.75,0.375],"min":[-0.75,0,-0.375],"type":"VEC3"},{"bufferView":21,"componentType":5126,"count":16,"max":[0,1,1],"min":[0,-1,-1],"type":"VEC3"},{"bufferView":22,"componentType":5126,"count":16,"max":[0.734375,0.796875],"min":[0.4375,0.609375],"type":"VEC2"},{"bufferView":23,"componentType":5123,"count":24,"max":[15],"min":[0],"type":"SCALAR"},{"bufferView":24,"componentType":5126,"count":24,"max":[0.375,0.75,0.5],"min":[-0.375,0,-0.5],"type":"VEC3"},{"bufferView":25,"componentType":5126,"count":24,"max":[1,1,1],"min":[-1,-1,-1],"type":"VEC3"},{"bufferView":26,"componentType":5126,"count":24,"max":[0.71875,0.59375],"min":[0,0],"type":"VEC2"},{"bufferView":27,"componentType":5123,"count":36,"max":[23],"min":[0],"type":"SCALAR"},{"bufferView":28,"componentType":5126,"count":16,"max":[0.375,0.75,0.75],"min":[-0.375,0,0.5],"type":"VEC3"},{"bufferView":29,"componentType":5126,"count":16,"max":[1,1,0],"min":[-1,-1,0],"type":"VEC3"},{"bufferView":30,"componentType":5126,"count":16,"max":[0.671875,0.796875],"min":[0.203125,0.40625],"type":"VEC2"},{"bufferView":31,"componentType":5123,"count":24,"max":[15],"min":[0],"type":"SCALAR"},{"bufferView":32,"componentType":5126,"count":20,"max":[0.375,0.75,-0.5],"min":[-0.375,0,-0.75],"type":"VEC3"},{"bufferView":33,"componentType":5126,"count":20,"max":[1,1,0],"min":[-1,-1,-1],"type":"VEC3"},{"bufferView":34,"componentType":5126,"count":20,"max":[0.734375,0.796875],"min":[0,0.609375],"type":"VEC2"},{"bufferView":35,"componentType":5123,"count":30,"max":[19],"min":[0],"type":"SCALAR"},{"bufferView":36,"componentType":5126,"count":24,"max":[0.375,0.75,0.5],"min":[-0.375,0,-0.5],"type":"VEC3"},{"bufferView":37,"componentType":5126,"count":24,"max":[1,1,1],"min":[-1,-1,-1],"type":"VEC3"},{"bufferView":38,"componentType":5126,"count":24,"max":[0.71875,0.59375],"min":[0,0],"type":"VEC2"},{"bufferView":39,"componentType":5123,"count":36,"max":[23],"min":[0],"type":"SCALAR"},{"bufferView":40,"componentType":5126,"count":16,"max":[0.375,0.75,0.75],"min":[-0.375,0,0.5],"type":"VEC3"},{"bufferView":41,"componentType":5126,"count":16,"max":[1,1,0],"min":[-1,-1,0],"type":"VEC3"},{"bufferView":42,"componentType":5126,"count":16,"max":[0.671875,0.796875],"min":[0.203125,0.40625],"type":"VEC2"},{"bufferView":43,"componentType":5123,"count":24,"max":[15],"min":[0],"type":"SCALAR"},{"bufferView":44,"componentType":5126,"count":20,"max":[0.375,0.75,-0.5],"min":[-0.375,0,-0.75],"type":"VEC3"},{"bufferView":45,"componentType":5126,"count":20,"max":[1,1,0],"min":[-1,-1,-1],"type":"VEC3"},{"bufferView":46,"componentType":5126,"count":20,"max":[0.734375,0.796875],"min":[0,0.609375],"type":"VEC2"},{"bufferView":47,"componentType":5123,"count":30,"max":[19],"min":[0],"type":"SCALAR"}],"materials":[{"pbrMetallicRoughness":{"metallicFactor":0,"roughnessFactor":1,"baseColorTexture":{"index":0}},"alphaMode":"MASK","alphaCutoff":0.05,"doubleSided":true}],"textures":[{"sampler":0,"source":0,"name":"hay_bales_2"}],"samplers":[{"magFilter":9728,"minFilter":9728,"wrapS":33071,"wrapT":33071}],"images":[{"mimeType":"image/png","uri":"data:image/png;base64,"}],"meshes":[{"primitives":[{"mode":4,"attributes":{"POSITION":0,"NORMAL":1,"TEXCOORD_0":2},"indices":3,"material":0}]},{"primitives":[{"mode":4,"attributes":{"POSITION":4,"NORMAL":5,"TEXCOORD_0":6},"indices":7,"material":0}]},{"primitives":[{"mode":4,"attributes":{"POSITION":8,"NORMAL":9,"TEXCOORD_0":10},"indices":11,"material":0}]},{"primitives":[{"mode":4,"attributes":{"POSITION":12,"NORMAL":13,"TEXCOORD_0":14},"indices":15,"material":0}]},{"primitives":[{"mode":4,"attributes":{"POSITION":16,"NORMAL":17,"TEXCOORD_0":18},"indices":19,"material":0}]},{"primitives":[{"mode":4,"attributes":{"POSITION":20,"NORMAL":21,"TEXCOORD_0":22},"indices":23,"material":0}]},{"primitives":[{"mode":4,"attributes":{"POSITION":24,"NORMAL":25,"TEXCOORD_0":26},"indices":27,"material":0}]},{"primitives":[{"mode":4,"attributes":{"POSITION":28,"NORMAL":29,"TEXCOORD_0":30},"indices":31,"material":0}]},{"primitives":[{"mode":4,"attributes":{"POSITION":32,"NORMAL":33,"TEXCOORD_0":34},"indices":35,"material":0}]},{"primitives":[{"mode":4,"attributes":{"POSITION":36,"NORMAL":37,"TEXCOORD_0":38},"indices":39,"material":0}]},{"primitives":[{"mode":4,"attributes":{"POSITION":40,"NORMAL":41,"TEXCOORD_0":42},"indices":43,"material":0}]},{"primitives":[{"mode":4,"attributes":{"POSITION":44,"NORMAL":45,"TEXCOORD_0":46},"indices":47,"material":0}]}]}