{"asset":{"version":"2.0","generator":"Blockbench 5.0.7 glTF exporter"},"scenes":[{"nodes":[24],"name":"blockbench_export"}],"scene":0,"nodes":[{"translation":[0,-0.3125,0],"name":"cube","mesh":0},{"translation":[-0.03125,-0.125,0.03125],"name":"cube","mesh":1},{"translation":[-0.15625,-0.3125,-0.09375],"name":"left_arm","children":[1]},{"translation":[0,-0.3125,0.1875],"name":"cube","mesh":2},{"rotation":[-0.13052619222005157,0,0,0.9914448613738104],"translation":[0,-0.109375,0.265625],"name":"tail","children":[3]},{"translation":[0.25,-0.03125,0.03125],"name":"cube","mesh":3},{"rotation":[-0.13052619222005157,0,0,0.9914448613738104],"translation":[-0.171875,0.31569437499999997,-0.225735625],"name":"left_ear","children":[5]},{"translation":[0.03125,-0.125,0.03125],"name":"cube","mesh":4},{"translation":[0.15625,-0.3125,-0.09375],"name":"right_arm","children":[7]},{"translation":[-0.03125,-0.125,0.03125],"name":"cube","mesh":5},{"translation":[-0.15625,-0.3125,0.15625],"name":"left_leg","children":[9]},{"translation":[0.03125,-0.125,0.03125],"name":"cube","mesh":6},{"translation":[0.15625,-0.3125,0.15625],"name":"right_leg","children":[11]},{"translation":[0.171875,-0.421875,0.3125],"name":"cube","mesh":7},{"translation":[-0.171875,0.046875,-0.3140625],"name":"left_eye","children":[13]},{"translation":[-0.171875,-0.421875,0.3125],"name":"cube","mesh":8},{"translation":[0.171875,0.046875,-0.3140625],"name":"right_eye","children":[15]},{"translation":[-0.25,-0.03125,0.03125],"name":"cube","mesh":9},{"rotation":[-0.13052619222005157,0,0,0.9914448613738104],"translation":[0.171875,0.31569437499999997,-0.225735625],"name":"right_ear","children":[17]},{"translation":[0.3125,-0.625,0],"name":"cube","mesh":10},{"rotation":[0,0,-0.42261826174069944,0.9063077870366499],"translation":[-0.0625,0.3125,0],"name":"left_wing","children":[19]},{"translation":[-0.3125,-0.625,0],"name":"cube","mesh":11},{"rotation":[0,0,0.42261826174069944,0.9063077870366499],"translation":[0.0625,0.3125,0],"name":"right_wing","children":[21]},{"translation":[0,0.4375,0],"name":"head","children":[0,2,4,6,8,10,12,14,16,18,20,22]},{"name":"cube-pet","children":[23]}],"bufferViews":[{"buffer":0,"byteOffset":0,"byteLength":288,"target":34962,"byteStride":12},{"buffer":0,"byteOffset":288,"byteLength":288,"target":34962,"byteStride":12},{"buffer":0,"byteOffset":576,"byteLength":192,"target":34962,"byteStride":8},{"buffer":0,"byteOffset":768,"byteLength":72,"target":34963},{"buffer":0,"byteOffset":840,"byteLength":288,"target":34962,"byteStride":12},{"buffer":0,"byteOffset":1128,"byteLength":288,"target":34962,"byteStride":12},{"buffer":0,"byteOffset":1416,"byteLength":192,"target":34962,"byteStride":8},{"buffer":0,"byteOffset":1608,"byteLength":72,"target":34963},{"buffer":0,"byteOffset":1680,"byteLength":240,"target":34962,"byteStride":12},{"buffer":0,"byteOffset":1920,"byteLength":240,"target":34962,"byteStride":12},{"buffer":0,"byteOffset":2160,"byteLength":160,"target":34962,"byteStride":8},{"buffer":0,"byteOffset":2320,"byteLength":60,"target":34963},{"buffer":0,"byteOffset":2380,"byteLength":288,"target":34962,"byteStride":12},{"buffer":0,"byteOffset":2668,"byteLength":288,"target":34962,"byteStride":12},{"buffer":0,"byteOffset":2956,"byteLength":192,"target":34962,"byteStride":8},{"buffer":0,"byteOffset":3148,"byteLength":72,"target":34963},{"buffer":0,"byteOffset":3220,"byteLength":288,"target":34962,"byteStride":12},{"buffer":0,"byteOffset":3508,"byteLength":288,"target":34962,"byteStride":12},{"buffer":0,"byteOffset":3796,"byteLength":192,"target":34962,"byteStride":8},{"buffer":0,"byteOffset":3988,"byteLength":72,"target":34963},{"buffer":0,"byteOffset":4060,"byteLength":288,"target":34962,"byteStride":12},{"buffer":0,"byteOffset":4348,"byteLength":288,"target":34962,"byteStride":12},{"buffer":0,"byteOffset":4636,"byteLength":192,"target":34962,"byteStride":8},{"buffer":0,"byteOffset":4828,"byteLength":72,"target":34963},{"buffer":0,"byteOffset":4900,"byteLength":288,"target":34962,"byteStride":12},{"buffer":0,"byteOffset":5188,"byteLength":288,"target":34962,"byteStride":12},{"buffer":0,"byteOffset":5476,"byteLength":192,"target":34962,"byteStride":8},{"buffer":0,"byteOffset":5668,"byteLength":72,"target":34963},{"buffer":0,"byteOffset":5740,"byteLength":240,"target":34962,"byteStride":12},{"buffer":0,"byteOffset":5980,"byteLength":240,"target":34962,"byteStride":12},{"buffer":0,"byteOffset":6220,"byteLength":160,"target":34962,"byteStride":8},{"buffer":0,"byteOffset":6380,"byteLength":60,"target":34963},{"buffer":0,"byteOffset":6440,"byteLength":240,"target":34962,"byteStride":12},{"buffer":0,"byteOffset":6680,"byteLength":240,"target":34962,"byteStride":12},{"buffer":0,"byteOffset":6920,"byteLength":160,"target":34962,"byteStride":8},{"buffer":0,"byteOffset":7080,"byteLength":60,"target":34963},{"buffer":0,"byteOffset":7140,"byteLength":288,"target":34962,"byteStride":12},{"buffer":0,"byteOffset":7428,"byteLength":288,"target":34962,"byteStride":12},{"buffer":0,"byteOffset":7716,"byteLength":192,"target":34962,"byteStride":8},{"buffer":0,"byteOffset":7908,"byteLength":72,"target":34963},{"buffer":0,"byteOffset":7980,"byteLength":240,"target":34962,"byteStride":12},{"buffer":0,"byteOffset":8220,"byteLength":240,"target":34962,"byteStride":12},{"buffer":0,"byteOffset":8460,"byteLength":160,"target":34962,"byteStride":8},{"buffer":0,"byteOffset":8620,"byteLength":60,"target":34963},{"buffer":0,"byteOffset":8680,"byteLength":240,"target":34962,"byteStride":12},{"buffer":0,"byteOffset":8920,"byteLength":240,"target":34962,"byteStride":12},{"buffer":0,"byteOffset":9160,"byteLength":160,"target":34962,"byteStride":8},{"buffer":0,"byteOffset":9320,"byteLength":60,"target":34963},{"buffer":0,"byteOffset":9380,"byteLength":448},{"buffer":0,"byteOffset":9828,"byteLength":1792},{"buffer":0,"byteOffset":11620,"byteLength":444},{"buffer":0,"byteOffset":12064,"byteLength":1332},{"buffer":0,"byteOffset":13396,"byteLength":444},{"buffer":0,"byteOffset":13840,"byteLength":1332},{"buffer":0,"byteOffset":15172,"byteLength":448},{"buffer":0,"byteOffset":15620,"byteLength":1792},{"buffer":0,"byteOffset":17412,"byteLength":16},{"buffer":0,"byteOffset":17428,"byteLength":48},{"buffer":0,"byteOffset":17476,"byteLength":448},{"buffer":0,"byteOffset":17924,"byteLength":1792},{"buffer":0,"byteOffset":19716,"byteLength":16},{"buffer":0,"byteOffset":19732,"byteLength":48},{"buffer":0,"byteOffset":19780,"byteLength":448},{"buffer":0,"byteOffset":20228,"byteLength":1792},{"buffer":0,"byteOffset":22020,"byteLength":16},{"buffer":0,"byteOffset":22036,"byteLength":48},{"buffer":0,"byteOffset":22084,"byteLength":448},{"buffer":0,"byteOffset":22532,"byteLength":1792},{"buffer":0,"byteOffset":24324,"byteLength":16},{"buffer":0,"byteOffset":24340,"byteLength":48},{"buffer":0,"byteOffset":24388,"byteLength":448},{"buffer":0,"byteOffset":24836,"byteLength":1792},{"buffer":0,"byteOffset":26628,"byteLength":16},{"buffer":0,"byteOffset":26644,"byteLength":48},{"buffer":0,"byteOffset":26692,"byteLength":448},{"buffer":0,"byteOffset":27140,"byteLength":1792},{"buffer":0,"byteOffset":28932,"byteLength":16},{"buffer":0,"byteOffset":28948,"byteLength":48},{"buffer":0,"byteOffset":28996,"byteLength":16},{"buffer":0,"byteOffset":29012,"byteLength":48},{"buffer":0,"byteOffset":29060,"byteLength":16},{"buffer":0,"byteOffset":29076,"byteLength":48},{"buffer":0,"byteOffset":29124,"byteLength":448},{"buffer":0,"byteOffset":29572,"byteLength":1792},{"buffer":0,"byteOffset":31364,"byteLength":16},{"buffer":0,"byteOffset":31380,"byteLength":48},{"buffer":0,"byteOffset":31428,"byteLength":440},{"buffer":0,"byteOffset":31868,"byteLength":1760},{"buffer":0,"byteOffset":33628,"byteLength":440},{"buffer":0,"byteOffset":34068,"byteLength":1760}],"buffers":[{"byteLength":35828,"uri":"data:application/octet-stream;base64,"}],"accessors":[{"bufferView":0,"componentType":5126,"count":24,"max":[0.3125,0.625,0.3125],"min":[-0.3125,0,-0.3125],"type":"VEC3"},{"bufferView":1,"componentType":5126,"count":24,"max":[1,1,1],"min":[-1,-1,-1],"type":"VEC3"},{"bufferView":2,"componentType":5126,"count":24,"max":[0.5,0.5],"min":[0,0],"type":"VEC2"},{"bufferView":3,"componentType":5123,"count":36,"max":[23],"min":[0],"type":"SCALAR"},{"bufferView":4,"componentType":5126,"count":24,"max":[0.125,0.125,0.0625],"min":[-0.0625,0,-0.125],"type":"VEC3"},{"bufferView":5,"componentType":5126,"count":24,"max":[1,1,1],"min":[-1,-1,-1],"type":"VEC3"},{"bufferView":6,"componentType":5126,"count":24,"max":[0.5625,0.546875],"min":[0,0],"type":"VEC2"},{"bufferView":7,"componentType":5123,"count":36,"max":[23],"min":[0],"type":"SCALAR"},{"bufferView":8,"componentType":5126,"count":20,"max":[0,0.40625,0.0625],"min":[0,0.21875,-0.1875],"type":"VEC3"},{"bufferView":9,"componentType":5126,"count":20,"max":[1,0,0],"min":[-1,0,0],"type":"VEC3"},{"bufferView":10,"componentType":5126,"count":20,"max":[0.45317500829696655,0.53125],"min":[0.265625,0.234375],"type":"VEC2"},{"bufferView":11,"componentType":5123,"count":30,"max":[19],"min":[0],"type":"SCALAR"},{"bufferView":12,"componentType":5126,"count":24,"max":[-0.125,0.3125,0],"min":[-0.25,1.1102230246251565e-16,-0.0625],"type":"VEC3"},{"bufferView":13,"componentType":5126,"count":24,"max":[1,1,1],"min":[-1,-1,-1],"type":"VEC3"},{"bufferView":14,"componentType":5126,"count":24,"max":[1,1],"min":[0.515625,0.515625],"type":"VEC2"},{"bufferView":15,"componentType":5123,"count":36,"max":[23],"min":[0],"type":"SCALAR"},{"bufferView":16,"componentType":5126,"count":24,"max":[0.0625,0.125,0.0625],"min":[-0.125,0,-0.125],"type":"VEC3"},{"bufferView":17,"componentType":5126,"count":24,"max":[1,1,1],"min":[-1,-1,-1],"type":"VEC3"},{"bufferView":18,"componentType":5126,"count":24,"max":[0.5625,0.546875],"min":[0,0],"type":"VEC2"},{"bufferView":19,"componentType":5123,"count":36,"max":[23],"min":[0],"type":"SCALAR"},{"bufferView":20,"componentType":5126,"count":24,"max":[0.125,0.125,0.0625],"min":[-0.0625,0,-0.125],"type":"VEC3"},{"bufferView":21,"componentType":5126,"count":24,"max":[1,1,1],"min":[-1,-1,-1],"type":"VEC3"},{"bufferView":22,"componentType":5126,"count":24,"max":[0.5625,0.546875],"min":[0,0],"type":"VEC2"},{"bufferView":23,"componentType":5123,"count":36,"max":[23],"min":[0],"type":"SCALAR"},{"bufferView":24,"componentType":5126,"count":24,"max":[0.0625,0.125,0.0625],"min":[-0.125,0,-0.125],"type":"VEC3"},{"bufferView":25,"componentType":5126,"count":24,"max":[1,1,1],"min":[-1,-1,-1],"type":"VEC3"},{"bufferView":26,"componentType":5126,"count":24,"max":[0.5625,0.546875],"min":[0,0],"type":"VEC2"},{"bufferView":27,"componentType":5123,"count":36,"max":[23],"min":[0],"type":"SCALAR"},{"bufferView":28,"componentType":5126,"count":20,"max":[-0.0625,0.53125,-0.3125],"min":[-0.28125,0.3125,-0.3125],"type":"VEC3"},{"bufferView":29,"componentType":5126,"count":20,"max":[1,0,0],"min":[0,0,-1],"type":"VEC3"},{"bufferView":30,"componentType":5126,"count":20,"max":[0.78125,0.5000500082969666],"min":[0.09375,0.03125],"type":"VEC2"},{"bufferView":31,"componentType":5123,"count":30,"max":[19],"min":[0],"type":"SCALAR"},{"bufferView":32,"componentType":5126,"count":20,"max":[0.28125,0.53125,-0.3125],"min":[0.0625,0.3125,-0.3125],"type":"VEC3"},{"bufferView":33,"componentType":5126,"count":20,"max":[1,0,0],"min":[0,0,-1],"type":"VEC3"},{"bufferView":34,"componentType":5126,"count":20,"max":[0.78125,0.5000500082969666],"min":[0.09375,0.03125],"type":"VEC2"},{"bufferView":35,"componentType":5123,"count":30,"max":[19],"min":[0],"type":"SCALAR"},{"bufferView":36,"componentType":5126,"count":24,"max":[0.25,0.3125,0],"min":[0.125,1.1102230246251565e-16,-0.0625],"type":"VEC3"},{"bufferView":37,"componentType":5126,"count":24,"max":[1,1,1],"min":[-1,-1,-1],"type":"VEC3"},{"bufferView":38,"componentType":5126,"count":24,"max":[1,1],"min":[0.515625,0.515625],"type":"VEC2"},{"bufferView":39,"componentType":5123,"count":36,"max":[23],"min":[0],"type":"SCALAR"},{"bufferView":40,"componentType":5126,"count":20,"max":[-0.3125,0.625,0.25],"min":[-0.75,0.625,-0.1875],"type":"VEC3"},{"bufferView":41,"componentType":5126,"count":20,"max":[1,0,0],"min":[0,-1,0],"type":"VEC3"},{"bufferView":42,"componentType":5126,"count":20,"max":[0.453125,0.8203625082969666],"min":[0,0.6484375],"type":"VEC2"},{"bufferView":43,"componentType":5123,"count":30,"max":[19],"min":[0],"type":"SCALAR"},{"bufferView":44,"componentType":5126,"count":20,"max":[0.75,0.625,0.25],"min":[0.3125,0.625,-0.1875],"type":"VEC3"},{"bufferView":45,"componentType":5126,"count":20,"max":[1,0,0],"min":[0,-1,0],"type":"VEC3"},{"bufferView":46,"componentType":5126,"count":20,"max":[0.453125,0.8203625082969666],"min":[0,0.6484375],"type":"VEC2"},{"bufferView":47,"componentType":5123,"count":30,"max":[19],"min":[0],"type":"SCALAR"},{"bufferView":48,"componentType":5126,"count":112,"max":[3.125],"min":[0],"type":"SCALAR"},{"bufferView":49,"componentType":5126,"count":112,"max":[0.008916073478758335,0,0.008916073478758335,1],"min":[-0.008916073478758335,-0.00007950268627610058,-0.008916073478758335,0.9999204874038696],"type":"VEC4"},{"bufferView":50,"componentType":5126,"count":111,"max":[3.125],"min":[0],"type":"SCALAR"},{"bufferView":51,"componentType":5126,"count":111,"max":[0,0.125,0],"min":[0,0.0625,0],"type":"VEC3"},{"bufferView":52,"componentType":5126,"count":111,"max":[3.125],"min":[0],"type":"SCALAR"},{"bufferView":53,"componentType":5126,"count":111,"max":[1,1.0499999523162842,1],"min":[1,1,1],"type":"VEC3"},{"bufferView":54,"componentType":5126,"count":112,"max":[3.125],"min":[0],"type":"SCALAR"},{"bufferView":55,"componentType":5126,"count":112,"max":[0.06547471880912781,0,0,1],"min":[-0.025130094960331917,0,0,0.9978542327880859],"type":"VEC4"},{"bufferView":56,"componentType":5126,"count":4,"max":[3.125],"min":[0],"type":"SCALAR"},{"bufferView":57,"componentType":5126,"count":4,"max":[-0.15625,-0.3125,-0.09375],"min":[-0.15625,-0.3125,-0.09375],"type":"VEC3"},{"bufferView":58,"componentType":5126,"count":112,"max":[3.125],"min":[0],"type":"SCALAR"},{"bufferView":59,"componentType":5126,"count":112,"max":[-0.06533153355121613,0,0,0.9978635907173157],"min":[-0.15540006756782532,0,0,0.987851619720459],"type":"VEC4"},{"bufferView":60,"componentType":5126,"count":4,"max":[3.125],"min":[0],"type":"SCALAR"},{"bufferView":61,"componentType":5126,"count":4,"max":[0,-0.109375,0.265625],"min":[0,-0.109375,0.265625],"type":"VEC3"},{"bufferView":62,"componentType":5126,"count":112,"max":[3.125],"min":[0],"type":"SCALAR"},{"bufferView":63,"componentType":5126,"count":112,"max":[-0.06533153355121613,0,0,0.9978635907173157],"min":[-0.15540006756782532,0,0,0.987851619720459],"type":"VEC4"},{"bufferView":64,"componentType":5126,"count":4,"max":[3.125],"min":[0],"type":"SCALAR"},{"bufferView":65,"componentType":5126,"count":4,"max":[-0.171875,0.3156943619251251,-0.2257356196641922],"min":[-0.171875,0.3156943619251251,-0.2257356196641922],"type":"VEC3"},{"bufferView":66,"componentType":5126,"count":112,"max":[3.125],"min":[0],"type":"SCALAR"},{"bufferView":67,"componentType":5126,"count":112,"max":[0.06547471880912781,0,0,1],"min":[-0.025130094960331917,0,0,0.9978542327880859],"type":"VEC4"},{"bufferView":68,"componentType":5126,"count":4,"max":[3.125],"min":[0],"type":"SCALAR"},{"bufferView":69,"componentType":5126,"count":4,"max":[0.15625,-0.3125,-0.09375],"min":[0.15625,-0.3125,-0.09375],"type":"VEC3"},{"bufferView":70,"componentType":5126,"count":112,"max":[3.125],"min":[0],"type":"SCALAR"},{"bufferView":71,"componentType":5126,"count":112,"max":[0.06547471880912781,0,0,1],"min":[-0.025130094960331917,0,0,0.9978542327880859],"type":"VEC4"},{"bufferView":72,"componentType":5126,"count":4,"max":[3.125],"min":[0],"type":"SCALAR"},{"bufferView":73,"componentType":5126,"count":4,"max":[-0.15625,-0.3125,0.15625],"min":[-0.15625,-0.3125,0.15625],"type":"VEC3"},{"bufferView":74,"componentType":5126,"count":112,"max":[3.125],"min":[0],"type":"SCALAR"},{"bufferView":75,"componentType":5126,"count":112,"max":[0.06547471880912781,0,0,1],"min":[-0.025130094960331917,0,0,0.9978542327880859],"type":"VEC4"},{"bufferView":76,"componentType":5126,"count":4,"max":[3.125],"min":[0],"type":"SCALAR"},{"bufferView":77,"componentType":5126,"count":4,"max":[0.15625,-0.3125,0.15625],"min":[0.15625,-0.3125,0.15625],"type":"VEC3"},{"bufferView":78,"componentType":5126,"count":4,"max":[0.7083333134651184],"min":[0.4583333432674408],"type":"SCALAR"},{"bufferView":79,"componentType":5126,"count":4,"max":[1,1,1],"min":[1,0,1],"type":"VEC3"},{"bufferView":80,"componentType":5126,"count":4,"max":[0.7083333134651184],"min":[0.4583333432674408],"type":"SCALAR"},{"bufferView":81,"componentType":5126,"count":4,"max":[1,1,1],"min":[1,0,1],"type":"VEC3"},{"bufferView":82,"componentType":5126,"count":112,"max":[3.125],"min":[0],"type":"SCALAR"},{"bufferView":83,"componentType":5126,"count":112,"max":[-0.06533153355121613,0,0,0.9978635907173157],"min":[-0.15540006756782532,0,0,0.987851619720459],"type":"VEC4"},{"bufferView":84,"componentType":5126,"count":4,"max":[3.125],"min":[0],"type":"SCALAR"},{"bufferView":85,"componentType":5126,"count":4,"max":[0.171875,0.3156943619251251,-0.2257356196641922],"min":[0.171875,0.3156943619251251,-0.2257356196641922],"type":"VEC3"},{"bufferView":86,"componentType":5126,"count":110,"max":[3.116666555404663],"min":[0],"type":"SCALAR"},{"bufferView":87,"componentType":5126,"count":110,"max":[0,0,-0.3420201539993286,0.9396926164627075],"min":[0,0,-0.5,0.8660253882408142],"type":"VEC4"},{"bufferView":88,"componentType":5126,"count":110,"max":[3.116666555404663],"min":[0],"type":"SCALAR"},{"bufferView":89,"componentType":5126,"count":110,"max":[0,0,0.5,0.9396926164627075],"min":[0,0,0.3420201539993286,0.8660253882408142],"type":"VEC4"}],"materials":[{"pbrMetallicRoughness":{"metallicFactor":0,"roughnessFactor":1,"baseColorTexture":{"index":0}},"alphaMode":"MASK","alphaCutoff":0.05,"doubleSided":true}],"textures":[{"sampler":0,"source":0,"name":"cube-pet"}],"samplers":[{"magFilter":9728,"minFilter":9728,"wrapS":33071,"wrapT":33071}],"images":[{"mimeType":"image/png","uri":"data:image/png;base64,"}],"meshes":[{"primitives":[{"mode":4,"attributes":{"POSITION":0,"NORMAL":1,"TEXCOORD_0":2},"indices":3,"material":0}]},{"primitives":[{"mode":4,"attributes":{"POSITION":4,"NORMAL":5,"TEXCOORD_0":6},"indices":7,"material":0}]},{"primitives":[{"mode":4,"attributes":{"POSITION":8,"NORMAL":9,"TEXCOORD_0":10},"indices":11,"material":0}]},{"primitives":[{"mode":4,"attributes":{"POSITION":12,"NORMAL":13,"TEXCOORD_0":14},"indices":15,"material":0}]},{"primitives":[{"mode":4,"attributes":{"POSITION":16,"NORMAL":17,"TEXCOORD_0":18},"indices":19,"material":0}]},{"primitives":[{"mode":4,"attributes":{"POSITION":20,"NORMAL":21,"TEXCOORD_0":22},"indices":23,"material":0}]},{"primitives":[{"mode":4,"attributes":{"POSITION":24,"NORMAL":25,"TEXCOORD_0":26},"indices":27,"material":0}]},{"primitives":[{"mode":4,"attributes":{"POSITION":28,"NORMAL":29,"TEXCOORD_0":30},"indices":31,"material":0}]},{"primitives":[{"mode":4,"attributes":{"POSITION":32,"NORMAL":33,"TEXCOORD_0":34},"indices":35,"material":0}]},{"primitives":[{"mode":4,"attributes":{"POSITION":36,"NORMAL":37,"TEXCOORD_0":38},"indices":39,"material":0}]},{"primitives":[{"mode":4,"attributes":{"POSITION":40,"NORMAL":41,"TEXCOORD_0":42},"indices":43,"material":0}]},{"primitives":[{"mode":4,"attributes":{"POSITION":44,"NORMAL":45,"TEXCOORD_0":46},"indices":47,"material":0}]}],"animations":[{"name":"idle","samplers":[{"input":48,"output":49,"interpolation":"LINEAR"},{"input":50,"output":51,"interpolation":"LINEAR"},{"input":52,"output":53,"interpolation":"LINEAR"},{"input":54,"output":55,"interpolation":"LINEAR"},{"input":56,"output":57,"interpolation":"LINEAR"},{"input":58,"output":59,"interpolation":"LINEAR"},{"input":60,"output":61,"interpolation":"LINEAR"},{"input":62,"output":63,"interpolation":"LINEAR"},{"input":64,"output":65,"interpolation":"LINEAR"},{"input":66,"output":67,"interpolation":"LINEAR"},{"input":68,"output":69,"interpolation":"LINEAR"},{"input":70,"output":71,"interpolation":"LINEAR"},{"input":72,"output":73,"interpolation":"LINEAR"},{"input":74,"output":75,"interpolation":"LINEAR"},{"input":76,"output":77,"interpolation":"LINEAR"},{"input":78,"output":79,"interpolation":"LINEAR"},{"input":80,"output":81,"interpolation":"LINEAR"},{"input":82,"output":83,"interpolation":"LINEAR"},{"input":84,"output":85,"interpolation":"LINEAR"},{"input":86,"output":87,"interpolation":"LINEAR"},{"input":88,"output":89,"interpolation":"LINEAR"}],"channels":[{"sampler":0,"target":{"node":24,"path":"rotation"}},{"sampler":1,"target":{"node":24,"path":"translation"}},{"sampler":2,"target":{"node":24,"path":"scale"}},{"sampler":3,"target":{"node":2,"path":"rotation"}},{"sampler":4,"target":{"node":2,"path":"translation"}},{"sampler":5,"target":{"node":4,"path":"rotation"}},{"sampler":6,"target":{"node":4,"path":"translation"}},{"sampler":7,"target":{"node":6,"path":"rotation"}},{"sampler":8,"target":{"node":6,"path":"translation"}},{"sampler":9,"target":{"node":8,"path":"rotation"}},{"sampler":10,"target":{"node":8,"path":"translation"}},{"sampler":11,"target":{"node":10,"path":"rotation"}},{"sampler":12,"target":{"node":10,"path":"translation"}},{"sampler":13,"target":{"node":12,"path":"rotation"}},{"sampler":14,"target":{"node":12,"path":"translation"}},{"sampler":15,"target":{"node":14,"path":"scale"}},{"sampler":16,"target":{"node":16,"path":"scale"}},{"sampler":17,"target":{"node":18,"path":"rotation"}},{"sampler":18,"target":{"node":18,"path":"translation"}},{"sampler":19,"target":{"node":20,"path":"rotation"}},{"sampler":20,"target":{"node":22,"path":"rotation"}}]}]}