{"asset":{"version":"2.0","generator":"Blockbench 5.0.7 glTF exporter"},"scenes":[{"nodes":[23],"name":"blockbench_export"}],"scene":0,"nodes":[{"translation":[0,-0.3125,0],"name":"cube","mesh":0},{"translation":[0,-0.25,-0.625],"name":"cube","mesh":1},{"rotation":[0,0,-0.06540312923014306,0.9978589232386035],"translation":[-0.17554125,0.37737875,-0.1875],"name":"cube","mesh":2},{"rotation":[0,0,0.06540312923014306,0.9978589232386035],"translation":[0.17554125,0.37737875,-0.1875],"name":"cube","mesh":3},{"translation":[-0.03125,-0.125,0.03125],"name":"cube","mesh":4},{"translation":[-0.15625,-0.3125,-0.09375],"name":"left_arm","children":[4]},{"translation":[0,-0.3125,0.1875],"name":"cube","mesh":5},{"rotation":[0.48098876891938763,0,0,0.8767267557075077],"translation":[0,0.078125,0.265625],"name":"tail","children":[6]},{"translation":[0.125,0,0.03125],"name":"cube","mesh":6},{"rotation":[0,0,0.17364817766693033,0.984807753012208],"translation":[-0.28125,0.15944437499999997,-0.225735625],"name":"left_ear","children":[8]},{"translation":[0.03125,-0.125,0.03125],"name":"cube","mesh":7},{"translation":[0.15625,-0.3125,-0.09375],"name":"right_arm","children":[10]},{"translation":[-0.03125,-0.125,0.03125],"name":"cube","mesh":8},{"translation":[-0.15625,-0.3125,0.15625],"name":"left_leg","children":[12]},{"translation":[0.03125,-0.125,0.03125],"name":"cube","mesh":9},{"translation":[0.15625,-0.3125,0.15625],"name":"right_leg","children":[14]},{"translation":[0.171875,-0.421875,0.3125],"name":"cube","mesh":10},{"translation":[-0.171875,0.109375,-0.3140625],"name":"left_eye","children":[16]},{"translation":[-0.171875,-0.421875,0.3125],"name":"cube","mesh":11},{"translation":[0.171875,0.109375,-0.3140625],"name":"right_eye","children":[18]},{"translation":[-0.125,0,0.03125],"name":"cube","mesh":12},{"rotation":[0,0,-0.17364817766693033,0.984807753012208],"translation":[0.28125,0.15944437499999997,-0.225735625],"name":"right_ear","children":[20]},{"translation":[0,0.4375,0],"name":"head","children":[0,1,2,3,5,7,9,11,13,15,17,19,21]},{"name":"cube-pet","children":[22]}],"bufferViews":[{"buffer":0,"byteOffset":0,"byteLength":288,"target":34962,"byteStride":12},{"buffer":0,"byteOffset":288,"byteLength":288,"target":34962,"byteStride":12},{"buffer":0,"byteOffset":576,"byteLength":192,"target":34962,"byteStride":8},{"buffer":0,"byteOffset":768,"byteLength":72,"target":34963},{"buffer":0,"byteOffset":840,"byteLength":288,"target":34962,"byteStride":12},{"buffer":0,"byteOffset":1128,"byteLength":288,"target":34962,"byteStride":12},{"buffer":0,"byteOffset":1416,"byteLength":192,"target":34962,"byteStride":8},{"buffer":0,"byteOffset":1608,"byteLength":72,"target":34963},{"buffer":0,"byteOffset":1680,"byteLength":288,"target":34962,"byteStride":12},{"buffer":0,"byteOffset":1968,"byteLength":288,"target":34962,"byteStride":12},{"buffer":0,"byteOffset":2256,"byteLength":192,"target":34962,"byteStride":8},{"buffer":0,"byteOffset":2448,"byteLength":72,"target":34963},{"buffer":0,"byteOffset":2520,"byteLength":288,"target":34962,"byteStride":12},{"buffer":0,"byteOffset":2808,"byteLength":288,"target":34962,"byteStride":12},{"buffer":0,"byteOffset":3096,"byteLength":192,"target":34962,"byteStride":8},{"buffer":0,"byteOffset":3288,"byteLength":72,"target":34963},{"buffer":0,"byteOffset":3360,"byteLength":288,"target":34962,"byteStride":12},{"buffer":0,"byteOffset":3648,"byteLength":288,"target":34962,"byteStride":12},{"buffer":0,"byteOffset":3936,"byteLength":192,"target":34962,"byteStride":8},{"buffer":0,"byteOffset":4128,"byteLength":72,"target":34963},{"buffer":0,"byteOffset":4200,"byteLength":288,"target":34962,"byteStride":12},{"buffer":0,"byteOffset":4488,"byteLength":288,"target":34962,"byteStride":12},{"buffer":0,"byteOffset":4776,"byteLength":192,"target":34962,"byteStride":8},{"buffer":0,"byteOffset":4968,"byteLength":72,"target":34963},{"buffer":0,"byteOffset":5040,"byteLength":288,"target":34962,"byteStride":12},{"buffer":0,"byteOffset":5328,"byteLength":288,"target":34962,"byteStride":12},{"buffer":0,"byteOffset":5616,"byteLength":192,"target":34962,"byteStride":8},{"buffer":0,"byteOffset":5808,"byteLength":72,"target":34963},{"buffer":0,"byteOffset":5880,"byteLength":288,"target":34962,"byteStride":12},{"buffer":0,"byteOffset":6168,"byteLength":288,"target":34962,"byteStride":12},{"buffer":0,"byteOffset":6456,"byteLength":192,"target":34962,"byteStride":8},{"buffer":0,"byteOffset":6648,"byteLength":72,"target":34963},{"buffer":0,"byteOffset":6720,"byteLength":288,"target":34962,"byteStride":12},{"buffer":0,"byteOffset":7008,"byteLength":288,"target":34962,"byteStride":12},{"buffer":0,"byteOffset":7296,"byteLength":192,"target":34962,"byteStride":8},{"buffer":0,"byteOffset":7488,"byteLength":72,"target":34963},{"buffer":0,"byteOffset":7560,"byteLength":288,"target":34962,"byteStride":12},{"buffer":0,"byteOffset":7848,"byteLength":288,"target":34962,"byteStride":12},{"buffer":0,"byteOffset":8136,"byteLength":192,"target":34962,"byteStride":8},{"buffer":0,"byteOffset":8328,"byteLength":72,"target":34963},{"buffer":0,"byteOffset":8400,"byteLength":240,"target":34962,"byteStride":12},{"buffer":0,"byteOffset":8640,"byteLength":240,"target":34962,"byteStride":12},{"buffer":0,"byteOffset":8880,"byteLength":160,"target":34962,"byteStride":8},{"buffer":0,"byteOffset":9040,"byteLength":60,"target":34963},{"buffer":0,"byteOffset":9100,"byteLength":240,"target":34962,"byteStride":12},{"buffer":0,"byteOffset":9340,"byteLength":240,"target":34962,"byteStride":12},{"buffer":0,"byteOffset":9580,"byteLength":160,"target":34962,"byteStride":8},{"buffer":0,"byteOffset":9740,"byteLength":60,"target":34963},{"buffer":0,"byteOffset":9800,"byteLength":288,"target":34962,"byteStride":12},{"buffer":0,"byteOffset":10088,"byteLength":288,"target":34962,"byteStride":12},{"buffer":0,"byteOffset":10376,"byteLength":192,"target":34962,"byteStride":8},{"buffer":0,"byteOffset":10568,"byteLength":72,"target":34963},{"buffer":0,"byteOffset":10640,"byteLength":448},{"buffer":0,"byteOffset":11088,"byteLength":1792},{"buffer":0,"byteOffset":12880,"byteLength":444},{"buffer":0,"byteOffset":13324,"byteLength":1332},{"buffer":0,"byteOffset":14656,"byteLength":444},{"buffer":0,"byteOffset":15100,"byteLength":1332},{"buffer":0,"byteOffset":16432,"byteLength":448},{"buffer":0,"byteOffset":16880,"byteLength":1792},{"buffer":0,"byteOffset":18672,"byteLength":16},{"buffer":0,"byteOffset":18688,"byteLength":48},{"buffer":0,"byteOffset":18736,"byteLength":448},{"buffer":0,"byteOffset":19184,"byteLength":1792},{"buffer":0,"byteOffset":20976,"byteLength":16},{"buffer":0,"byteOffset":20992,"byteLength":48},{"buffer":0,"byteOffset":21040,"byteLength":448},{"buffer":0,"byteOffset":21488,"byteLength":1792},{"buffer":0,"byteOffset":23280,"byteLength":16},{"buffer":0,"byteOffset":23296,"byteLength":48},{"buffer":0,"byteOffset":23344,"byteLength":448},{"buffer":0,"byteOffset":23792,"byteLength":1792},{"buffer":0,"byteOffset":25584,"byteLength":16},{"buffer":0,"byteOffset":25600,"byteLength":48},{"buffer":0,"byteOffset":25648,"byteLength":448},{"buffer":0,"byteOffset":26096,"byteLength":1792},{"buffer":0,"byteOffset":27888,"byteLength":16},{"buffer":0,"byteOffset":27904,"byteLength":48},{"buffer":0,"byteOffset":27952,"byteLength":448},{"buffer":0,"byteOffset":28400,"byteLength":1792},{"buffer":0,"byteOffset":30192,"byteLength":16},{"buffer":0,"byteOffset":30208,"byteLength":48},{"buffer":0,"byteOffset":30256,"byteLength":16},{"buffer":0,"byteOffset":30272,"byteLength":48},{"buffer":0,"byteOffset":30320,"byteLength":16},{"buffer":0,"byteOffset":30336,"byteLength":48},{"buffer":0,"byteOffset":30384,"byteLength":448},{"buffer":0,"byteOffset":30832,"byteLength":1792},{"buffer":0,"byteOffset":32624,"byteLength":16},{"buffer":0,"byteOffset":32640,"byteLength":48}],"buffers":[{"byteLength":32688,"uri":"data:application/octet-stream;base64,"}],"accessors":[{"bufferView":0,"componentType":5126,"count":24,"max":[0.3125,0.625,0.3125],"min":[-0.3125,0,-0.3125],"type":"VEC3"},{"bufferView":1,"componentType":5126,"count":24,"max":[1,1,1],"min":[-1,-1,-1],"type":"VEC3"},{"bufferView":2,"componentType":5126,"count":24,"max":[0.5,0.5],"min":[0,0],"type":"VEC2"},{"bufferView":3,"componentType":5123,"count":36,"max":[23],"min":[0],"type":"SCALAR"},{"bufferView":4,"componentType":5126,"count":24,"max":[0.1875,0.25,0.3125],"min":[-0.1875,0,0.1875],"type":"VEC3"},{"bufferView":5,"componentType":5126,"count":24,"max":[1,1,1],"min":[-1,-1,-1],"type":"VEC3"},{"bufferView":6,"componentType":5126,"count":24,"max":[1,0.390625],"min":[0.65625,0],"type":"VEC2"},{"bufferView":7,"componentType":5123,"count":36,"max":[23],"min":[0],"type":"SCALAR"},{"bufferView":8,"componentType":5126,"count":24,"max":[0.0625,0.125,0.0625],"min":[-0.0625,-0.125,-0.0625],"type":"VEC3"},{"bufferView":9,"componentType":5126,"count":24,"max":[1,1,1],"min":[-1,-1,-1],"type":"VEC3"},{"bufferView":10,"componentType":5126,"count":24,"max":[1,1],"min":[0.59375,0.5],"type":"VEC2"},{"bufferView":11,"componentType":5123,"count":36,"max":[23],"min":[0],"type":"SCALAR"},{"bufferView":12,"componentType":5126,"count":24,"max":[0.0625,0.125,0.0625],"min":[-0.0625,-0.125,-0.0625],"type":"VEC3"},{"bufferView":13,"componentType":5126,"count":24,"max":[1,1,1],"min":[-1,-1,-1],"type":"VEC3"},{"bufferView":14,"componentType":5126,"count":24,"max":[1,1],"min":[0.59375,0.5],"type":"VEC2"},{"bufferView":15,"componentType":5123,"count":36,"max":[23],"min":[0],"type":"SCALAR"},{"bufferView":16,"componentType":5126,"count":24,"max":[0.125,0.125,0.0625],"min":[-0.0625,0,-0.125],"type":"VEC3"},{"bufferView":17,"componentType":5126,"count":24,"max":[1,1,1],"min":[-1,-1,-1],"type":"VEC3"},{"bufferView":18,"componentType":5126,"count":24,"max":[0.5625,0.546875],"min":[0,0],"type":"VEC2"},{"bufferView":19,"componentType":5123,"count":36,"max":[23],"min":[0],"type":"SCALAR"},{"bufferView":20,"componentType":5126,"count":24,"max":[0.03125,0.34375,0.1875],"min":[-0.03125,0.28125,-0.1875],"type":"VEC3"},{"bufferView":21,"componentType":5126,"count":24,"max":[1,1,1],"min":[-1,-1,-1],"type":"VEC3"},{"bufferView":22,"componentType":5126,"count":24,"max":[0.46875,0.5],"min":[0.265625,0.234375],"type":"VEC2"},{"bufferView":23,"componentType":5123,"count":36,"max":[23],"min":[0],"type":"SCALAR"},{"bufferView":24,"componentType":5126,"count":24,"max":[-0.125,0.25,0],"min":[-0.375,0,-0.0625],"type":"VEC3"},{"bufferView":25,"componentType":5126,"count":24,"max":[1,1,1],"min":[-1,-1,-1],"type":"VEC3"},{"bufferView":26,"componentType":5126,"count":24,"max":[0.578125,0.578125],"min":[0.0625,0.09375],"type":"VEC2"},{"bufferView":27,"componentType":5123,"count":36,"max":[23],"min":[0],"type":"SCALAR"},{"bufferView":28,"componentType":5126,"count":24,"max":[0.0625,0.125,0.0625],"min":[-0.125,0,-0.125],"type":"VEC3"},{"bufferView":29,"componentType":5126,"count":24,"max":[1,1,1],"min":[-1,-1,-1],"type":"VEC3"},{"bufferView":30,"componentType":5126,"count":24,"max":[0.5625,0.546875],"min":[0,0],"type":"VEC2"},{"bufferView":31,"componentType":5123,"count":36,"max":[23],"min":[0],"type":"SCALAR"},{"bufferView":32,"componentType":5126,"count":24,"max":[0.125,0.125,0.0625],"min":[-0.0625,0,-0.125],"type":"VEC3"},{"bufferView":33,"componentType":5126,"count":24,"max":[1,1,1],"min":[-1,-1,-1],"type":"VEC3"},{"bufferView":34,"componentType":5126,"count":24,"max":[0.5625,0.546875],"min":[0,0],"type":"VEC2"},{"bufferView":35,"componentType":5123,"count":36,"max":[23],"min":[0],"type":"SCALAR"},{"bufferView":36,"componentType":5126,"count":24,"max":[0.0625,0.125,0.0625],"min":[-0.125,0,-0.125],"type":"VEC3"},{"bufferView":37,"componentType":5126,"count":24,"max":[1,1,1],"min":[-1,-1,-1],"type":"VEC3"},{"bufferView":38,"componentType":5126,"count":24,"max":[0.5625,0.546875],"min":[0,0],"type":"VEC2"},{"bufferView":39,"componentType":5123,"count":36,"max":[23],"min":[0],"type":"SCALAR"},{"bufferView":40,"componentType":5126,"count":20,"max":[-0.0625,0.53125,-0.3125],"min":[-0.28125,0.3125,-0.3125],"type":"VEC3"},{"bufferView":41,"componentType":5126,"count":20,"max":[1,0,0],"min":[0,0,-1],"type":"VEC3"},{"bufferView":42,"componentType":5126,"count":20,"max":[0.78125,0.5000500082969666],"min":[0.09375,0.03125],"type":"VEC2"},{"bufferView":43,"componentType":5123,"count":30,"max":[19],"min":[0],"type":"SCALAR"},{"bufferView":44,"componentType":5126,"count":20,"max":[0.28125,0.53125,-0.3125],"min":[0.0625,0.3125,-0.3125],"type":"VEC3"},{"bufferView":45,"componentType":5126,"count":20,"max":[1,0,0],"min":[0,0,-1],"type":"VEC3"},{"bufferView":46,"componentType":5126,"count":20,"max":[0.78125,0.5000500082969666],"min":[0.09375,0.03125],"type":"VEC2"},{"bufferView":47,"componentType":5123,"count":30,"max":[19],"min":[0],"type":"SCALAR"},{"bufferView":48,"componentType":5126,"count":24,"max":[0.375,0.25,0],"min":[0.125,0,-0.0625],"type":"VEC3"},{"bufferView":49,"componentType":5126,"count":24,"max":[1,1,1],"min":[-1,-1,-1],"type":"VEC3"},{"bufferView":50,"componentType":5126,"count":24,"max":[0.578125,0.578125],"min":[0.0625,0.09375],"type":"VEC2"},{"bufferView":51,"componentType":5123,"count":36,"max":[23],"min":[0],"type":"SCALAR"},{"bufferView":52,"componentType":5126,"count":112,"max":[3.125],"min":[0],"type":"SCALAR"},{"bufferView":53,"componentType":5126,"count":112,"max":[0.008916073478758335,0,0.008916073478758335,1],"min":[-0.008916073478758335,-0.00007950268627610058,-0.008916073478758335,0.9999204874038696],"type":"VEC4"},{"bufferView":54,"componentType":5126,"count":111,"max":[3.125],"min":[0],"type":"SCALAR"},{"bufferView":55,"componentType":5126,"count":111,"max":[0,0.125,0],"min":[0,0.0625,0],"type":"VEC3"},{"bufferView":56,"componentType":5126,"count":111,"max":[3.125],"min":[0],"type":"SCALAR"},{"bufferView":57,"componentType":5126,"count":111,"max":[1,1.0499999523162842,1],"min":[1,1,1],"type":"VEC3"},{"bufferView":58,"componentType":5126,"count":112,"max":[3.125],"min":[0],"type":"SCALAR"},{"bufferView":59,"componentType":5126,"count":112,"max":[0.06547471880912781,0,0,1],"min":[-0.025130094960331917,0,0,0.9978542327880859],"type":"VEC4"},{"bufferView":60,"componentType":5126,"count":4,"max":[3.125],"min":[0],"type":"SCALAR"},{"bufferView":61,"componentType":5126,"count":4,"max":[-0.15625,-0.3125,-0.09375],"min":[-0.15625,-0.3125,-0.09375],"type":"VEC3"},{"bufferView":62,"componentType":5126,"count":112,"max":[3.125],"min":[0],"type":"SCALAR"},{"bufferView":63,"componentType":5126,"count":112,"max":[0.5373601317405701,0,0,0.8885371685028076],"min":[0.4588046371936798,0,0,0.8433529138565063],"type":"VEC4"},{"bufferView":64,"componentType":5126,"count":4,"max":[3.125],"min":[0],"type":"SCALAR"},{"bufferView":65,"componentType":5126,"count":4,"max":[0,0.078125,0.265625],"min":[0,0.078125,0.265625],"type":"VEC3"},{"bufferView":66,"componentType":5126,"count":112,"max":[3.125],"min":[0],"type":"SCALAR"},{"bufferView":67,"componentType":5126,"count":112,"max":[0.0644800141453743,0.011369566433131695,0.1736481785774231,0.9848077297210693],"min":[-0.024748312309384346,-0.004363795276731253,0.17327557504177094,0.9826945662498474],"type":"VEC4"},{"bufferView":68,"componentType":5126,"count":4,"max":[3.125],"min":[0],"type":"SCALAR"},{"bufferView":69,"componentType":5126,"count":4,"max":[-0.28125,0.15944437682628632,-0.2257356196641922],"min":[-0.28125,0.15944437682628632,-0.2257356196641922],"type":"VEC3"},{"bufferView":70,"componentType":5126,"count":112,"max":[3.125],"min":[0],"type":"SCALAR"},{"bufferView":71,"componentType":5126,"count":112,"max":[0.06547471880912781,0,0,1],"min":[-0.025130094960331917,0,0,0.9978542327880859],"type":"VEC4"},{"bufferView":72,"componentType":5126,"count":4,"max":[3.125],"min":[0],"type":"SCALAR"},{"bufferView":73,"componentType":5126,"count":4,"max":[0.15625,-0.3125,-0.09375],"min":[0.15625,-0.3125,-0.09375],"type":"VEC3"},{"bufferView":74,"componentType":5126,"count":112,"max":[3.125],"min":[0],"type":"SCALAR"},{"bufferView":75,"componentType":5126,"count":112,"max":[0.06547471880912781,0,0,1],"min":[-0.025130094960331917,0,0,0.9978542327880859],"type":"VEC4"},{"bufferView":76,"componentType":5126,"count":4,"max":[3.125],"min":[0],"type":"SCALAR"},{"bufferView":77,"componentType":5126,"count":4,"max":[-0.15625,-0.3125,0.15625],"min":[-0.15625,-0.3125,0.15625],"type":"VEC3"},{"bufferView":78,"componentType":5126,"count":112,"max":[3.125],"min":[0],"type":"SCALAR"},{"bufferView":79,"componentType":5126,"count":112,"max":[0.06547471880912781,0,0,1],"min":[-0.025130094960331917,0,0,0.9978542327880859],"type":"VEC4"},{"bufferView":80,"componentType":5126,"count":4,"max":[3.125],"min":[0],"type":"SCALAR"},{"bufferView":81,"componentType":5126,"count":4,"max":[0.15625,-0.3125,0.15625],"min":[0.15625,-0.3125,0.15625],"type":"VEC3"},{"bufferView":82,"componentType":5126,"count":4,"max":[0.7083333134651184],"min":[0.4583333432674408],"type":"SCALAR"},{"bufferView":83,"componentType":5126,"count":4,"max":[1,1,1],"min":[1,0,1],"type":"VEC3"},{"bufferView":84,"componentType":5126,"count":4,"max":[0.7083333134651184],"min":[0.4583333432674408],"type":"SCALAR"},{"bufferView":85,"componentType":5126,"count":4,"max":[1,1,1],"min":[1,0,1],"type":"VEC3"},{"bufferView":86,"componentType":5126,"count":112,"max":[3.125],"min":[0],"type":"SCALAR"},{"bufferView":87,"componentType":5126,"count":112,"max":[0.0644800141453743,0.004363795276731253,-0.17327557504177094,0.9848077297210693],"min":[-0.024748312309384346,-0.011369566433131695,-0.1736481785774231,0.9826945662498474],"type":"VEC4"},{"bufferView":88,"componentType":5126,"count":4,"max":[3.125],"min":[0],"type":"SCALAR"},{"bufferView":89,"componentType":5126,"count":4,"max":[0.28125,0.15944437682628632,-0.2257356196641922],"min":[0.28125,0.15944437682628632,-0.2257356196641922],"type":"VEC3"}],"materials":[{"pbrMetallicRoughness":{"metallicFactor":0,"roughnessFactor":1,"baseColorTexture":{"index":0}},"alphaMode":"MASK","alphaCutoff":0.05,"doubleSided":true}],"textures":[{"sampler":0,"source":0,"name":"cube-pet"}],"samplers":[{"magFilter":9728,"minFilter":9728,"wrapS":33071,"wrapT":33071}],"images":[{"mimeType":"image/png","uri":"data:image/png;base64,"}],"meshes":[{"primitives":[{"mode":4,"attributes":{"POSITION":0,"NORMAL":1,"TEXCOORD_0":2},"indices":3,"material":0}]},{"primitives":[{"mode":4,"attributes":{"POSITION":4,"NORMAL":5,"TEXCOORD_0":6},"indices":7,"material":0}]},{"primitives":[{"mode":4,"attributes":{"POSITION":8,"NORMAL":9,"TEXCOORD_0":10},"indices":11,"material":0}]},{"primitives":[{"mode":4,"attributes":{"POSITION":12,"NORMAL":13,"TEXCOORD_0":14},"indices":15,"material":0}]},{"primitives":[{"mode":4,"attributes":{"POSITION":16,"NORMAL":17,"TEXCOORD_0":18},"indices":19,"material":0}]},{"primitives":[{"mode":4,"attributes":{"POSITION":20,"NORMAL":21,"TEXCOORD_0":22},"indices":23,"material":0}]},{"primitives":[{"mode":4,"attributes":{"POSITION":24,"NORMAL":25,"TEXCOORD_0":26},"indices":27,"material":0}]},{"primitives":[{"mode":4,"attributes":{"POSITION":28,"NORMAL":29,"TEXCOORD_0":30},"indices":31,"material":0}]},{"primitives":[{"mode":4,"attributes":{"POSITION":32,"NORMAL":33,"TEXCOORD_0":34},"indices":35,"material":0}]},{"primitives":[{"mode":4,"attributes":{"POSITION":36,"NORMAL":37,"TEXCOORD_0":38},"indices":39,"material":0}]},{"primitives":[{"mode":4,"attributes":{"POSITION":40,"NORMAL":41,"TEXCOORD_0":42},"indices":43,"material":0}]},{"primitives":[{"mode":4,"attributes":{"POSITION":44,"NORMAL":45,"TEXCOORD_0":46},"indices":47,"material":0}]},{"primitives":[{"mode":4,"attributes":{"POSITION":48,"NORMAL":49,"TEXCOORD_0":50},"indices":51,"material":0}]}],"animations":[{"name":"idle","samplers":[{"input":52,"output":53,"interpolation":"LINEAR"},{"input":54,"output":55,"interpolation":"LINEAR"},{"input":56,"output":57,"interpolation":"LINEAR"},{"input":58,"output":59,"interpolation":"LINEAR"},{"input":60,"output":61,"interpolation":"LINEAR"},{"input":62,"output":63,"interpolation":"LINEAR"},{"input":64,"output":65,"interpolation":"LINEAR"},{"input":66,"output":67,"interpolation":"LINEAR"},{"input":68,"output":69,"interpolation":"LINEAR"},{"input":70,"output":71,"interpolation":"LINEAR"},{"input":72,"output":73,"interpolation":"LINEAR"},{"input":74,"output":75,"interpolation":"LINEAR"},{"input":76,"output":77,"interpolation":"LINEAR"},{"input":78,"output":79,"interpolation":"LINEAR"},{"input":80,"output":81,"interpolation":"LINEAR"},{"input":82,"output":83,"interpolation":"LINEAR"},{"input":84,"output":85,"interpolation":"LINEAR"},{"input":86,"output":87,"interpolation":"LINEAR"},{"input":88,"output":89,"interpolation":"LINEAR"}],"channels":[{"sampler":0,"target":{"node":23,"path":"rotation"}},{"sampler":1,"target":{"node":23,"path":"translation"}},{"sampler":2,"target":{"node":23,"path":"scale"}},{"sampler":3,"target":{"node":5,"path":"rotation"}},{"sampler":4,"target":{"node":5,"path":"translation"}},{"sampler":5,"target":{"node":7,"path":"rotation"}},{"sampler":6,"target":{"node":7,"path":"translation"}},{"sampler":7,"target":{"node":9,"path":"rotation"}},{"sampler":8,"target":{"node":9,"path":"translation"}},{"sampler":9,"target":{"node":11,"path":"rotation"}},{"sampler":10,"target":{"node":11,"path":"translation"}},{"sampler":11,"target":{"node":13,"path":"rotation"}},{"sampler":12,"target":{"node":13,"path":"translation"}},{"sampler":13,"target":{"node":15,"path":"rotation"}},{"sampler":14,"target":{"node":15,"path":"translation"}},{"sampler":15,"target":{"node":17,"path":"scale"}},{"sampler":16,"target":{"node":19,"path":"scale"}},{"sampler":17,"target":{"node":21,"path":"rotation"}},{"sampler":18,"target":{"node":21,"path":"translation"}}]}]}