{"asset":{"version":"2.0","generator":"Blockbench 5.0.7 glTF exporter"},"scenes":[{"nodes":[30],"name":"blockbench_export"}],"scene":0,"nodes":[{"translation":[0,0.15625,0],"name":"cube","mesh":0},{"translation":[0,0.03437499999999999,0.171875],"name":"cube","mesh":1},{"name":"tail","children":[1]},{"translation":[0,0.09375,0.125],"name":"tail_ext","children":[2]},{"translation":[0.0625,-0.125,0.15625],"name":"cube","mesh":2},{"translation":[0,0,0.0015624999999999944],"name":"wing_right","children":[4]},{"translation":[0.125,0.125,-0.15625],"name":"wing_right_ext","children":[5]},{"translation":[-0.0625,-0.12187500000000001,0.1578125],"name":"cube","mesh":3},{"name":"wing_left","children":[7]},{"translation":[-0.125,0.125,-0.15625],"name":"wing_left_ext","children":[8]},{"translation":[0,-0.0625,0.0625],"name":"wings","children":[6,9]},{"translation":[0,0.22187500000000004,-0.34375],"name":"cube","mesh":4},{"translation":[-0.28125,-0.653125,-0.3125],"name":"cube","mesh":5},{"translation":[0,0.59375,-0.125],"name":"cube","mesh":6},{"name":"head","children":[11,12,13]},{"translation":[0,0.125,0],"name":"head_ext","children":[14]},{"translation":[0,-0.0625,-0.0625],"name":"body","children":[0,3,10,15]},{"translation":[0.328125,-0.75,-0.375],"name":"cube","mesh":7},{"translation":[-0.03125,0.006250000000000001,0],"name":"cube","mesh":8},{"name":"foot_left","children":[18]},{"translation":[0.015625,-0.09375000000000001,0],"name":"foot_left_ext","children":[19]},{"translation":[-0.078125,-0.15312499999999998,-0.0625],"name":"leg_left","children":[17,20]},{"translation":[-0.3125,-0.71875,-0.375],"name":"cube","mesh":9},{"translation":[0.03125,0,-0.15625],"name":"cube","mesh":10},{"name":"foot_right","children":[23]},{"translation":[0,-0.0625,0],"name":"foot_right_ext","children":[24]},{"translation":[0.0625,-0.184375,-0.0625],"name":"leg_right","children":[22,25]},{"name":"legs","children":[21,26]},{"name":"body_main","children":[16,27]},{"translation":[0.125,-0.40937500000000004,0.4375],"name":"body_orbit","children":[28]},{"translation":[-0.125,0.659375,-0.375],"name":"root","children":[29]}],"bufferViews":[{"buffer":0,"byteOffset":0,"byteLength":288,"target":34962,"byteStride":12},{"buffer":0,"byteOffset":288,"byteLength":288,"target":34962,"byteStride":12},{"buffer":0,"byteOffset":576,"byteLength":192,"target":34962,"byteStride":8},{"buffer":0,"byteOffset":768,"byteLength":72,"target":34963},{"buffer":0,"byteOffset":840,"byteLength":240,"target":34962,"byteStride":12},{"buffer":0,"byteOffset":1080,"byteLength":240,"target":34962,"byteStride":12},{"buffer":0,"byteOffset":1320,"byteLength":160,"target":34962,"byteStride":8},{"buffer":0,"byteOffset":1480,"byteLength":60,"target":34963},{"buffer":0,"byteOffset":1540,"byteLength":288,"target":34962,"byteStride":12},{"buffer":0,"byteOffset":1828,"byteLength":288,"target":34962,"byteStride":12},{"buffer":0,"byteOffset":2116,"byteLength":192,"target":34962,"byteStride":8},{"buffer":0,"byteOffset":2308,"byteLength":72,"target":34963},{"buffer":0,"byteOffset":2380,"byteLength":288,"target":34962,"byteStride":12},{"buffer":0,"byteOffset":2668,"byteLength":288,"target":34962,"byteStride":12},{"buffer":0,"byteOffset":2956,"byteLength":192,"target":34962,"byteStride":8},{"buffer":0,"byteOffset":3148,"byteLength":72,"target":34963},{"buffer":0,"byteOffset":3220,"byteLength":240,"target":34962,"byteStride":12},{"buffer":0,"byteOffset":3460,"byteLength":240,"target":34962,"byteStride":12},{"buffer":0,"byteOffset":3700,"byteLength":160,"target":34962,"byteStride":8},{"buffer":0,"byteOffset":3860,"byteLength":60,"target":34963},{"buffer":0,"byteOffset":3920,"byteLength":288,"target":34962,"byteStride":12},{"buffer":0,"byteOffset":4208,"byteLength":288,"target":34962,"byteStride":12},{"buffer":0,"byteOffset":4496,"byteLength":192,"target":34962,"byteStride":8},{"buffer":0,"byteOffset":4688,"byteLength":72,"target":34963},{"buffer":0,"byteOffset":4760,"byteLength":240,"target":34962,"byteStride":12},{"buffer":0,"byteOffset":5000,"byteLength":240,"target":34962,"byteStride":12},{"buffer":0,"byteOffset":5240,"byteLength":160,"target":34962,"byteStride":8},{"buffer":0,"byteOffset":5400,"byteLength":60,"target":34963},{"buffer":0,"byteOffset":5460,"byteLength":288,"target":34962,"byteStride":12},{"buffer":0,"byteOffset":5748,"byteLength":288,"target":34962,"byteStride":12},{"buffer":0,"byteOffset":6036,"byteLength":192,"target":34962,"byteStride":8},{"buffer":0,"byteOffset":6228,"byteLength":72,"target":34963},{"buffer":0,"byteOffset":6300,"byteLength":288,"target":34962,"byteStride":12},{"buffer":0,"byteOffset":6588,"byteLength":288,"target":34962,"byteStride":12},{"buffer":0,"byteOffset":6876,"byteLength":192,"target":34962,"byteStride":8},{"buffer":0,"byteOffset":7068,"byteLength":72,"target":34963},{"buffer":0,"byteOffset":7140,"byteLength":288,"target":34962,"byteStride":12},{"buffer":0,"byteOffset":7428,"byteLength":288,"target":34962,"byteStride":12},{"buffer":0,"byteOffset":7716,"byteLength":192,"target":34962,"byteStride":8},{"buffer":0,"byteOffset":7908,"byteLength":72,"target":34963},{"buffer":0,"byteOffset":7980,"byteLength":288,"target":34962,"byteStride":12},{"buffer":0,"byteOffset":8268,"byteLength":288,"target":34962,"byteStride":12},{"buffer":0,"byteOffset":8556,"byteLength":192,"target":34962,"byteStride":8},{"buffer":0,"byteOffset":8748,"byteLength":72,"target":34963},{"buffer":0,"byteOffset":8820,"byteLength":772},{"buffer":0,"byteOffset":9592,"byteLength":3088},{"buffer":0,"byteOffset":12680,"byteLength":84},{"buffer":0,"byteOffset":12764,"byteLength":336},{"buffer":0,"byteOffset":13100,"byteLength":96},{"buffer":0,"byteOffset":13196,"byteLength":384},{"buffer":0,"byteOffset":13580,"byteLength":772},{"buffer":0,"byteOffset":14352,"byteLength":3088},{"buffer":0,"byteOffset":17440,"byteLength":84},{"buffer":0,"byteOffset":17524,"byteLength":336},{"buffer":0,"byteOffset":17860,"byteLength":304},{"buffer":0,"byteOffset":18164,"byteLength":1216},{"buffer":0,"byteOffset":19380,"byteLength":304},{"buffer":0,"byteOffset":19684,"byteLength":1216},{"buffer":0,"byteOffset":20900,"byteLength":192},{"buffer":0,"byteOffset":21092,"byteLength":768},{"buffer":0,"byteOffset":21860,"byteLength":300},{"buffer":0,"byteOffset":22160,"byteLength":900},{"buffer":0,"byteOffset":23060,"byteLength":92},{"buffer":0,"byteOffset":23152,"byteLength":368},{"buffer":0,"byteOffset":23520,"byteLength":92},{"buffer":0,"byteOffset":23612,"byteLength":368},{"buffer":0,"byteOffset":23980,"byteLength":120},{"buffer":0,"byteOffset":24100,"byteLength":480},{"buffer":0,"byteOffset":24580,"byteLength":124},{"buffer":0,"byteOffset":24704,"byteLength":372},{"buffer":0,"byteOffset":25076,"byteLength":36},{"buffer":0,"byteOffset":25112,"byteLength":144},{"buffer":0,"byteOffset":25256,"byteLength":36},{"buffer":0,"byteOffset":25292,"byteLength":144},{"buffer":0,"byteOffset":25436,"byteLength":124},{"buffer":0,"byteOffset":25560,"byteLength":496},{"buffer":0,"byteOffset":26056,"byteLength":120},{"buffer":0,"byteOffset":26176,"byteLength":360},{"buffer":0,"byteOffset":26536,"byteLength":4},{"buffer":0,"byteOffset":26540,"byteLength":16},{"buffer":0,"byteOffset":26556,"byteLength":4},{"buffer":0,"byteOffset":26560,"byteLength":16},{"buffer":0,"byteOffset":26576,"byteLength":4},{"buffer":0,"byteOffset":26580,"byteLength":12}],"buffers":[{"byteLength":26592,"uri":"data:application/octet-stream;base64,"}],"accessors":[{"bufferView":0,"componentType":5126,"count":24,"max":[0.125,-0.03125,0.125],"min":[-0.125,-0.28125,-0.1875],"type":"VEC3"},{"bufferView":1,"componentType":5126,"count":24,"max":[1,1,1],"min":[-1,-1,-1],"type":"VEC3"},{"bufferView":2,"componentType":5126,"count":24,"max":[0.56201171875,0.28076171875],"min":[0.00048828125,0.00048828125],"type":"VEC2"},{"bufferView":3,"componentType":5123,"count":36,"max":[23],"min":[0],"type":"SCALAR"},{"bufferView":4,"componentType":5126,"count":20,"max":[0,-0.03437500074505806,-0.078125],"min":[0,-0.22187499701976776,-0.171875],"type":"VEC3"},{"bufferView":5,"componentType":5126,"count":20,"max":[1,0,0],"min":[-1,0,0],"type":"VEC3"},{"bufferView":6,"componentType":5126,"count":20,"max":[0.484375,0.6875],"min":[0,0],"type":"VEC2"},{"bufferView":7,"componentType":5123,"count":30,"max":[19],"min":[0],"type":"SCALAR"},{"bufferView":8,"componentType":5126,"count":24,"max":[0,0.1875,0],"min":[-0.0625,0,-0.25],"type":"VEC3"},{"bufferView":9,"componentType":5126,"count":24,"max":[1,1,1],"min":[-1,-1,-1],"type":"VEC3"},{"bufferView":10,"componentType":5126,"count":24,"max":[0.84326171875,0.53076171875],"min":[0.53173828125,0.31298828125],"type":"VEC2"},{"bufferView":11,"componentType":5123,"count":36,"max":[23],"min":[0],"type":"SCALAR"},{"bufferView":12,"componentType":5126,"count":24,"max":[0.0625,0.18437500298023224,0],"min":[0,-0.0031250000465661287,-0.25],"type":"VEC3"},{"bufferView":13,"componentType":5126,"count":24,"max":[1,1,1],"min":[-1,-1,-1],"type":"VEC3"},{"bufferView":14,"componentType":5126,"count":24,"max":[0.84326171875,0.78076171875],"min":[0.53173828125,0.56298828125],"type":"VEC2"},{"bufferView":15,"componentType":5123,"count":36,"max":[23],"min":[0],"type":"SCALAR"},{"bufferView":16,"componentType":5126,"count":20,"max":[0,-0.09687499701976776,0.09375],"min":[0,-0.15937499701976776,0.03125],"type":"VEC3"},{"bufferView":17,"componentType":5126,"count":20,"max":[1,0,0],"min":[-1,0,0],"type":"VEC3"},{"bufferView":18,"componentType":5126,"count":20,"max":[0.6563000082969666,0.15625],"min":[0.625,0.09375],"type":"VEC2"},{"bufferView":19,"componentType":5123,"count":30,"max":[19],"min":[0],"type":"SCALAR"},{"bufferView":20,"componentType":5126,"count":24,"max":[0.40625,0.903124988079071,0.3125],"min":[0.15625,0.653124988079071,0.0625],"type":"VEC3"},{"bufferView":21,"componentType":5126,"count":24,"max":[1,1,1],"min":[-1,-1,-1],"type":"VEC3"},{"bufferView":22,"componentType":5126,"count":24,"max":[0.49951171875,0.56201171875],"min":[0.00048828125,0.31298828125],"type":"VEC2"},{"bufferView":23,"componentType":5123,"count":36,"max":[23],"min":[0],"type":"SCALAR"},{"bufferView":24,"componentType":5126,"count":20,"max":[0,-0.21875,0.0625],"min":[0,-0.40625,-0.1875],"type":"VEC3"},{"bufferView":25,"componentType":5126,"count":20,"max":[1,0,0],"min":[-1,0,0],"type":"VEC3"},{"bufferView":26,"componentType":5126,"count":20,"max":[0.125,0.78125],"min":[0,0],"type":"VEC2"},{"bufferView":27,"componentType":5123,"count":30,"max":[19],"min":[0],"type":"SCALAR"},{"bufferView":28,"componentType":5126,"count":24,"max":[-0.28125,0.78125,0.375062495470047],"min":[-0.34375,0.65625,0.375],"type":"VEC3"},{"bufferView":29,"componentType":5126,"count":24,"max":[1,1,1],"min":[-1,-1,-1],"type":"VEC3"},{"bufferView":30,"componentType":5126,"count":24,"max":[0.65576171875,0.24951171875],"min":[0.59326171875,0.18701171875],"type":"VEC2"},{"bufferView":31,"componentType":5123,"count":36,"max":[23],"min":[0],"type":"SCALAR"},{"bufferView":32,"componentType":5126,"count":24,"max":[0.078125,-0.006187499966472387,0],"min":[-0.015625,-0.0062500000931322575,-0.125],"type":"VEC3"},{"bufferView":33,"componentType":5126,"count":24,"max":[1,1,1],"min":[-1,-1,-1],"type":"VEC3"},{"bufferView":34,"componentType":5126,"count":24,"max":[0.875,0.0625],"min":[0.59375,0],"type":"VEC2"},{"bufferView":35,"componentType":5123,"count":36,"max":[23],"min":[0],"type":"SCALAR"},{"bufferView":36,"componentType":5126,"count":24,"max":[0.34375,0.78125,0.375062495470047],"min":[0.28125,0.65625,0.375],"type":"VEC3"},{"bufferView":37,"componentType":5126,"count":24,"max":[1,1,1],"min":[-1,-1,-1],"type":"VEC3"},{"bufferView":38,"componentType":5126,"count":24,"max":[0.40576171875,0.65576171875],"min":[0.34326171875,0.59326171875],"type":"VEC2"},{"bufferView":39,"componentType":5123,"count":36,"max":[23],"min":[0],"type":"SCALAR"},{"bufferView":40,"componentType":5126,"count":24,"max":[0.03125,0.0000625000029685907,0.15625],"min":[-0.09375,0,0.03125],"type":"VEC3"},{"bufferView":41,"componentType":5126,"count":24,"max":[1,1,1],"min":[-1,-1,-1],"type":"VEC3"},{"bufferView":42,"componentType":5126,"count":24,"max":[0.875,0.0625],"min":[0.59375,0],"type":"VEC2"},{"bufferView":43,"componentType":5123,"count":36,"max":[23],"min":[0],"type":"SCALAR"},{"bufferView":44,"componentType":5126,"count":193,"max":[8],"min":[0],"type":"SCALAR"},{"bufferView":45,"componentType":5126,"count":193,"max":[0.011354895308613777,0.008728105574846268,0.015271036885678768,0.9999619126319885],"min":[-0.011354895308613777,-0.008728105574846268,-0.015271036885678768,0.9998377561569214],"type":"VEC4"},{"bufferView":46,"componentType":5126,"count":21,"max":[3.875],"min":[0],"type":"SCALAR"},{"bufferView":47,"componentType":5126,"count":21,"max":[0,0,0.04961242526769638,1],"min":[0,0,0,0.9987685680389404],"type":"VEC4"},{"bufferView":48,"componentType":5126,"count":24,"max":[6.375],"min":[0.958329975605011],"type":"SCALAR"},{"bufferView":49,"componentType":5126,"count":24,"max":[0,0.09851789474487305,0.1507221758365631,1],"min":[-0.11102207005023956,-0.1433836817741394,-0.149325892329216,0.9768034815788269],"type":"VEC4"},{"bufferView":50,"componentType":5126,"count":193,"max":[8],"min":[0],"type":"SCALAR"},{"bufferView":51,"componentType":5126,"count":193,"max":[0.011284816078841686,0.008730803616344929,0.015274028293788433,0.9999499320983887],"min":[-0.01131095364689827,-0.008730803616344929,-0.015274028293788433,0.9998232126235962],"type":"VEC4"},{"bufferView":52,"componentType":5126,"count":21,"max":[3.875],"min":[0],"type":"SCALAR"},{"bufferView":53,"componentType":5126,"count":21,"max":[0,0,0,1],"min":[0,0,-0.04961242526769638,0.9987685680389404],"type":"VEC4"},{"bufferView":54,"componentType":5126,"count":76,"max":[1.9583333730697632],"min":[0],"type":"SCALAR"},{"bufferView":55,"componentType":5126,"count":76,"max":[0.1736481785774231,0,0,0.9999988675117493],"min":[-0.7372773289680481,0,0,0.6755902171134949],"type":"VEC4"},{"bufferView":56,"componentType":5126,"count":76,"max":[1.9583333730697632],"min":[0],"type":"SCALAR"},{"bufferView":57,"componentType":5126,"count":76,"max":[0.19509032368659973,0,0,0.999566912651062],"min":[-0.8870108127593994,0,0,0.4617486000061035],"type":"VEC4"},{"bufferView":58,"componentType":5126,"count":48,"max":[1.9583333730697632],"min":[0],"type":"SCALAR"},{"bufferView":59,"componentType":5126,"count":48,"max":[0,0.11753739416599274,0,1],"min":[0,-0.11753739416599274,0,0.9930684566497803],"type":"VEC4"},{"bufferView":60,"componentType":5126,"count":75,"max":[1.9166666269302368],"min":[0],"type":"SCALAR"},{"bufferView":61,"componentType":5126,"count":75,"max":[0,0.0625,0],"min":[0,-0.007499999832361937,0],"type":"VEC3"},{"bufferView":62,"componentType":5126,"count":23,"max":[1.7916666269302368],"min":[0],"type":"SCALAR"},{"bufferView":63,"componentType":5126,"count":23,"max":[0,0,0.04961242526769638,1],"min":[0,0,0,0.9987685680389404],"type":"VEC4"},{"bufferView":64,"componentType":5126,"count":23,"max":[1.7916666269302368],"min":[0],"type":"SCALAR"},{"bufferView":65,"componentType":5126,"count":23,"max":[0,0,0,1],"min":[0,0,-0.04961242526769638,0.9987685680389404],"type":"VEC4"},{"bufferView":66,"componentType":5126,"count":30,"max":[0.75],"min":[0],"type":"SCALAR"},{"bufferView":67,"componentType":5126,"count":30,"max":[0,0,0,1],"min":[-0.0702400952577591,0,0,0.9975301027297974],"type":"VEC4"},{"bufferView":68,"componentType":5126,"count":31,"max":[0.75],"min":[0],"type":"SCALAR"},{"bufferView":69,"componentType":5126,"count":31,"max":[0,-0.06064814701676369,-0.0625],"min":[0,-0.08749999850988388,-0.0625],"type":"VEC3"},{"bufferView":70,"componentType":5126,"count":9,"max":[0.20833000540733337],"min":[0],"type":"SCALAR"},{"bufferView":71,"componentType":5126,"count":9,"max":[0,0,0.44228869676589966,1],"min":[0,0,-0.05495237559080124,0.8968727588653564],"type":"VEC4"},{"bufferView":72,"componentType":5126,"count":9,"max":[0.20833000540733337],"min":[0],"type":"SCALAR"},{"bufferView":73,"componentType":5126,"count":9,"max":[0,0,0.05495237559080124,1],"min":[0,0,-0.44228869676589966,0.8968727588653564],"type":"VEC4"},{"bufferView":74,"componentType":5126,"count":31,"max":[0.75],"min":[0],"type":"SCALAR"},{"bufferView":75,"componentType":5126,"count":31,"max":[0,0,0,1],"min":[-0.44228869676589966,0,0,0.8968727588653564],"type":"VEC4"},{"bufferView":76,"componentType":5126,"count":30,"max":[0.75],"min":[0],"type":"SCALAR"},{"bufferView":77,"componentType":5126,"count":30,"max":[0,0,0],"min":[0,0,-0.07029999792575836],"type":"VEC3"},{"bufferView":78,"componentType":5126,"count":1,"max":[0],"min":[0],"type":"SCALAR"},{"bufferView":79,"componentType":5126,"count":1,"max":[0.056692786514759064,0,0,0.9983916878700256],"min":[0.056692786514759064,0,0,0.9983916878700256],"type":"VEC4"},{"bufferView":80,"componentType":5126,"count":1,"max":[0],"min":[0],"type":"SCALAR"},{"bufferView":81,"componentType":5126,"count":1,"max":[0.2354603409767151,0.09481003880500793,-0.1371723860502243,0.9574723243713379],"min":[0.2354603409767151,0.09481003880500793,-0.1371723860502243,0.9574723243713379],"type":"VEC4"},{"bufferView":82,"componentType":5126,"count":1,"max":[0],"min":[0],"type":"SCALAR"},{"bufferView":83,"componentType":5126,"count":1,"max":[0,-0.05312500149011612,0],"min":[0,-0.05312500149011612,0],"type":"VEC3"}],"materials":[{"pbrMetallicRoughness":{"metallicFactor":0,"roughnessFactor":1,"baseColorTexture":{"index":0}},"alphaMode":"MASK","alphaCutoff":0.05,"doubleSided":true}],"textures":[{"sampler":0,"source":0,"name":"baby-chicken"}],"samplers":[{"magFilter":9728,"minFilter":9728,"wrapS":33071,"wrapT":33071}],"images":[{"mimeType":"image/png","uri":"data:image/png;base64,"}],"meshes":[{"primitives":[{"mode":4,"attributes":{"POSITION":0,"NORMAL":1,"TEXCOORD_0":2},"indices":3,"material":0}]},{"primitives":[{"mode":4,"attributes":{"POSITION":4,"NORMAL":5,"TEXCOORD_0":6},"indices":7,"material":0}]},{"primitives":[{"mode":4,"attributes":{"POSITION":8,"NORMAL":9,"TEXCOORD_0":10},"indices":11,"material":0}]},{"primitives":[{"mode":4,"attributes":{"POSITION":12,"NORMAL":13,"TEXCOORD_0":14},"indices":15,"material":0}]},{"primitives":[{"mode":4,"attributes":{"POSITION":16,"NORMAL":17,"TEXCOORD_0":18},"indices":19,"material":0}]},{"primitives":[{"mode":4,"attributes":{"POSITION":20,"NORMAL":21,"TEXCOORD_0":22},"indices":23,"material":0}]},{"primitives":[{"mode":4,"attributes":{"POSITION":24,"NORMAL":25,"TEXCOORD_0":26},"indices":27,"material":0}]},{"primitives":[{"mode":4,"attributes":{"POSITION":28,"NORMAL":29,"TEXCOORD_0":30},"indices":31,"material":0}]},{"primitives":[{"mode":4,"attributes":{"POSITION":32,"NORMAL":33,"TEXCOORD_0":34},"indices":35,"material":0}]},{"primitives":[{"mode":4,"attributes":{"POSITION":36,"NORMAL":37,"TEXCOORD_0":38},"indices":39,"material":0}]},{"primitives":[{"mode":4,"attributes":{"POSITION":40,"NORMAL":41,"TEXCOORD_0":42},"indices":43,"material":0}]}],"animations":[{"name":"idle","samplers":[{"input":44,"output":45,"interpolation":"LINEAR"},{"input":46,"output":47,"interpolation":"LINEAR"},{"input":48,"output":49,"interpolation":"LINEAR"},{"input":50,"output":51,"interpolation":"LINEAR"},{"input":52,"output":53,"interpolation":"LINEAR"}],"channels":[{"sampler":0,"target":{"node":16,"path":"rotation"}},{"sampler":1,"target":{"node":5,"path":"rotation"}},{"sampler":2,"target":{"node":14,"path":"rotation"}},{"sampler":3,"target":{"node":3,"path":"rotation"}},{"sampler":4,"target":{"node":8,"path":"rotation"}}]},{"name":"walk","samplers":[{"input":54,"output":55,"interpolation":"LINEAR"},{"input":56,"output":57,"interpolation":"LINEAR"},{"input":58,"output":59,"interpolation":"LINEAR"},{"input":60,"output":61,"interpolation":"LINEAR"},{"input":62,"output":63,"interpolation":"LINEAR"},{"input":64,"output":65,"interpolation":"LINEAR"}],"channels":[{"sampler":0,"target":{"node":21,"path":"rotation"}},{"sampler":1,"target":{"node":26,"path":"rotation"}},{"sampler":2,"target":{"node":2,"path":"rotation"}},{"sampler":3,"target":{"node":28,"path":"translation"}},{"sampler":4,"target":{"node":5,"path":"rotation"}},{"sampler":5,"target":{"node":8,"path":"rotation"}}]},{"name":"eating","samplers":[{"input":66,"output":67,"interpolation":"LINEAR"},{"input":68,"output":69,"interpolation":"LINEAR"},{"input":70,"output":71,"interpolation":"LINEAR"},{"input":72,"output":73,"interpolation":"LINEAR"},{"input":74,"output":75,"interpolation":"LINEAR"},{"input":76,"output":77,"interpolation":"LINEAR"}],"channels":[{"sampler":0,"target":{"node":16,"path":"rotation"}},{"sampler":1,"target":{"node":16,"path":"translation"}},{"sampler":2,"target":{"node":5,"path":"rotation"}},{"sampler":3,"target":{"node":8,"path":"rotation"}},{"sampler":4,"target":{"node":14,"path":"rotation"}},{"sampler":5,"target":{"node":14,"path":"translation"}}]},{"name":"admiring","samplers":[{"input":78,"output":79,"interpolation":"LINEAR"},{"input":80,"output":81,"interpolation":"LINEAR"},{"input":82,"output":83,"interpolation":"LINEAR"}],"channels":[{"sampler":0,"target":{"node":16,"path":"rotation"}},{"sampler":1,"target":{"node":14,"path":"rotation"}},{"sampler":2,"target":{"node":14,"path":"translation"}}]}]}