{"asset":{"version":"2.0","generator":"Blockbench 5.0.7 glTF exporter"},"scenes":[{"nodes":[18],"name":"blockbench_export"}],"scene":0,"nodes":[{"translation":[0,-0.3125,0],"name":"cube","mesh":0},{"name":"cube","mesh":1},{"rotation":[0,0,-0.19509032201612825,0.9807852804032304],"translation":[-0.086679375,-0.11985062499999999,0],"name":"cube","mesh":2},{"translation":[-0.278125,0.15944437499999997,-0.163235625],"name":"left_ear","children":[1,2]},{"translation":[-0.03125,-0.125,-0.125],"name":"cube","mesh":3},{"translation":[-0.15625,-0.3125,0.15625],"name":"left_leg","children":[4]},{"translation":[0.03125,-0.125,-0.125],"name":"cube","mesh":4},{"translation":[0.15625,-0.3125,0.15625],"name":"right_leg","children":[6]},{"translation":[0.171875,-0.421875,0.3125],"name":"cube","mesh":5},{"translation":[-0.015625,0.046875,-0.3140625],"name":"eye","children":[8]},{"name":"cube","mesh":6},{"rotation":[0,0,0.19509032201612825,0.9807852804032304],"translation":[0.086679375,-0.11985062499999999,0],"name":"cube","mesh":7},{"translation":[0.278125,0.15944437499999997,-0.163235625],"name":"right_ear","children":[10,11]},{"translation":[-0.15625,0.125,0.15625],"name":"cube","mesh":8},{"translation":[-0.15625,-0.3125,-0.09375],"name":"left_arm","children":[13]},{"translation":[0.03125,-0.0625,0.03125],"name":"cube","mesh":9},{"translation":[0.28125,-0.125,0.03125],"name":"right_arm","children":[15]},{"translation":[0,0.4375,0],"name":"head","children":[0,3,5,7,9,12,14,16]},{"name":"cube-pet","children":[17]}],"bufferViews":[{"buffer":0,"byteOffset":0,"byteLength":288,"target":34962,"byteStride":12},{"buffer":0,"byteOffset":288,"byteLength":288,"target":34962,"byteStride":12},{"buffer":0,"byteOffset":576,"byteLength":192,"target":34962,"byteStride":8},{"buffer":0,"byteOffset":768,"byteLength":72,"target":34963},{"buffer":0,"byteOffset":840,"byteLength":288,"target":34962,"byteStride":12},{"buffer":0,"byteOffset":1128,"byteLength":288,"target":34962,"byteStride":12},{"buffer":0,"byteOffset":1416,"byteLength":192,"target":34962,"byteStride":8},{"buffer":0,"byteOffset":1608,"byteLength":72,"target":34963},{"buffer":0,"byteOffset":1680,"byteLength":288,"target":34962,"byteStride":12},{"buffer":0,"byteOffset":1968,"byteLength":288,"target":34962,"byteStride":12},{"buffer":0,"byteOffset":2256,"byteLength":192,"target":34962,"byteStride":8},{"buffer":0,"byteOffset":2448,"byteLength":72,"target":34963},{"buffer":0,"byteOffset":2520,"byteLength":288,"target":34962,"byteStride":12},{"buffer":0,"byteOffset":2808,"byteLength":288,"target":34962,"byteStride":12},{"buffer":0,"byteOffset":3096,"byteLength":192,"target":34962,"byteStride":8},{"buffer":0,"byteOffset":3288,"byteLength":72,"target":34963},{"buffer":0,"byteOffset":3360,"byteLength":288,"target":34962,"byteStride":12},{"buffer":0,"byteOffset":3648,"byteLength":288,"target":34962,"byteStride":12},{"buffer":0,"byteOffset":3936,"byteLength":192,"target":34962,"byteStride":8},{"buffer":0,"byteOffset":4128,"byteLength":72,"target":34963},{"buffer":0,"byteOffset":4200,"byteLength":240,"target":34962,"byteStride":12},{"buffer":0,"byteOffset":4440,"byteLength":240,"target":34962,"byteStride":12},{"buffer":0,"byteOffset":4680,"byteLength":160,"target":34962,"byteStride":8},{"buffer":0,"byteOffset":4840,"byteLength":60,"target":34963},{"buffer":0,"byteOffset":4900,"byteLength":288,"target":34962,"byteStride":12},{"buffer":0,"byteOffset":5188,"byteLength":288,"target":34962,"byteStride":12},{"buffer":0,"byteOffset":5476,"byteLength":192,"target":34962,"byteStride":8},{"buffer":0,"byteOffset":5668,"byteLength":72,"target":34963},{"buffer":0,"byteOffset":5740,"byteLength":288,"target":34962,"byteStride":12},{"buffer":0,"byteOffset":6028,"byteLength":288,"target":34962,"byteStride":12},{"buffer":0,"byteOffset":6316,"byteLength":192,"target":34962,"byteStride":8},{"buffer":0,"byteOffset":6508,"byteLength":72,"target":34963},{"buffer":0,"byteOffset":6580,"byteLength":288,"target":34962,"byteStride":12},{"buffer":0,"byteOffset":6868,"byteLength":288,"target":34962,"byteStride":12},{"buffer":0,"byteOffset":7156,"byteLength":192,"target":34962,"byteStride":8},{"buffer":0,"byteOffset":7348,"byteLength":72,"target":34963},{"buffer":0,"byteOffset":7420,"byteLength":288,"target":34962,"byteStride":12},{"buffer":0,"byteOffset":7708,"byteLength":288,"target":34962,"byteStride":12},{"buffer":0,"byteOffset":7996,"byteLength":192,"target":34962,"byteStride":8},{"buffer":0,"byteOffset":8188,"byteLength":72,"target":34963},{"buffer":0,"byteOffset":8260,"byteLength":448},{"buffer":0,"byteOffset":8708,"byteLength":1792},{"buffer":0,"byteOffset":10500,"byteLength":444},{"buffer":0,"byteOffset":10944,"byteLength":1332},{"buffer":0,"byteOffset":12276,"byteLength":444},{"buffer":0,"byteOffset":12720,"byteLength":1332},{"buffer":0,"byteOffset":14052,"byteLength":448},{"buffer":0,"byteOffset":14500,"byteLength":1792},{"buffer":0,"byteOffset":16292,"byteLength":16},{"buffer":0,"byteOffset":16308,"byteLength":48},{"buffer":0,"byteOffset":16356,"byteLength":448},{"buffer":0,"byteOffset":16804,"byteLength":1792},{"buffer":0,"byteOffset":18596,"byteLength":16},{"buffer":0,"byteOffset":18612,"byteLength":48},{"buffer":0,"byteOffset":18660,"byteLength":448},{"buffer":0,"byteOffset":19108,"byteLength":1792},{"buffer":0,"byteOffset":20900,"byteLength":16},{"buffer":0,"byteOffset":20916,"byteLength":48},{"buffer":0,"byteOffset":20964,"byteLength":16},{"buffer":0,"byteOffset":20980,"byteLength":48},{"buffer":0,"byteOffset":21028,"byteLength":448},{"buffer":0,"byteOffset":21476,"byteLength":1792},{"buffer":0,"byteOffset":23268,"byteLength":16},{"buffer":0,"byteOffset":23284,"byteLength":48}],"buffers":[{"byteLength":23332,"uri":"data:application/octet-stream;base64,"}],"accessors":[{"bufferView":0,"componentType":5126,"count":24,"max":[0.3125,0.625,0.3125],"min":[-0.3125,0,-0.3125],"type":"VEC3"},{"bufferView":1,"componentType":5126,"count":24,"max":[1,1,1],"min":[-1,-1,-1],"type":"VEC3"},{"bufferView":2,"componentType":5126,"count":24,"max":[0.5,0.5],"min":[0,0],"type":"VEC2"},{"bufferView":3,"componentType":5123,"count":36,"max":[23],"min":[0],"type":"SCALAR"},{"bufferView":4,"componentType":5126,"count":24,"max":[5.551115123125783e-17,0.0625,0.03125],"min":[-0.25,-0.1875,-0.03125],"type":"VEC3"},{"bufferView":5,"componentType":5126,"count":24,"max":[1,1,1],"min":[-1,-1,-1],"type":"VEC3"},{"bufferView":6,"componentType":5126,"count":24,"max":[0.484375,0.515625],"min":[0.171875,0.171875],"type":"VEC2"},{"bufferView":7,"componentType":5123,"count":36,"max":[23],"min":[0],"type":"SCALAR"},{"bufferView":8,"componentType":5126,"count":24,"max":[0.12343750149011612,0.12343750149011612,0.02968749962747097],"min":[-0.12343750149011612,-0.12343750149011612,-0.02968749962747097],"type":"VEC3"},{"bufferView":9,"componentType":5126,"count":24,"max":[1,1,1],"min":[-1,-1,-1],"type":"VEC3"},{"bufferView":10,"componentType":5126,"count":24,"max":[0.53125,0.53125],"min":[0.28125,0.328125],"type":"VEC2"},{"bufferView":11,"componentType":5123,"count":36,"max":[23],"min":[0],"type":"SCALAR"},{"bufferView":12,"componentType":5126,"count":24,"max":[0.125,0.125,0.0625],"min":[-0.0625,0,-0.125],"type":"VEC3"},{"bufferView":13,"componentType":5126,"count":24,"max":[1,1,1],"min":[-1,-1,-1],"type":"VEC3"},{"bufferView":14,"componentType":5126,"count":24,"max":[0.46875,0.453125],"min":[0.28125,0.171875],"type":"VEC2"},{"bufferView":15,"componentType":5123,"count":36,"max":[23],"min":[0],"type":"SCALAR"},{"bufferView":16,"componentType":5126,"count":24,"max":[0.0625,0.125,0.0625],"min":[-0.125,0,-0.125],"type":"VEC3"},{"bufferView":17,"componentType":5126,"count":24,"max":[1,1,1],"min":[-1,-1,-1],"type":"VEC3"},{"bufferView":18,"componentType":5126,"count":24,"max":[0.46875,0.453125],"min":[0.28125,0.171875],"type":"VEC2"},{"bufferView":19,"componentType":5123,"count":36,"max":[23],"min":[0],"type":"SCALAR"},{"bufferView":20,"componentType":5126,"count":20,"max":[0,0.59375,-0.3125],"min":[-0.34375,0.25,-0.3125],"type":"VEC3"},{"bufferView":21,"componentType":5126,"count":20,"max":[1,0,0],"min":[0,0,-1],"type":"VEC3"},{"bufferView":22,"componentType":5126,"count":20,"max":[0.265625,0.4375],"min":[0,0],"type":"VEC2"},{"bufferView":23,"componentType":5123,"count":30,"max":[19],"min":[0],"type":"SCALAR"},{"bufferView":24,"componentType":5126,"count":24,"max":[0.25,0.0625,0.03125],"min":[-5.551115123125783e-17,-0.1875,-0.03125],"type":"VEC3"},{"bufferView":25,"componentType":5126,"count":24,"max":[1,1,1],"min":[-1,-1,-1],"type":"VEC3"},{"bufferView":26,"componentType":5126,"count":24,"max":[0.484375,0.515625],"min":[0.171875,0.171875],"type":"VEC2"},{"bufferView":27,"componentType":5123,"count":36,"max":[23],"min":[0],"type":"SCALAR"},{"bufferView":28,"componentType":5126,"count":24,"max":[0.12343750149011612,0.12343750149011612,0.02968749962747097],"min":[-0.12343750149011612,-0.12343750149011612,-0.02968749962747097],"type":"VEC3"},{"bufferView":29,"componentType":5126,"count":24,"max":[1,1,1],"min":[-1,-1,-1],"type":"VEC3"},{"bufferView":30,"componentType":5126,"count":24,"max":[0.53125,0.53125],"min":[0.28125,0.328125],"type":"VEC2"},{"bufferView":31,"componentType":5123,"count":36,"max":[23],"min":[0],"type":"SCALAR"},{"bufferView":32,"componentType":5126,"count":24,"max":[0.125,0.125,0.0625],"min":[-0.0625,0,-0.125],"type":"VEC3"},{"bufferView":33,"componentType":5126,"count":24,"max":[1,1,1],"min":[-1,-1,-1],"type":"VEC3"},{"bufferView":34,"componentType":5126,"count":24,"max":[0.46875,0.453125],"min":[0.28125,0.171875],"type":"VEC2"},{"bufferView":35,"componentType":5123,"count":36,"max":[23],"min":[0],"type":"SCALAR"},{"bufferView":36,"componentType":5126,"count":24,"max":[0.0625,0.125,0.0625],"min":[-0.125,0,-0.125],"type":"VEC3"},{"bufferView":37,"componentType":5126,"count":24,"max":[1,1,1],"min":[-1,-1,-1],"type":"VEC3"},{"bufferView":38,"componentType":5126,"count":24,"max":[0.46875,0.453125],"min":[0.28125,0.171875],"type":"VEC2"},{"bufferView":39,"componentType":5123,"count":36,"max":[23],"min":[0],"type":"SCALAR"},{"bufferView":40,"componentType":5126,"count":112,"max":[3.125],"min":[0],"type":"SCALAR"},{"bufferView":41,"componentType":5126,"count":112,"max":[0.008916073478758335,0,0.008916073478758335,1],"min":[-0.008916073478758335,-0.00007950268627610058,-0.008916073478758335,0.9999204874038696],"type":"VEC4"},{"bufferView":42,"componentType":5126,"count":111,"max":[3.125],"min":[0],"type":"SCALAR"},{"bufferView":43,"componentType":5126,"count":111,"max":[0,0.125,0],"min":[0,0.0625,0],"type":"VEC3"},{"bufferView":44,"componentType":5126,"count":111,"max":[3.125],"min":[0],"type":"SCALAR"},{"bufferView":45,"componentType":5126,"count":111,"max":[1,1.0499999523162842,1],"min":[1,1,1],"type":"VEC3"},{"bufferView":46,"componentType":5126,"count":112,"max":[3.125],"min":[0],"type":"SCALAR"},{"bufferView":47,"componentType":5126,"count":112,"max":[0.06547471880912781,0,0,1],"min":[-0.025130094960331917,0,0,0.9978542327880859],"type":"VEC4"},{"bufferView":48,"componentType":5126,"count":4,"max":[3.125],"min":[0],"type":"SCALAR"},{"bufferView":49,"componentType":5126,"count":4,"max":[-0.27812498807907104,0.15944437682628632,-0.1632356196641922],"min":[-0.27812498807907104,0.15944437682628632,-0.1632356196641922],"type":"VEC3"},{"bufferView":50,"componentType":5126,"count":112,"max":[3.125],"min":[0],"type":"SCALAR"},{"bufferView":51,"componentType":5126,"count":112,"max":[0.06547471880912781,0,0,1],"min":[-0.025130094960331917,0,0,0.9978542327880859],"type":"VEC4"},{"bufferView":52,"componentType":5126,"count":4,"max":[3.125],"min":[0],"type":"SCALAR"},{"bufferView":53,"componentType":5126,"count":4,"max":[-0.15625,-0.3125,0.15625],"min":[-0.15625,-0.3125,0.15625],"type":"VEC3"},{"bufferView":54,"componentType":5126,"count":112,"max":[3.125],"min":[0],"type":"SCALAR"},{"bufferView":55,"componentType":5126,"count":112,"max":[0.06547471880912781,0,0,1],"min":[-0.025130094960331917,0,0,0.9978542327880859],"type":"VEC4"},{"bufferView":56,"componentType":5126,"count":4,"max":[3.125],"min":[0],"type":"SCALAR"},{"bufferView":57,"componentType":5126,"count":4,"max":[0.15625,-0.3125,0.15625],"min":[0.15625,-0.3125,0.15625],"type":"VEC3"},{"bufferView":58,"componentType":5126,"count":4,"max":[0.7083333134651184],"min":[0.4583333432674408],"type":"SCALAR"},{"bufferView":59,"componentType":5126,"count":4,"max":[1,1,1],"min":[1,0,1],"type":"VEC3"},{"bufferView":60,"componentType":5126,"count":112,"max":[3.125],"min":[0],"type":"SCALAR"},{"bufferView":61,"componentType":5126,"count":112,"max":[0.06547471880912781,0,0,1],"min":[-0.025130094960331917,0,0,0.9978542327880859],"type":"VEC4"},{"bufferView":62,"componentType":5126,"count":4,"max":[3.125],"min":[0],"type":"SCALAR"},{"bufferView":63,"componentType":5126,"count":4,"max":[0.27812498807907104,0.15944437682628632,-0.1632356196641922],"min":[0.27812498807907104,0.15944437682628632,-0.1632356196641922],"type":"VEC3"}],"materials":[{"pbrMetallicRoughness":{"metallicFactor":0,"roughnessFactor":1,"baseColorTexture":{"index":0}},"alphaMode":"MASK","alphaCutoff":0.05,"doubleSided":true}],"textures":[{"sampler":0,"source":0,"name":"cube-pet"}],"samplers":[{"magFilter":9728,"minFilter":9728,"wrapS":33071,"wrapT":33071}],"images":[{"mimeType":"image/png","uri":"data:image/png;base64,"}],"meshes":[{"primitives":[{"mode":4,"attributes":{"POSITION":0,"NORMAL":1,"TEXCOORD_0":2},"indices":3,"material":0}]},{"primitives":[{"mode":4,"attributes":{"POSITION":4,"NORMAL":5,"TEXCOORD_0":6},"indices":7,"material":0}]},{"primitives":[{"mode":4,"attributes":{"POSITION":8,"NORMAL":9,"TEXCOORD_0":10},"indices":11,"material":0}]},{"primitives":[{"mode":4,"attributes":{"POSITION":12,"NORMAL":13,"TEXCOORD_0":14},"indices":15,"material":0}]},{"primitives":[{"mode":4,"attributes":{"POSITION":16,"NORMAL":17,"TEXCOORD_0":18},"indices":19,"material":0}]},{"primitives":[{"mode":4,"attributes":{"POSITION":20,"NORMAL":21,"TEXCOORD_0":22},"indices":23,"material":0}]},{"primitives":[{"mode":4,"attributes":{"POSITION":24,"NORMAL":25,"TEXCOORD_0":26},"indices":27,"material":0}]},{"primitives":[{"mode":4,"attributes":{"POSITION":28,"NORMAL":29,"TEXCOORD_0":30},"indices":31,"material":0}]},{"primitives":[{"mode":4,"attributes":{"POSITION":32,"NORMAL":33,"TEXCOORD_0":34},"indices":35,"material":0}]},{"primitives":[{"mode":4,"attributes":{"POSITION":36,"NORMAL":37,"TEXCOORD_0":38},"indices":39,"material":0}]}],"animations":[{"name":"idle","samplers":[{"input":40,"output":41,"interpolation":"LINEAR"},{"input":42,"output":43,"interpolation":"LINEAR"},{"input":44,"output":45,"interpolation":"LINEAR"},{"input":46,"output":47,"interpolation":"LINEAR"},{"input":48,"output":49,"interpolation":"LINEAR"},{"input":50,"output":51,"interpolation":"LINEAR"},{"input":52,"output":53,"interpolation":"LINEAR"},{"input":54,"output":55,"interpolation":"LINEAR"},{"input":56,"output":57,"interpolation":"LINEAR"},{"input":58,"output":59,"interpolation":"LINEAR"},{"input":60,"output":61,"interpolation":"LINEAR"},{"input":62,"output":63,"interpolation":"LINEAR"}],"channels":[{"sampler":0,"target":{"node":18,"path":"rotation"}},{"sampler":1,"target":{"node":18,"path":"translation"}},{"sampler":2,"target":{"node":18,"path":"scale"}},{"sampler":3,"target":{"node":3,"path":"rotation"}},{"sampler":4,"target":{"node":3,"path":"translation"}},{"sampler":5,"target":{"node":5,"path":"rotation"}},{"sampler":6,"target":{"node":5,"path":"translation"}},{"sampler":7,"target":{"node":7,"path":"rotation"}},{"sampler":8,"target":{"node":7,"path":"translation"}},{"sampler":9,"target":{"node":9,"path":"scale"}},{"sampler":10,"target":{"node":12,"path":"rotation"}},{"sampler":11,"target":{"node":12,"path":"translation"}}]}]}