{"asset":{"version":"2.0","generator":"Blockbench 5.0.7 glTF exporter"},"scenes":[{"nodes":[7],"name":"blockbench_export"}],"scene":0,"nodes":[{"translation":[0,0.11875000000000002,0],"name":"cube_outline","mesh":0},{"translation":[0,-0.3125,0],"name":"cube","mesh":1},{"translation":[0.171875,-0.421875,0.3125],"name":"cube","mesh":2},{"translation":[-0.171875,0.046875,-0.3140625],"name":"left_eye","children":[2]},{"translation":[-0.171875,-0.421875,0.3125],"name":"cube","mesh":3},{"translation":[0.171875,0.046875,-0.3140625],"name":"right_eye","children":[4]},{"translation":[0,0.4375,0],"name":"head","children":[1,3,5]},{"translation":[0,-0.125,0],"name":"cube-pet","children":[0,6]}],"bufferViews":[{"buffer":0,"byteOffset":0,"byteLength":288,"target":34962,"byteStride":12},{"buffer":0,"byteOffset":288,"byteLength":288,"target":34962,"byteStride":12},{"buffer":0,"byteOffset":576,"byteLength":192,"target":34962,"byteStride":8},{"buffer":0,"byteOffset":768,"byteLength":72,"target":34963},{"buffer":0,"byteOffset":840,"byteLength":288,"target":34962,"byteStride":12},{"buffer":0,"byteOffset":1128,"byteLength":288,"target":34962,"byteStride":12},{"buffer":0,"byteOffset":1416,"byteLength":192,"target":34962,"byteStride":8},{"buffer":0,"byteOffset":1608,"byteLength":72,"target":34963},{"buffer":0,"byteOffset":1680,"byteLength":240,"target":34962,"byteStride":12},{"buffer":0,"byteOffset":1920,"byteLength":240,"target":34962,"byteStride":12},{"buffer":0,"byteOffset":2160,"byteLength":160,"target":34962,"byteStride":8},{"buffer":0,"byteOffset":2320,"byteLength":60,"target":34963},{"buffer":0,"byteOffset":2380,"byteLength":240,"target":34962,"byteStride":12},{"buffer":0,"byteOffset":2620,"byteLength":240,"target":34962,"byteStride":12},{"buffer":0,"byteOffset":2860,"byteLength":160,"target":34962,"byteStride":8},{"buffer":0,"byteOffset":3020,"byteLength":60,"target":34963},{"buffer":0,"byteOffset":3080,"byteLength":448},{"buffer":0,"byteOffset":3528,"byteLength":1792},{"buffer":0,"byteOffset":5320,"byteLength":444},{"buffer":0,"byteOffset":5764,"byteLength":1332},{"buffer":0,"byteOffset":7096,"byteLength":444},{"buffer":0,"byteOffset":7540,"byteLength":1332},{"buffer":0,"byteOffset":8872,"byteLength":16},{"buffer":0,"byteOffset":8888,"byteLength":48},{"buffer":0,"byteOffset":8936,"byteLength":16},{"buffer":0,"byteOffset":8952,"byteLength":48}],"buffers":[{"byteLength":9000,"uri":"data:application/octet-stream;base64,"}],"accessors":[{"bufferView":0,"componentType":5126,"count":24,"max":[0.33149999380111694,0.6502500176429749,0.33149999380111694],"min":[-0.33149999380111694,-0.012749999761581421,-0.33149999380111694],"type":"VEC3"},{"bufferView":1,"componentType":5126,"count":24,"max":[1,1,1],"min":[-1,-1,-1],"type":"VEC3"},{"bufferView":2,"componentType":5126,"count":24,"max":[0.15625,0.828125],"min":[0,0.671875],"type":"VEC2"},{"bufferView":3,"componentType":5123,"count":36,"max":[23],"min":[0],"type":"SCALAR"},{"bufferView":4,"componentType":5126,"count":24,"max":[0.3125,0.625,0.3125],"min":[-0.3125,0,-0.3125],"type":"VEC3"},{"bufferView":5,"componentType":5126,"count":24,"max":[1,1,1],"min":[-1,-1,-1],"type":"VEC3"},{"bufferView":6,"componentType":5126,"count":24,"max":[0.5,0.5],"min":[0,0],"type":"VEC2"},{"bufferView":7,"componentType":5123,"count":36,"max":[23],"min":[0],"type":"SCALAR"},{"bufferView":8,"componentType":5126,"count":20,"max":[-0.0625,0.53125,-0.3125],"min":[-0.28125,0.3125,-0.3125],"type":"VEC3"},{"bufferView":9,"componentType":5126,"count":20,"max":[1,0,0],"min":[0,0,-1],"type":"VEC3"},{"bufferView":10,"componentType":5126,"count":20,"max":[0.78125,0.5000500082969666],"min":[0.09375,0.03125],"type":"VEC2"},{"bufferView":11,"componentType":5123,"count":30,"max":[19],"min":[0],"type":"SCALAR"},{"bufferView":12,"componentType":5126,"count":20,"max":[0.28125,0.53125,-0.3125],"min":[0.0625,0.3125,-0.3125],"type":"VEC3"},{"bufferView":13,"componentType":5126,"count":20,"max":[1,0,0],"min":[0,0,-1],"type":"VEC3"},{"bufferView":14,"componentType":5126,"count":20,"max":[0.78125,0.5000500082969666],"min":[0.09375,0.03125],"type":"VEC2"},{"bufferView":15,"componentType":5123,"count":30,"max":[19],"min":[0],"type":"SCALAR"},{"bufferView":16,"componentType":5126,"count":112,"max":[3.125],"min":[0],"type":"SCALAR"},{"bufferView":17,"componentType":5126,"count":112,"max":[0.008916073478758335,0,0.008916073478758335,1],"min":[-0.008916073478758335,-0.00007950268627610058,-0.008916073478758335,0.9999204874038696],"type":"VEC4"},{"bufferView":18,"componentType":5126,"count":111,"max":[3.125],"min":[0],"type":"SCALAR"},{"bufferView":19,"componentType":5126,"count":111,"max":[0,0,0],"min":[0,-0.0625,0],"type":"VEC3"},{"bufferView":20,"componentType":5126,"count":111,"max":[3.125],"min":[0],"type":"SCALAR"},{"bufferView":21,"componentType":5126,"count":111,"max":[1,1.100000023841858,1],"min":[1,0.8999999761581421,1],"type":"VEC3"},{"bufferView":22,"componentType":5126,"count":4,"max":[0.7083333134651184],"min":[0.4583333432674408],"type":"SCALAR"},{"bufferView":23,"componentType":5126,"count":4,"max":[1,1,1],"min":[1,0,1],"type":"VEC3"},{"bufferView":24,"componentType":5126,"count":4,"max":[0.7083333134651184],"min":[0.4583333432674408],"type":"SCALAR"},{"bufferView":25,"componentType":5126,"count":4,"max":[1,1,1],"min":[1,0,1],"type":"VEC3"}],"materials":[{"pbrMetallicRoughness":{"metallicFactor":0,"roughnessFactor":1,"baseColorTexture":{"index":0}},"alphaMode":"MASK","alphaCutoff":0.05}],"textures":[{"sampler":0,"source":0,"name":"cube-pet"}],"samplers":[{"magFilter":9728,"minFilter":9728,"wrapS":33071,"wrapT":33071}],"images":[{"mimeType":"image/png","uri":"data:image/png;base64,"}],"meshes":[{"primitives":[{"mode":4,"attributes":{"POSITION":0,"NORMAL":1,"TEXCOORD_0":2},"indices":3,"material":0}]},{"primitives":[{"mode":4,"attributes":{"POSITION":4,"NORMAL":5,"TEXCOORD_0":6},"indices":7,"material":0}]},{"primitives":[{"mode":4,"attributes":{"POSITION":8,"NORMAL":9,"TEXCOORD_0":10},"indices":11,"material":0}]},{"primitives":[{"mode":4,"attributes":{"POSITION":12,"NORMAL":13,"TEXCOORD_0":14},"indices":15,"material":0}]}],"animations":[{"name":"idle","samplers":[{"input":16,"output":17,"interpolation":"LINEAR"},{"input":18,"output":19,"interpolation":"LINEAR"},{"input":20,"output":21,"interpolation":"LINEAR"},{"input":22,"output":23,"interpolation":"LINEAR"},{"input":24,"output":25,"interpolation":"LINEAR"}],"channels":[{"sampler":0,"target":{"node":7,"path":"rotation"}},{"sampler":1,"target":{"node":7,"path":"translation"}},{"sampler":2,"target":{"node":7,"path":"scale"}},{"sampler":3,"target":{"node":3,"path":"scale"}},{"sampler":4,"target":{"node":5,"path":"scale"}}]}]}