{"asset":{"version":"2.0","generator":"Blockbench 5.0.7 glTF exporter"},"scenes":[{"nodes":[6],"name":"blockbench_export"}],"scene":0,"nodes":[{"translation":[0,-0.3125,0],"name":"cube","mesh":0},{"translation":[0.3125,-0.3125,0],"name":"cube","mesh":1},{"translation":[-0.3125,0.0625,0],"name":"left_wing","children":[1]},{"translation":[-0.3125,-0.3125,0],"name":"cube","mesh":2},{"translation":[0.3125,0.0625,0],"name":"right_wing","children":[3]},{"translation":[0,0.4375,0],"name":"head","children":[0,2,4]},{"name":"cube-pet","children":[5]}],"bufferViews":[{"buffer":0,"byteOffset":0,"byteLength":288,"target":34962,"byteStride":12},{"buffer":0,"byteOffset":288,"byteLength":288,"target":34962,"byteStride":12},{"buffer":0,"byteOffset":576,"byteLength":192,"target":34962,"byteStride":8},{"buffer":0,"byteOffset":768,"byteLength":72,"target":34963},{"buffer":0,"byteOffset":840,"byteLength":240,"target":34962,"byteStride":12},{"buffer":0,"byteOffset":1080,"byteLength":240,"target":34962,"byteStride":12},{"buffer":0,"byteOffset":1320,"byteLength":160,"target":34962,"byteStride":8},{"buffer":0,"byteOffset":1480,"byteLength":60,"target":34963},{"buffer":0,"byteOffset":1540,"byteLength":240,"target":34962,"byteStride":12},{"buffer":0,"byteOffset":1780,"byteLength":240,"target":34962,"byteStride":12},{"buffer":0,"byteOffset":2020,"byteLength":160,"target":34962,"byteStride":8},{"buffer":0,"byteOffset":2180,"byteLength":60,"target":34963},{"buffer":0,"byteOffset":2240,"byteLength":448},{"buffer":0,"byteOffset":2688,"byteLength":1792},{"buffer":0,"byteOffset":4480,"byteLength":444},{"buffer":0,"byteOffset":4924,"byteLength":1332},{"buffer":0,"byteOffset":6256,"byteLength":444},{"buffer":0,"byteOffset":6700,"byteLength":1332},{"buffer":0,"byteOffset":8032,"byteLength":440},{"buffer":0,"byteOffset":8472,"byteLength":1760},{"buffer":0,"byteOffset":10232,"byteLength":440},{"buffer":0,"byteOffset":10672,"byteLength":1760}],"buffers":[{"byteLength":12432,"uri":"data:application/octet-stream;base64,"}],"accessors":[{"bufferView":0,"componentType":5126,"count":24,"max":[0.3125,0.625,0.3125],"min":[-0.3125,0,-0.3125],"type":"VEC3"},{"bufferView":1,"componentType":5126,"count":24,"max":[1,1,1],"min":[-1,-1,-1],"type":"VEC3"},{"bufferView":2,"componentType":5126,"count":24,"max":[0.5625,0.5625],"min":[0,0],"type":"VEC2"},{"bufferView":3,"componentType":5123,"count":36,"max":[23],"min":[0],"type":"SCALAR"},{"bufferView":4,"componentType":5126,"count":20,"max":[-0.3125,0.75,0],"min":[-1.0625,-0.125,0],"type":"VEC3"},{"bufferView":5,"componentType":5126,"count":20,"max":[1,0,0],"min":[0,0,-1],"type":"VEC3"},{"bufferView":6,"componentType":5126,"count":20,"max":[0.59375,0.625],"min":[0,0],"type":"VEC2"},{"bufferView":7,"componentType":5123,"count":30,"max":[19],"min":[0],"type":"SCALAR"},{"bufferView":8,"componentType":5126,"count":20,"max":[1.0625,0.75,0],"min":[0.3125,-0.125,0],"type":"VEC3"},{"bufferView":9,"componentType":5126,"count":20,"max":[1,0,0],"min":[0,0,-1],"type":"VEC3"},{"bufferView":10,"componentType":5126,"count":20,"max":[0.59375,0.625],"min":[0,0],"type":"VEC2"},{"bufferView":11,"componentType":5123,"count":30,"max":[19],"min":[0],"type":"SCALAR"},{"bufferView":12,"componentType":5126,"count":112,"max":[3.125],"min":[0],"type":"SCALAR"},{"bufferView":13,"componentType":5126,"count":112,"max":[0.008916071616113186,0,0.008916075341403484,1],"min":[-0.008916075341403484,-0.00007950272265588865,-0.008916071616113186,0.9999204874038696],"type":"VEC4"},{"bufferView":14,"componentType":5126,"count":111,"max":[3.125],"min":[0],"type":"SCALAR"},{"bufferView":15,"componentType":5126,"count":111,"max":[0,0.125,0],"min":[0,0.0625,0],"type":"VEC3"},{"bufferView":16,"componentType":5126,"count":111,"max":[3.125],"min":[0],"type":"SCALAR"},{"bufferView":17,"componentType":5126,"count":111,"max":[1,1.0499999523162842,1],"min":[1,1,1],"type":"VEC3"},{"bufferView":18,"componentType":5126,"count":110,"max":[3.116666555404663],"min":[0],"type":"SCALAR"},{"bufferView":19,"componentType":5126,"count":110,"max":[0,0,0.08715574443340302,1],"min":[0,0,-0.08715574443340302,0.9961947202682495],"type":"VEC4"},{"bufferView":20,"componentType":5126,"count":110,"max":[3.116666555404663],"min":[0],"type":"SCALAR"},{"bufferView":21,"componentType":5126,"count":110,"max":[0,0,0.08715574443340302,1],"min":[0,0,-0.08715574443340302,0.9961947202682495],"type":"VEC4"}],"materials":[{"pbrMetallicRoughness":{"metallicFactor":0,"roughnessFactor":1,"baseColorTexture":{"index":0}},"alphaMode":"MASK","alphaCutoff":0.05,"doubleSided":true}],"textures":[{"sampler":0,"source":0,"name":"cube-pet"}],"samplers":[{"magFilter":9728,"minFilter":9728,"wrapS":33071,"wrapT":33071}],"images":[{"mimeType":"image/png","uri":"data:image/png;base64,"}],"meshes":[{"primitives":[{"mode":4,"attributes":{"POSITION":0,"NORMAL":1,"TEXCOORD_0":2},"indices":3,"material":0}]},{"primitives":[{"mode":4,"attributes":{"POSITION":4,"NORMAL":5,"TEXCOORD_0":6},"indices":7,"material":0}]},{"primitives":[{"mode":4,"attributes":{"POSITION":8,"NORMAL":9,"TEXCOORD_0":10},"indices":11,"material":0}]}],"animations":[{"name":"idle","samplers":[{"input":12,"output":13,"interpolation":"LINEAR"},{"input":14,"output":15,"interpolation":"LINEAR"},{"input":16,"output":17,"interpolation":"LINEAR"},{"input":18,"output":19,"interpolation":"LINEAR"},{"input":20,"output":21,"interpolation":"LINEAR"}],"channels":[{"sampler":0,"target":{"node":6,"path":"rotation"}},{"sampler":1,"target":{"node":6,"path":"translation"}},{"sampler":2,"target":{"node":6,"path":"scale"}},{"sampler":3,"target":{"node":2,"path":"rotation"}},{"sampler":4,"target":{"node":4,"path":"rotation"}}]}]}