{"asset":{"version":"2.0","generator":"Blockbench 5.0.7 glTF exporter"},"scenes":[{"nodes":[24],"name":"blockbench_export"}],"scene":0,"nodes":[{"translation":[0,-0.3125,0],"name":"cube","mesh":0},{"translation":[0,0.3125,0],"name":"cube","mesh":1},{"translation":[-0.03125,-0.125,0.03125],"name":"cube","mesh":2},{"translation":[-0.15625,-0.3125,-0.09375],"name":"left_arm","children":[2]},{"translation":[0,-0.3125,0.1875],"name":"cube","mesh":3},{"translation":[0,-0.4375,0.1875],"name":"cube","mesh":4},{"translation":[0,-0.5625,0.1875],"name":"cube","mesh":5},{"rotation":[-0.5187732581605214,0,0,0.8549118706729466],"translation":[0,-0.109375,0.265625],"name":"tail","children":[4,5,6]},{"translation":[0,-0.125,0],"name":"cube","mesh":6},{"translation":[-0.3125,0.15944437499999997,-0.163235625],"name":"left_ear","children":[8]},{"translation":[0.03125,-0.125,0.03125],"name":"cube","mesh":7},{"translation":[0.15625,-0.3125,-0.09375],"name":"right_arm","children":[10]},{"translation":[-0.03125,-0.125,0.03125],"name":"cube","mesh":8},{"translation":[-0.15625,-0.3125,0.15625],"name":"left_leg","children":[12]},{"translation":[0.03125,-0.125,0.03125],"name":"cube","mesh":9},{"translation":[0.15625,-0.3125,0.15625],"name":"right_leg","children":[14]},{"translation":[0.171875,-0.421875,0.3125],"name":"cube","mesh":10},{"translation":[-0.171875,0.109375,-0.3140625],"name":"left_eye","children":[16]},{"translation":[-0.171875,-0.421875,0.3125],"name":"cube","mesh":11},{"translation":[0.171875,0.109375,-0.3140625],"name":"right_eye","children":[18]},{"translation":[0,-0.125,0],"name":"cube","mesh":12},{"translation":[0.3125,0.15944437499999997,-0.163235625],"name":"right_ear","children":[20]},{"translation":[0,-0.21874999999999997,-0.625],"name":"cube","mesh":13},{"translation":[0,0.4375,0],"name":"head","children":[0,1,3,7,9,11,13,15,17,19,21,22]},{"name":"cube-pet","children":[23]}],"bufferViews":[{"buffer":0,"byteOffset":0,"byteLength":288,"target":34962,"byteStride":12},{"buffer":0,"byteOffset":288,"byteLength":288,"target":34962,"byteStride":12},{"buffer":0,"byteOffset":576,"byteLength":192,"target":34962,"byteStride":8},{"buffer":0,"byteOffset":768,"byteLength":72,"target":34963},{"buffer":0,"byteOffset":840,"byteLength":240,"target":34962,"byteStride":12},{"buffer":0,"byteOffset":1080,"byteLength":240,"target":34962,"byteStride":12},{"buffer":0,"byteOffset":1320,"byteLength":160,"target":34962,"byteStride":8},{"buffer":0,"byteOffset":1480,"byteLength":60,"target":34963},{"buffer":0,"byteOffset":1540,"byteLength":288,"target":34962,"byteStride":12},{"buffer":0,"byteOffset":1828,"byteLength":288,"target":34962,"byteStride":12},{"buffer":0,"byteOffset":2116,"byteLength":192,"target":34962,"byteStride":8},{"buffer":0,"byteOffset":2308,"byteLength":72,"target":34963},{"buffer":0,"byteOffset":2380,"byteLength":288,"target":34962,"byteStride":12},{"buffer":0,"byteOffset":2668,"byteLength":288,"target":34962,"byteStride":12},{"buffer":0,"byteOffset":2956,"byteLength":192,"target":34962,"byteStride":8},{"buffer":0,"byteOffset":3148,"byteLength":72,"target":34963},{"buffer":0,"byteOffset":3220,"byteLength":288,"target":34962,"byteStride":12},{"buffer":0,"byteOffset":3508,"byteLength":288,"target":34962,"byteStride":12},{"buffer":0,"byteOffset":3796,"byteLength":192,"target":34962,"byteStride":8},{"buffer":0,"byteOffset":3988,"byteLength":72,"target":34963},{"buffer":0,"byteOffset":4060,"byteLength":288,"target":34962,"byteStride":12},{"buffer":0,"byteOffset":4348,"byteLength":288,"target":34962,"byteStride":12},{"buffer":0,"byteOffset":4636,"byteLength":192,"target":34962,"byteStride":8},{"buffer":0,"byteOffset":4828,"byteLength":72,"target":34963},{"buffer":0,"byteOffset":4900,"byteLength":288,"target":34962,"byteStride":12},{"buffer":0,"byteOffset":5188,"byteLength":288,"target":34962,"byteStride":12},{"buffer":0,"byteOffset":5476,"byteLength":192,"target":34962,"byteStride":8},{"buffer":0,"byteOffset":5668,"byteLength":72,"target":34963},{"buffer":0,"byteOffset":5740,"byteLength":288,"target":34962,"byteStride":12},{"buffer":0,"byteOffset":6028,"byteLength":288,"target":34962,"byteStride":12},{"buffer":0,"byteOffset":6316,"byteLength":192,"target":34962,"byteStride":8},{"buffer":0,"byteOffset":6508,"byteLength":72,"target":34963},{"buffer":0,"byteOffset":6580,"byteLength":288,"target":34962,"byteStride":12},{"buffer":0,"byteOffset":6868,"byteLength":288,"target":34962,"byteStride":12},{"buffer":0,"byteOffset":7156,"byteLength":192,"target":34962,"byteStride":8},{"buffer":0,"byteOffset":7348,"byteLength":72,"target":34963},{"buffer":0,"byteOffset":7420,"byteLength":288,"target":34962,"byteStride":12},{"buffer":0,"byteOffset":7708,"byteLength":288,"target":34962,"byteStride":12},{"buffer":0,"byteOffset":7996,"byteLength":192,"target":34962,"byteStride":8},{"buffer":0,"byteOffset":8188,"byteLength":72,"target":34963},{"buffer":0,"byteOffset":8260,"byteLength":240,"target":34962,"byteStride":12},{"buffer":0,"byteOffset":8500,"byteLength":240,"target":34962,"byteStride":12},{"buffer":0,"byteOffset":8740,"byteLength":160,"target":34962,"byteStride":8},{"buffer":0,"byteOffset":8900,"byteLength":60,"target":34963},{"buffer":0,"byteOffset":8960,"byteLength":240,"target":34962,"byteStride":12},{"buffer":0,"byteOffset":9200,"byteLength":240,"target":34962,"byteStride":12},{"buffer":0,"byteOffset":9440,"byteLength":160,"target":34962,"byteStride":8},{"buffer":0,"byteOffset":9600,"byteLength":60,"target":34963},{"buffer":0,"byteOffset":9660,"byteLength":288,"target":34962,"byteStride":12},{"buffer":0,"byteOffset":9948,"byteLength":288,"target":34962,"byteStride":12},{"buffer":0,"byteOffset":10236,"byteLength":192,"target":34962,"byteStride":8},{"buffer":0,"byteOffset":10428,"byteLength":72,"target":34963},{"buffer":0,"byteOffset":10500,"byteLength":288,"target":34962,"byteStride":12},{"buffer":0,"byteOffset":10788,"byteLength":288,"target":34962,"byteStride":12},{"buffer":0,"byteOffset":11076,"byteLength":192,"target":34962,"byteStride":8},{"buffer":0,"byteOffset":11268,"byteLength":72,"target":34963},{"buffer":0,"byteOffset":11340,"byteLength":448},{"buffer":0,"byteOffset":11788,"byteLength":1792},{"buffer":0,"byteOffset":13580,"byteLength":444},{"buffer":0,"byteOffset":14024,"byteLength":1332},{"buffer":0,"byteOffset":15356,"byteLength":444},{"buffer":0,"byteOffset":15800,"byteLength":1332},{"buffer":0,"byteOffset":17132,"byteLength":448},{"buffer":0,"byteOffset":17580,"byteLength":1792},{"buffer":0,"byteOffset":19372,"byteLength":16},{"buffer":0,"byteOffset":19388,"byteLength":48},{"buffer":0,"byteOffset":19436,"byteLength":448},{"buffer":0,"byteOffset":19884,"byteLength":1792},{"buffer":0,"byteOffset":21676,"byteLength":16},{"buffer":0,"byteOffset":21692,"byteLength":48},{"buffer":0,"byteOffset":21740,"byteLength":448},{"buffer":0,"byteOffset":22188,"byteLength":1792},{"buffer":0,"byteOffset":23980,"byteLength":16},{"buffer":0,"byteOffset":23996,"byteLength":48},{"buffer":0,"byteOffset":24044,"byteLength":448},{"buffer":0,"byteOffset":24492,"byteLength":1792},{"buffer":0,"byteOffset":26284,"byteLength":16},{"buffer":0,"byteOffset":26300,"byteLength":48},{"buffer":0,"byteOffset":26348,"byteLength":448},{"buffer":0,"byteOffset":26796,"byteLength":1792},{"buffer":0,"byteOffset":28588,"byteLength":16},{"buffer":0,"byteOffset":28604,"byteLength":48},{"buffer":0,"byteOffset":28652,"byteLength":448},{"buffer":0,"byteOffset":29100,"byteLength":1792},{"buffer":0,"byteOffset":30892,"byteLength":16},{"buffer":0,"byteOffset":30908,"byteLength":48},{"buffer":0,"byteOffset":30956,"byteLength":16},{"buffer":0,"byteOffset":30972,"byteLength":48},{"buffer":0,"byteOffset":31020,"byteLength":16},{"buffer":0,"byteOffset":31036,"byteLength":48},{"buffer":0,"byteOffset":31084,"byteLength":448},{"buffer":0,"byteOffset":31532,"byteLength":1792},{"buffer":0,"byteOffset":33324,"byteLength":16},{"buffer":0,"byteOffset":33340,"byteLength":48}],"buffers":[{"byteLength":33388,"uri":"data:application/octet-stream;base64,"}],"accessors":[{"bufferView":0,"componentType":5126,"count":24,"max":[0.3125,0.625,0.3125],"min":[-0.3125,0,-0.3125],"type":"VEC3"},{"bufferView":1,"componentType":5126,"count":24,"max":[1,1,1],"min":[-1,-1,-1],"type":"VEC3"},{"bufferView":2,"componentType":5126,"count":24,"max":[0.5,0.5],"min":[0,0],"type":"VEC2"},{"bufferView":3,"componentType":5123,"count":36,"max":[23],"min":[0],"type":"SCALAR"},{"bufferView":4,"componentType":5126,"count":20,"max":[0.1875,0.25,-0.3125],"min":[-0.1875,0,-0.3125],"type":"VEC3"},{"bufferView":5,"componentType":5126,"count":20,"max":[1,0,0],"min":[0,0,-1],"type":"VEC3"},{"bufferView":6,"componentType":5126,"count":20,"max":[0.6484375,0.5000500082969666],"min":[0.0625,0.15625],"type":"VEC2"},{"bufferView":7,"componentType":5123,"count":30,"max":[19],"min":[0],"type":"SCALAR"},{"bufferView":8,"componentType":5126,"count":24,"max":[0.125,0.125,0.0625],"min":[-0.0625,0,-0.125],"type":"VEC3"},{"bufferView":9,"componentType":5126,"count":24,"max":[1,1,1],"min":[-1,-1,-1],"type":"VEC3"},{"bufferView":10,"componentType":5126,"count":24,"max":[0.5625,0.546875],"min":[0,0],"type":"VEC2"},{"bufferView":11,"componentType":5123,"count":36,"max":[23],"min":[0],"type":"SCALAR"},{"bufferView":12,"componentType":5126,"count":24,"max":[0.0625,0.375,0.3125],"min":[-0.0625,0.25,-0.1875],"type":"VEC3"},{"bufferView":13,"componentType":5126,"count":24,"max":[1,1,1],"min":[-1,-1,-1],"type":"VEC3"},{"bufferView":14,"componentType":5126,"count":24,"max":[0.3359375,0.890625],"min":[0.046875,0.609375],"type":"VEC2"},{"bufferView":15,"componentType":5123,"count":36,"max":[23],"min":[0],"type":"SCALAR"},{"bufferView":16,"componentType":5126,"count":24,"max":[0.0625,0.375,0.3125],"min":[-0.0625,0.25,0.1875],"type":"VEC3"},{"bufferView":17,"componentType":5126,"count":24,"max":[1,1,1],"min":[-1,-1,-1],"type":"VEC3"},{"bufferView":18,"componentType":5126,"count":24,"max":[0.3359375,0.8984375],"min":[0.046875,0.609375],"type":"VEC2"},{"bufferView":19,"componentType":5123,"count":36,"max":[23],"min":[0],"type":"SCALAR"},{"bufferView":20,"componentType":5126,"count":24,"max":[0.0625,0.375,0.3125],"min":[-0.0625,0.3125,0.125],"type":"VEC3"},{"bufferView":21,"componentType":5126,"count":24,"max":[1,1,1],"min":[-1,-1,-1],"type":"VEC3"},{"bufferView":22,"componentType":5126,"count":24,"max":[0.3828125,0.8828125],"min":[0.125,0.609375],"type":"VEC2"},{"bufferView":23,"componentType":5123,"count":36,"max":[23],"min":[0],"type":"SCALAR"},{"bufferView":24,"componentType":5126,"count":24,"max":[0,0.1875,0.03125],"min":[-0.25,-0.1875,-0.03125],"type":"VEC3"},{"bufferView":25,"componentType":5126,"count":24,"max":[1,1,1],"min":[-1,-1,-1],"type":"VEC3"},{"bufferView":26,"componentType":5126,"count":24,"max":[1,1],"min":[0.484375,0.46875],"type":"VEC2"},{"bufferView":27,"componentType":5123,"count":36,"max":[23],"min":[0],"type":"SCALAR"},{"bufferView":28,"componentType":5126,"count":24,"max":[0.0625,0.125,0.0625],"min":[-0.125,0,-0.125],"type":"VEC3"},{"bufferView":29,"componentType":5126,"count":24,"max":[1,1,1],"min":[-1,-1,-1],"type":"VEC3"},{"bufferView":30,"componentType":5126,"count":24,"max":[0.5625,0.546875],"min":[0,0],"type":"VEC2"},{"bufferView":31,"componentType":5123,"count":36,"max":[23],"min":[0],"type":"SCALAR"},{"bufferView":32,"componentType":5126,"count":24,"max":[0.125,0.125,0.0625],"min":[-0.0625,0,-0.125],"type":"VEC3"},{"bufferView":33,"componentType":5126,"count":24,"max":[1,1,1],"min":[-1,-1,-1],"type":"VEC3"},{"bufferView":34,"componentType":5126,"count":24,"max":[0.5625,0.546875],"min":[0,0],"type":"VEC2"},{"bufferView":35,"componentType":5123,"count":36,"max":[23],"min":[0],"type":"SCALAR"},{"bufferView":36,"componentType":5126,"count":24,"max":[0.0625,0.125,0.0625],"min":[-0.125,0,-0.125],"type":"VEC3"},{"bufferView":37,"componentType":5126,"count":24,"max":[1,1,1],"min":[-1,-1,-1],"type":"VEC3"},{"bufferView":38,"componentType":5126,"count":24,"max":[0.5625,0.546875],"min":[0,0],"type":"VEC2"},{"bufferView":39,"componentType":5123,"count":36,"max":[23],"min":[0],"type":"SCALAR"},{"bufferView":40,"componentType":5126,"count":20,"max":[-0.0625,0.53125,-0.3125],"min":[-0.28125,0.3125,-0.3125],"type":"VEC3"},{"bufferView":41,"componentType":5126,"count":20,"max":[1,0,0],"min":[0,0,-1],"type":"VEC3"},{"bufferView":42,"componentType":5126,"count":20,"max":[0.78125,0.5000500082969666],"min":[0.09375,0.03125],"type":"VEC2"},{"bufferView":43,"componentType":5123,"count":30,"max":[19],"min":[0],"type":"SCALAR"},{"bufferView":44,"componentType":5126,"count":20,"max":[0.28125,0.53125,-0.3125],"min":[0.0625,0.3125,-0.3125],"type":"VEC3"},{"bufferView":45,"componentType":5126,"count":20,"max":[1,0,0],"min":[0,0,-1],"type":"VEC3"},{"bufferView":46,"componentType":5126,"count":20,"max":[0.78125,0.5000500082969666],"min":[0.09375,0.03125],"type":"VEC2"},{"bufferView":47,"componentType":5123,"count":30,"max":[19],"min":[0],"type":"SCALAR"},{"bufferView":48,"componentType":5126,"count":24,"max":[0.25,0.1875,0.03125],"min":[0,-0.1875,-0.03125],"type":"VEC3"},{"bufferView":49,"componentType":5126,"count":24,"max":[1,1,1],"min":[-1,-1,-1],"type":"VEC3"},{"bufferView":50,"componentType":5126,"count":24,"max":[1,1],"min":[0.484375,0.46875],"type":"VEC2"},{"bufferView":51,"componentType":5123,"count":36,"max":[23],"min":[0],"type":"SCALAR"},{"bufferView":52,"componentType":5126,"count":24,"max":[0.15625,0.21875,0.3125],"min":[-0.15625,-2.7755575615628914e-17,0.1875],"type":"VEC3"},{"bufferView":53,"componentType":5126,"count":24,"max":[1,1,1],"min":[-1,-1,-1],"type":"VEC3"},{"bufferView":54,"componentType":5126,"count":24,"max":[0.515625,0.5625],"min":[0.171875,0.1796875],"type":"VEC2"},{"bufferView":55,"componentType":5123,"count":36,"max":[23],"min":[0],"type":"SCALAR"},{"bufferView":56,"componentType":5126,"count":112,"max":[3.125],"min":[0],"type":"SCALAR"},{"bufferView":57,"componentType":5126,"count":112,"max":[0.008916073478758335,0,0.008916073478758335,1],"min":[-0.008916073478758335,-0.00007950268627610058,-0.008916073478758335,0.9999204874038696],"type":"VEC4"},{"bufferView":58,"componentType":5126,"count":111,"max":[3.125],"min":[0],"type":"SCALAR"},{"bufferView":59,"componentType":5126,"count":111,"max":[0,0.125,0],"min":[0,0.0625,0],"type":"VEC3"},{"bufferView":60,"componentType":5126,"count":111,"max":[3.125],"min":[0],"type":"SCALAR"},{"bufferView":61,"componentType":5126,"count":111,"max":[1,1.0499999523162842,1],"min":[1,1,1],"type":"VEC3"},{"bufferView":62,"componentType":5126,"count":112,"max":[3.125],"min":[0],"type":"SCALAR"},{"bufferView":63,"componentType":5126,"count":112,"max":[0.06547471880912781,0,0,1],"min":[-0.025130094960331917,0,0,0.9978542327880859],"type":"VEC4"},{"bufferView":64,"componentType":5126,"count":4,"max":[3.125],"min":[0],"type":"SCALAR"},{"bufferView":65,"componentType":5126,"count":4,"max":[-0.15625,-0.3125,-0.09375],"min":[-0.15625,-0.3125,-0.09375],"type":"VEC3"},{"bufferView":66,"componentType":5126,"count":112,"max":[3.125],"min":[0],"type":"SCALAR"},{"bufferView":67,"componentType":5126,"count":112,"max":[-0.4616849720478058,0,0,0.8870439529418945],"min":[-0.5400934219360352,0,0,0.8416050672531128],"type":"VEC4"},{"bufferView":68,"componentType":5126,"count":4,"max":[3.125],"min":[0],"type":"SCALAR"},{"bufferView":69,"componentType":5126,"count":4,"max":[0,-0.109375,0.265625],"min":[0,-0.109375,0.265625],"type":"VEC3"},{"bufferView":70,"componentType":5126,"count":112,"max":[3.125],"min":[0],"type":"SCALAR"},{"bufferView":71,"componentType":5126,"count":112,"max":[0.06545902788639069,0.21700331568717957,0.00637835031375289,1],"min":[-0.024870051071047783,-0.006504582706838846,-0.005583420395851135,0.9759557247161865],"type":"VEC4"},{"bufferView":72,"componentType":5126,"count":4,"max":[3.125],"min":[0],"type":"SCALAR"},{"bufferView":73,"componentType":5126,"count":4,"max":[-0.3125,0.15944437682628632,-0.1632356196641922],"min":[-0.3125,0.15944437682628632,-0.1632356196641922],"type":"VEC3"},{"bufferView":74,"componentType":5126,"count":112,"max":[3.125],"min":[0],"type":"SCALAR"},{"bufferView":75,"componentType":5126,"count":112,"max":[0.06547471880912781,0,0,1],"min":[-0.025130094960331917,0,0,0.9978542327880859],"type":"VEC4"},{"bufferView":76,"componentType":5126,"count":4,"max":[3.125],"min":[0],"type":"SCALAR"},{"bufferView":77,"componentType":5126,"count":4,"max":[0.15625,-0.3125,-0.09375],"min":[0.15625,-0.3125,-0.09375],"type":"VEC3"},{"bufferView":78,"componentType":5126,"count":112,"max":[3.125],"min":[0],"type":"SCALAR"},{"bufferView":79,"componentType":5126,"count":112,"max":[0.06547471880912781,0,0,1],"min":[-0.025130094960331917,0,0,0.9978542327880859],"type":"VEC4"},{"bufferView":80,"componentType":5126,"count":4,"max":[3.125],"min":[0],"type":"SCALAR"},{"bufferView":81,"componentType":5126,"count":4,"max":[-0.15625,-0.3125,0.15625],"min":[-0.15625,-0.3125,0.15625],"type":"VEC3"},{"bufferView":82,"componentType":5126,"count":112,"max":[3.125],"min":[0],"type":"SCALAR"},{"bufferView":83,"componentType":5126,"count":112,"max":[0.06547471880912781,0,0,1],"min":[-0.025130094960331917,0,0,0.9978542327880859],"type":"VEC4"},{"bufferView":84,"componentType":5126,"count":4,"max":[3.125],"min":[0],"type":"SCALAR"},{"bufferView":85,"componentType":5126,"count":4,"max":[0.15625,-0.3125,0.15625],"min":[0.15625,-0.3125,0.15625],"type":"VEC3"},{"bufferView":86,"componentType":5126,"count":4,"max":[0.7083333134651184],"min":[0.4583333432674408],"type":"SCALAR"},{"bufferView":87,"componentType":5126,"count":4,"max":[1,1,1],"min":[1,0,1],"type":"VEC3"},{"bufferView":88,"componentType":5126,"count":4,"max":[0.7083333134651184],"min":[0.4583333432674408],"type":"SCALAR"},{"bufferView":89,"componentType":5126,"count":4,"max":[1,1,1],"min":[1,0,1],"type":"VEC3"},{"bufferView":90,"componentType":5126,"count":112,"max":[3.125],"min":[0],"type":"SCALAR"},{"bufferView":91,"componentType":5126,"count":112,"max":[0.06545902788639069,0.006504582706838846,0.005583420395851135,1],"min":[-0.024870051071047783,-0.21700331568717957,-0.00637835031375289,0.9759557247161865],"type":"VEC4"},{"bufferView":92,"componentType":5126,"count":4,"max":[3.125],"min":[0],"type":"SCALAR"},{"bufferView":93,"componentType":5126,"count":4,"max":[0.3125,0.15944437682628632,-0.1632356196641922],"min":[0.3125,0.15944437682628632,-0.1632356196641922],"type":"VEC3"}],"materials":[{"pbrMetallicRoughness":{"metallicFactor":0,"roughnessFactor":1,"baseColorTexture":{"index":0}},"alphaMode":"MASK","alphaCutoff":0.05,"doubleSided":true}],"textures":[{"sampler":0,"source":0,"name":"cube-pet"}],"samplers":[{"magFilter":9728,"minFilter":9728,"wrapS":33071,"wrapT":33071}],"images":[{"mimeType":"image/png","uri":"data:image/png;base64,"}],"meshes":[{"primitives":[{"mode":4,"attributes":{"POSITION":0,"NORMAL":1,"TEXCOORD_0":2},"indices":3,"material":0}]},{"primitives":[{"mode":4,"attributes":{"POSITION":4,"NORMAL":5,"TEXCOORD_0":6},"indices":7,"material":0}]},{"primitives":[{"mode":4,"attributes":{"POSITION":8,"NORMAL":9,"TEXCOORD_0":10},"indices":11,"material":0}]},{"primitives":[{"mode":4,"attributes":{"POSITION":12,"NORMAL":13,"TEXCOORD_0":14},"indices":15,"material":0}]},{"primitives":[{"mode":4,"attributes":{"POSITION":16,"NORMAL":17,"TEXCOORD_0":18},"indices":19,"material":0}]},{"primitives":[{"mode":4,"attributes":{"POSITION":20,"NORMAL":21,"TEXCOORD_0":22},"indices":23,"material":0}]},{"primitives":[{"mode":4,"attributes":{"POSITION":24,"NORMAL":25,"TEXCOORD_0":26},"indices":27,"material":0}]},{"primitives":[{"mode":4,"attributes":{"POSITION":28,"NORMAL":29,"TEXCOORD_0":30},"indices":31,"material":0}]},{"primitives":[{"mode":4,"attributes":{"POSITION":32,"NORMAL":33,"TEXCOORD_0":34},"indices":35,"material":0}]},{"primitives":[{"mode":4,"attributes":{"POSITION":36,"NORMAL":37,"TEXCOORD_0":38},"indices":39,"material":0}]},{"primitives":[{"mode":4,"attributes":{"POSITION":40,"NORMAL":41,"TEXCOORD_0":42},"indices":43,"material":0}]},{"primitives":[{"mode":4,"attributes":{"POSITION":44,"NORMAL":45,"TEXCOORD_0":46},"indices":47,"material":0}]},{"primitives":[{"mode":4,"attributes":{"POSITION":48,"NORMAL":49,"TEXCOORD_0":50},"indices":51,"material":0}]},{"primitives":[{"mode":4,"attributes":{"POSITION":52,"NORMAL":53,"TEXCOORD_0":54},"indices":55,"material":0}]}],"animations":[{"name":"idle","samplers":[{"input":56,"output":57,"interpolation":"LINEAR"},{"input":58,"output":59,"interpolation":"LINEAR"},{"input":60,"output":61,"interpolation":"LINEAR"},{"input":62,"output":63,"interpolation":"LINEAR"},{"input":64,"output":65,"interpolation":"LINEAR"},{"input":66,"output":67,"interpolation":"LINEAR"},{"input":68,"output":69,"interpolation":"LINEAR"},{"input":70,"output":71,"interpolation":"LINEAR"},{"input":72,"output":73,"interpolation":"LINEAR"},{"input":74,"output":75,"interpolation":"LINEAR"},{"input":76,"output":77,"interpolation":"LINEAR"},{"input":78,"output":79,"interpolation":"LINEAR"},{"input":80,"output":81,"interpolation":"LINEAR"},{"input":82,"output":83,"interpolation":"LINEAR"},{"input":84,"output":85,"interpolation":"LINEAR"},{"input":86,"output":87,"interpolation":"LINEAR"},{"input":88,"output":89,"interpolation":"LINEAR"},{"input":90,"output":91,"interpolation":"LINEAR"},{"input":92,"output":93,"interpolation":"LINEAR"}],"channels":[{"sampler":0,"target":{"node":24,"path":"rotation"}},{"sampler":1,"target":{"node":24,"path":"translation"}},{"sampler":2,"target":{"node":24,"path":"scale"}},{"sampler":3,"target":{"node":3,"path":"rotation"}},{"sampler":4,"target":{"node":3,"path":"translation"}},{"sampler":5,"target":{"node":7,"path":"rotation"}},{"sampler":6,"target":{"node":7,"path":"translation"}},{"sampler":7,"target":{"node":9,"path":"rotation"}},{"sampler":8,"target":{"node":9,"path":"translation"}},{"sampler":9,"target":{"node":11,"path":"rotation"}},{"sampler":10,"target":{"node":11,"path":"translation"}},{"sampler":11,"target":{"node":13,"path":"rotation"}},{"sampler":12,"target":{"node":13,"path":"translation"}},{"sampler":13,"target":{"node":15,"path":"rotation"}},{"sampler":14,"target":{"node":15,"path":"translation"}},{"sampler":15,"target":{"node":17,"path":"scale"}},{"sampler":16,"target":{"node":19,"path":"scale"}},{"sampler":17,"target":{"node":21,"path":"rotation"}},{"sampler":18,"target":{"node":21,"path":"translation"}}]}]}