{"asset":{"version":"2.0","generator":"Blockbench 5.0.7 glTF exporter"},"scenes":[{"nodes":[16],"name":"blockbench_export"}],"scene":0,"nodes":[{"rotation":[0,0,-0.19509032201612825,0.9807852804032304],"translation":[-0.043749999999999956,0,0],"name":"cube","mesh":0},{"rotation":[0,0,0.19509032201612825,0.9807852804032304],"translation":[0.48124999999999996,0,0],"name":"cube","mesh":1},{"rotation":[0.19509032201612825,0,0,0.9807852804032304],"translation":[0.21875,0,-0.26249999999999996],"name":"cube","mesh":2},{"rotation":[-0.19509032201612825,0,0,0.9807852804032304],"translation":[0.21875,0,0.26249999999999996],"name":"cube","mesh":3},{"rotation":[0.0746578340503426,-0.37533027751786524,-0.18023995550173696,0.9061274463528878],"translation":[-0.08749999999999997,0.10937499999999992,0.175],"name":"cube","mesh":4},{"rotation":[0.0746578340503426,0.37533027751786524,0.18023995550173696,0.9061274463528878],"translation":[0.5249999999999999,0.10937499999999992,0.175],"name":"cube","mesh":5},{"rotation":[-0.14644660940672624,0.3535533905932738,-0.3535533905932738,0.8535533905932737],"translation":[0.35,0.021875000000000006,0.21875],"name":"cube","mesh":6},{"rotation":[-0.14644660940672624,-0.3535533905932738,0.3535533905932738,0.8535533905932737],"translation":[0.08750000000000002,0.021875000000000006,0.21875],"name":"cube","mesh":7},{"rotation":[-0.0746578340503426,-0.37533027751786524,0.18023995550173696,0.9061274463528878],"translation":[0.5249999999999999,0.10937499999999992,-0.175],"name":"cube","mesh":8},{"rotation":[0.14644660940672624,-0.3535533905932738,-0.3535533905932738,0.8535533905932737],"translation":[0.35,0.021875000000000006,-0.21875],"name":"cube","mesh":9},{"rotation":[0.14644660940672624,0.3535533905932738,0.3535533905932738,0.8535533905932737],"translation":[0.08750000000000002,0.021875000000000006,-0.21875],"name":"cube","mesh":10},{"rotation":[-0.0746578340503426,0.37533027751786524,-0.18023995550173696,0.9061274463528878],"translation":[-0.08749999999999997,0.10937499999999992,-0.175],"name":"cube","mesh":11},{"translation":[0.2425185,-0.187954375,-0.021875],"name":"cube","mesh":12},{"rotation":[0.12253064888332832,-0.4480998149760506,0.021012387921629724,0.8852972808364944],"translation":[0.06562499999999999,0.17499999999999993,-0.0875],"name":"cube","mesh":13},{"rotation":[-0.08673008500673715,-0.09234874295161448,-0.0014040417309043682,0.9919413443832243],"translation":[-0.06562499999999999,0.17499999999999993,0.0875],"name":"cube","mesh":14},{"translation":[0.21875,-0.08750000000000001,0],"name":"normal-egg","children":[13,14]},{"translation":[-0.21875,0.10500000000000001,0],"name":"straw-egg","children":[0,1,2,3,4,5,6,7,8,9,10,11,12,15]}],"bufferViews":[{"buffer":0,"byteOffset":0,"byteLength":240,"target":34962,"byteStride":12},{"buffer":0,"byteOffset":240,"byteLength":240,"target":34962,"byteStride":12},{"buffer":0,"byteOffset":480,"byteLength":160,"target":34962,"byteStride":8},{"buffer":0,"byteOffset":640,"byteLength":60,"target":34963},{"buffer":0,"byteOffset":700,"byteLength":240,"target":34962,"byteStride":12},{"buffer":0,"byteOffset":940,"byteLength":240,"target":34962,"byteStride":12},{"buffer":0,"byteOffset":1180,"byteLength":160,"target":34962,"byteStride":8},{"buffer":0,"byteOffset":1340,"byteLength":60,"target":34963},{"buffer":0,"byteOffset":1400,"byteLength":240,"target":34962,"byteStride":12},{"buffer":0,"byteOffset":1640,"byteLength":240,"target":34962,"byteStride":12},{"buffer":0,"byteOffset":1880,"byteLength":160,"target":34962,"byteStride":8},{"buffer":0,"byteOffset":2040,"byteLength":60,"target":34963},{"buffer":0,"byteOffset":2100,"byteLength":240,"target":34962,"byteStride":12},{"buffer":0,"byteOffset":2340,"byteLength":240,"target":34962,"byteStride":12},{"buffer":0,"byteOffset":2580,"byteLength":160,"target":34962,"byteStride":8},{"buffer":0,"byteOffset":2740,"byteLength":60,"target":34963},{"buffer":0,"byteOffset":2800,"byteLength":240,"target":34962,"byteStride":12},{"buffer":0,"byteOffset":3040,"byteLength":240,"target":34962,"byteStride":12},{"buffer":0,"byteOffset":3280,"byteLength":160,"target":34962,"byteStride":8},{"buffer":0,"byteOffset":3440,"byteLength":60,"target":34963},{"buffer":0,"byteOffset":3500,"byteLength":240,"target":34962,"byteStride":12},{"buffer":0,"byteOffset":3740,"byteLength":240,"target":34962,"byteStride":12},{"buffer":0,"byteOffset":3980,"byteLength":160,"target":34962,"byteStride":8},{"buffer":0,"byteOffset":4140,"byteLength":60,"target":34963},{"buffer":0,"byteOffset":4200,"byteLength":240,"target":34962,"byteStride":12},{"buffer":0,"byteOffset":4440,"byteLength":240,"target":34962,"byteStride":12},{"buffer":0,"byteOffset":4680,"byteLength":160,"target":34962,"byteStride":8},{"buffer":0,"byteOffset":4840,"byteLength":60,"target":34963},{"buffer":0,"byteOffset":4900,"byteLength":240,"target":34962,"byteStride":12},{"buffer":0,"byteOffset":5140,"byteLength":240,"target":34962,"byteStride":12},{"buffer":0,"byteOffset":5380,"byteLength":160,"target":34962,"byteStride":8},{"buffer":0,"byteOffset":5540,"byteLength":60,"target":34963},{"buffer":0,"byteOffset":5600,"byteLength":240,"target":34962,"byteStride":12},{"buffer":0,"byteOffset":5840,"byteLength":240,"target":34962,"byteStride":12},{"buffer":0,"byteOffset":6080,"byteLength":160,"target":34962,"byteStride":8},{"buffer":0,"byteOffset":6240,"byteLength":60,"target":34963},{"buffer":0,"byteOffset":6300,"byteLength":240,"target":34962,"byteStride":12},{"buffer":0,"byteOffset":6540,"byteLength":240,"target":34962,"byteStride":12},{"buffer":0,"byteOffset":6780,"byteLength":160,"target":34962,"byteStride":8},{"buffer":0,"byteOffset":6940,"byteLength":60,"target":34963},{"buffer":0,"byteOffset":7000,"byteLength":240,"target":34962,"byteStride":12},{"buffer":0,"byteOffset":7240,"byteLength":240,"target":34962,"byteStride":12},{"buffer":0,"byteOffset":7480,"byteLength":160,"target":34962,"byteStride":8},{"buffer":0,"byteOffset":7640,"byteLength":60,"target":34963},{"buffer":0,"byteOffset":7700,"byteLength":240,"target":34962,"byteStride":12},{"buffer":0,"byteOffset":7940,"byteLength":240,"target":34962,"byteStride":12},{"buffer":0,"byteOffset":8180,"byteLength":160,"target":34962,"byteStride":8},{"buffer":0,"byteOffset":8340,"byteLength":60,"target":34963},{"buffer":0,"byteOffset":8400,"byteLength":240,"target":34962,"byteStride":12},{"buffer":0,"byteOffset":8640,"byteLength":240,"target":34962,"byteStride":12},{"buffer":0,"byteOffset":8880,"byteLength":160,"target":34962,"byteStride":8},{"buffer":0,"byteOffset":9040,"byteLength":60,"target":34963},{"buffer":0,"byteOffset":9100,"byteLength":288,"target":34962,"byteStride":12},{"buffer":0,"byteOffset":9388,"byteLength":288,"target":34962,"byteStride":12},{"buffer":0,"byteOffset":9676,"byteLength":192,"target":34962,"byteStride":8},{"buffer":0,"byteOffset":9868,"byteLength":72,"target":34963},{"buffer":0,"byteOffset":9940,"byteLength":288,"target":34962,"byteStride":12},{"buffer":0,"byteOffset":10228,"byteLength":288,"target":34962,"byteStride":12},{"buffer":0,"byteOffset":10516,"byteLength":192,"target":34962,"byteStride":8},{"buffer":0,"byteOffset":10708,"byteLength":72,"target":34963}],"buffers":[{"byteLength":10780,"uri":"data:application/octet-stream;base64,"}],"accessors":[{"bufferView":0,"componentType":5126,"count":20,"max":[0.26249998807907104,0,0.3499999940395355],"min":[-0.26249998807907104,0,-0.3499999940395355],"type":"VEC3"},{"bufferView":1,"componentType":5126,"count":20,"max":[1,0,0],"min":[0,-1,0],"type":"VEC3"},{"bufferView":2,"componentType":5126,"count":20,"max":[0.375,0.5000500082969666],"min":[0,0],"type":"VEC2"},{"bufferView":3,"componentType":5123,"count":30,"max":[19],"min":[0],"type":"SCALAR"},{"bufferView":4,"componentType":5126,"count":20,"max":[0.26249998807907104,0,0.3499999940395355],"min":[-0.26249998807907104,0,-0.3499999940395355],"type":"VEC3"},{"bufferView":5,"componentType":5126,"count":20,"max":[1,0,0],"min":[0,-1,0],"type":"VEC3"},{"bufferView":6,"componentType":5126,"count":20,"max":[0.375,0.5000500082969666],"min":[0,0],"type":"VEC2"},{"bufferView":7,"componentType":5123,"count":30,"max":[19],"min":[0],"type":"SCALAR"},{"bufferView":8,"componentType":5126,"count":20,"max":[0.3499999940395355,0,0.26249998807907104],"min":[-0.3499999940395355,0,-0.26249998807907104],"type":"VEC3"},{"bufferView":9,"componentType":5126,"count":20,"max":[1,0,0],"min":[0,-1,0],"type":"VEC3"},{"bufferView":10,"componentType":5126,"count":20,"max":[0.375,0.5000500082969666],"min":[0,0],"type":"VEC2"},{"bufferView":11,"componentType":5123,"count":30,"max":[19],"min":[0],"type":"SCALAR"},{"bufferView":12,"componentType":5126,"count":20,"max":[0.3499999940395355,0,0.26249998807907104],"min":[-0.3499999940395355,0,-0.26249998807907104],"type":"VEC3"},{"bufferView":13,"componentType":5126,"count":20,"max":[1,0,0],"min":[0,-1,0],"type":"VEC3"},{"bufferView":14,"componentType":5126,"count":20,"max":[0.375,0.5000500082969666],"min":[0,0],"type":"VEC2"},{"bufferView":15,"componentType":5123,"count":30,"max":[19],"min":[0],"type":"SCALAR"},{"bufferView":16,"componentType":5126,"count":20,"max":[0.08749999850988388,0.08749999850988388,0],"min":[-0.08749999850988388,-0.08749999850988388,0],"type":"VEC3"},{"bufferView":17,"componentType":5126,"count":20,"max":[1,0,0],"min":[0,0,-1],"type":"VEC3"},{"bufferView":18,"componentType":5126,"count":20,"max":[0.53125,0.28125],"min":[0,0],"type":"VEC2"},{"bufferView":19,"componentType":5123,"count":30,"max":[19],"min":[0],"type":"SCALAR"},{"bufferView":20,"componentType":5126,"count":20,"max":[0.08749999850988388,0.08749999850988388,0],"min":[-0.08749999850988388,-0.08749999850988388,0],"type":"VEC3"},{"bufferView":21,"componentType":5126,"count":20,"max":[1,0,0],"min":[0,0,-1],"type":"VEC3"},{"bufferView":22,"componentType":5126,"count":20,"max":[0.53125,0.28125],"min":[0,0],"type":"VEC2"},{"bufferView":23,"componentType":5123,"count":30,"max":[19],"min":[0],"type":"SCALAR"},{"bufferView":24,"componentType":5126,"count":20,"max":[0.08749999850988388,0.08749999850988388,0],"min":[-0.08749999850988388,-0.08749999850988388,0],"type":"VEC3"},{"bufferView":25,"componentType":5126,"count":20,"max":[1,0,0],"min":[0,0,-1],"type":"VEC3"},{"bufferView":26,"componentType":5126,"count":20,"max":[0.53125,0.28125],"min":[0,0],"type":"VEC2"},{"bufferView":27,"componentType":5123,"count":30,"max":[19],"min":[0],"type":"SCALAR"},{"bufferView":28,"componentType":5126,"count":20,"max":[0.08749999850988388,0.08749999850988388,0],"min":[-0.08749999850988388,-0.08749999850988388,0],"type":"VEC3"},{"bufferView":29,"componentType":5126,"count":20,"max":[1,0,0],"min":[0,0,-1],"type":"VEC3"},{"bufferView":30,"componentType":5126,"count":20,"max":[0.53125,0.28125],"min":[0,0],"type":"VEC2"},{"bufferView":31,"componentType":5123,"count":30,"max":[19],"min":[0],"type":"SCALAR"},{"bufferView":32,"componentType":5126,"count":20,"max":[0.08749999850988388,0.08749999850988388,0],"min":[-0.08749999850988388,-0.08749999850988388,0],"type":"VEC3"},{"bufferView":33,"componentType":5126,"count":20,"max":[1,0,1],"min":[0,0,0],"type":"VEC3"},{"bufferView":34,"componentType":5126,"count":20,"max":[0.53125,0.28125],"min":[0,0],"type":"VEC2"},{"bufferView":35,"componentType":5123,"count":30,"max":[19],"min":[0],"type":"SCALAR"},{"bufferView":36,"componentType":5126,"count":20,"max":[0.08749999850988388,0.08749999850988388,0],"min":[-0.08749999850988388,-0.08749999850988388,0],"type":"VEC3"},{"bufferView":37,"componentType":5126,"count":20,"max":[1,0,1],"min":[0,0,0],"type":"VEC3"},{"bufferView":38,"componentType":5126,"count":20,"max":[0.53125,0.28125],"min":[0,0],"type":"VEC2"},{"bufferView":39,"componentType":5123,"count":30,"max":[19],"min":[0],"type":"SCALAR"},{"bufferView":40,"componentType":5126,"count":20,"max":[0.08749999850988388,0.08749999850988388,0],"min":[-0.08749999850988388,-0.08749999850988388,0],"type":"VEC3"},{"bufferView":41,"componentType":5126,"count":20,"max":[1,0,1],"min":[0,0,0],"type":"VEC3"},{"bufferView":42,"componentType":5126,"count":20,"max":[0.53125,0.28125],"min":[0,0],"type":"VEC2"},{"bufferView":43,"componentType":5123,"count":30,"max":[19],"min":[0],"type":"SCALAR"},{"bufferView":44,"componentType":5126,"count":20,"max":[0.08749999850988388,0.08749999850988388,0],"min":[-0.08749999850988388,-0.08749999850988388,0],"type":"VEC3"},{"bufferView":45,"componentType":5126,"count":20,"max":[1,0,1],"min":[0,0,0],"type":"VEC3"},{"bufferView":46,"componentType":5126,"count":20,"max":[0.53125,0.28125],"min":[0,0],"type":"VEC2"},{"bufferView":47,"componentType":5123,"count":30,"max":[19],"min":[0],"type":"SCALAR"},{"bufferView":48,"componentType":5126,"count":20,"max":[0,0.08749999850988388,0.04374999925494194],"min":[-0.04374999925494194,0.08749999850988388,0],"type":"VEC3"},{"bufferView":49,"componentType":5126,"count":20,"max":[1,0,0],"min":[0,-1,0],"type":"VEC3"},{"bufferView":50,"componentType":5126,"count":20,"max":[0.4375,0.34375],"min":[0,0],"type":"VEC2"},{"bufferView":51,"componentType":5123,"count":30,"max":[19],"min":[0],"type":"SCALAR"},{"bufferView":52,"componentType":5126,"count":24,"max":[0.08531250059604645,0.11046875268220901,0.08749999850988388],"min":[-0.08968749642372131,-0.1301562488079071,-0.08749999850988388],"type":"VEC3"},{"bufferView":53,"componentType":5126,"count":24,"max":[1,1,1],"min":[-1,-1,-1],"type":"VEC3"},{"bufferView":54,"componentType":5126,"count":24,"max":[0.515625,0.40625],"min":[0,0],"type":"VEC2"},{"bufferView":55,"componentType":5123,"count":36,"max":[23],"min":[0],"type":"SCALAR"},{"bufferView":56,"componentType":5126,"count":24,"max":[0.08749999850988388,0.1159375011920929,0.08749999850988388],"min":[-0.08749999850988388,-0.12468750029802322,-0.08749999850988388],"type":"VEC3"},{"bufferView":57,"componentType":5126,"count":24,"max":[1,1,1],"min":[-1,-1,-1],"type":"VEC3"},{"bufferView":58,"componentType":5126,"count":24,"max":[0.515625,0.40625],"min":[0,0],"type":"VEC2"},{"bufferView":59,"componentType":5123,"count":36,"max":[23],"min":[0],"type":"SCALAR"}],"materials":[{"pbrMetallicRoughness":{"metallicFactor":0,"roughnessFactor":1,"baseColorTexture":{"index":0}},"alphaMode":"MASK","alphaCutoff":0.05,"doubleSided":true},{"pbrMetallicRoughness":{"metallicFactor":0,"roughnessFactor":1,"baseColorTexture":{"index":1}},"alphaMode":"MASK","alphaCutoff":0.05,"doubleSided":true}],"textures":[{"sampler":0,"source":0,"name":"straw-egg"},{"sampler":1,"source":1,"name":"speckled-egg"}],"samplers":[{"magFilter":9728,"minFilter":9728,"wrapS":33071,"wrapT":33071},{"magFilter":9728,"minFilter":9728,"wrapS":33071,"wrapT":33071}],"images":[{"mimeType":"image/png","uri":"data:image/png;base64,"},{"mimeType":"image/png","uri":"data:image/png;base64,"}],"meshes":[{"primitives":[{"mode":4,"attributes":{"POSITION":0,"NORMAL":1,"TEXCOORD_0":2},"indices":3,"material":0}]},{"primitives":[{"mode":4,"attributes":{"POSITION":4,"NORMAL":5,"TEXCOORD_0":6},"indices":7,"material":0}]},{"primitives":[{"mode":4,"attributes":{"POSITION":8,"NORMAL":9,"TEXCOORD_0":10},"indices":11,"material":0}]},{"primitives":[{"mode":4,"attributes":{"POSITION":12,"NORMAL":13,"TEXCOORD_0":14},"indices":15,"material":0}]},{"primitives":[{"mode":4,"attributes":{"POSITION":16,"NORMAL":17,"TEXCOORD_0":18},"indices":19,"material":0}]},{"primitives":[{"mode":4,"attributes":{"POSITION":20,"NORMAL":21,"TEXCOORD_0":22},"indices":23,"material":0}]},{"primitives":[{"mode":4,"attributes":{"POSITION":24,"NORMAL":25,"TEXCOORD_0":26},"indices":27,"material":0}]},{"primitives":[{"mode":4,"attributes":{"POSITION":28,"NORMAL":29,"TEXCOORD_0":30},"indices":31,"material":0}]},{"primitives":[{"mode":4,"attributes":{"POSITION":32,"NORMAL":33,"TEXCOORD_0":34},"indices":35,"material":0}]},{"primitives":[{"mode":4,"attributes":{"POSITION":36,"NORMAL":37,"TEXCOORD_0":38},"indices":39,"material":0}]},{"primitives":[{"mode":4,"attributes":{"POSITION":40,"NORMAL":41,"TEXCOORD_0":42},"indices":43,"material":0}]},{"primitives":[{"mode":4,"attributes":{"POSITION":44,"NORMAL":45,"TEXCOORD_0":46},"indices":47,"material":0}]},{"primitives":[{"mode":4,"attributes":{"POSITION":48,"NORMAL":49,"TEXCOORD_0":50},"indices":51,"material":0}]},{"primitives":[{"mode":4,"attributes":{"POSITION":52,"NORMAL":53,"TEXCOORD_0":54},"indices":55,"material":1}]},{"primitives":[{"mode":4,"attributes":{"POSITION":56,"NORMAL":57,"TEXCOORD_0":58},"indices":59,"material":1}]}]}